<mxfile host="app.diagrams.net" modified="2024-07-04T05:49:04.351Z" agent="Mozilla/5.0 (Windows NT 10.0; Win64; x64) AppleWebKit/537.36 (KHTML, like Gecko) Chrome/124.0.0.0 Safari/537.36" etag="bAHTHRxLOUurYQ6rfbiq" version="24.6.4" type="github">
  <diagram name="第 1 页" id="PcElugBNnDMQZMT1YG58">
    <mxGraphModel dx="1888" dy="557" grid="1" gridSize="10" guides="1" tooltips="1" connect="1" arrows="1" fold="1" page="1" pageScale="1" pageWidth="827" pageHeight="1169" math="0" shadow="0">
      <root>
        <mxCell id="0" />
        <mxCell id="1" parent="0" />
        <mxCell id="Xi7EQyzXXoAQUirJSp25-68" value="" style="rounded=1;whiteSpace=wrap;html=1;fontSize=10;" parent="1" vertex="1">
          <mxGeometry x="875" y="250" width="140" height="710" as="geometry" />
        </mxCell>
        <mxCell id="Xi7EQyzXXoAQUirJSp25-8" value="" style="shape=image;verticalLabelPosition=bottom;labelBackgroundColor=default;verticalAlign=top;aspect=fixed;imageAspect=0;image=data:image/png,iVBORw0KGgoAAAANSUhEUgAAAGIAAACXCAYAAADu+o6kAAAAAXNSR0IArs4c6QAAAARnQU1BAACxjwv8YQUAAAAJcEhZcwAAEnQAABJ0Ad5mH3gAAA2/SURBVHhe7Z17jFxVHcfPvXdmtqWtUeja0s62lO5jZrdWGqsQ0EAF1AbToDyCoBAVeYhGRaNiqBFrlIiBfyDhIUYBgzY8ohLkZQEjikWp4O7M7ra1dh99pC2l7bbbztxzj99z97fjzOw87mz3nnuWnk8ymd/vzMy9d873nN/5nfu09q1dIVhATlm3ySIzEI0suxIn0vpsejdEjBFCE4wQmjBhjGg0ThqmBtMjNMEIoQlGCE0wQhgMBoPBoDlm8hYR5RNpkzVpghFCE4wQmmCE0AQjhCYYITTBCKEJ5sBQRJh5hKYYITTBCKEJRghNmFaD9dKlS1uampq6hBDNlmU1o2i/53l78NrS39/fO/at6UF5vYcuRFtb28LNmzcPk9swXV1df0Slf4LcukCkTE9PzzJpjpU0Rnt7+1yIupfc0FCaNXV2dt6cSCR+Sm5gZGWk0+nHly1bJhoRQYLvd+J3XiqV2ohXOxUHJhaL3Yl130iuMsLsEXFUSE4a+Xx+VV9f30t+aRUg2h22bX+L3CkH4et5vH0yk8n421QJCLDacZynpY3vN9X67lQTWo9AxV5FpmxlD5BZEYSf0TBFkGD5F+J1jNyKIKzdR6bk8/SuhNCEwJ+6hkwZLloxVryf3BJaW1tX4PMZ5IYOWn1FweX2ocG0kCu3+bNkKiE0IdDFzyPTB2PF78kssGTJkuUzZsx4nVwlYLvuQG/9LbkFUP44mT4Q4sNkKkHZPAJ/bBGZPmiZi2fNmvUGuUpBiLoc63+FXB/0hqVkRoIyIYpZvHjxfLTA/5IbCVj/2ciqCuEzakLLmmTqSWYJnPPDqIRZ5GpNd3e3ssltaD0CFf4mmSVUEgED+0EyQwXrOUpmXaptf1iEpji6/acQd58gtyb40+eiknL4/t+oaMrBvOAjhw8f3jJnzpydVFQT13U/3dvb+yS5oRNq18P8YBiD9AJyqyL3F2Hy9F5pI6NZi8H0h/4HUwAq9D5U6A3SxgD9LHrkx/wPaoDtOYDteTe5Sgh1sB4ZGekisyao+GbMJ5qkjQpYd/To0RnoIf/yP5wkqMxtEGHuuAgAGtQXQZLL5drIVEaoQmzfvv3tQ4cOzUSl/oWKqoJ5xhoy2ZYtW4719PSsyOfzy6moIRDqLoCgp0OEfVQke9pFZNbijd27d8/B+veQrwxlWUG1LKqYSlkKwtvXEd7uIrcuEP12iHgLuQWCrP/gwYMnDwwM7Cc3VCbsBqf3UEFl3onK/Aa5NamVMmI567Gcy8gtgDD0MnpAyUy+mCAiSGRqnc1mZ5MbKkp3g4+DP1jYAVgPDKgXk1mC3C1RSQQJxphz8bsXyS0B2VuQkOQT5fxGiRBIS/2MKAiojCc7OjrmkCtxIMITcrcE+RXB784jMWJjJYwlk8mZWPdT5Aaivb09RaZSVIQmG6GBkx0Y9KKzjhw50oe8v+GYLbMlhKtmJABZKgoMfnsNBvmHyA0N5aEJoWEFmQ2BFv7qZESQoBfsnYwIEqz3Q2QqJXQhENcDhyVNiGR7QxcCsX0mmdMCNJxItteWsar4ReVTBmJ9oH07uoB5yA4ylRJ6j8Afm1ZCgF30rpTQhejr64v0AFCjINvaRKZSQhdiupHL5f5JplKUCIHwdIhM7dm6desgmUpRIgS6e+gTpKkAicURMpWj7CTkoDveikHFvJ3NZt9DbmDS6fRuTMwang9gVr0As2olyUV5vSsbIxCeAu/KRoUczufz50xGBAl+N08ey2gkFcV331IlQiWU9Yh58+bNam5uHiG3KghjD2cymavJPW7QO+5G77iJ3KpgkF7d39//DLnKUSaEpF54ggg/gAi3kVtMIpVKnYcKvRb2Gsx+/cOqEvSe/Zi9y13kj/T09MiTD7yxT/5PZ2fnVfjOI+RWROWpM5XQRghU6BsIDWeQW6Crq2snKnk+uXXBuPImQtOE82whxnqIUfF4hiRqIZTOI9Div0LmBMpFaGtrO0MK14gIEvSa5RBvr7xAhop80NOqHs/Adh0gMzKUCoHKuAeD4oRxAr3hEjJ9UJGbmpqaJj3DhXin4PdDWM4LVORTvp5xRkdHO8iMDKVCSBDH54yMjJxGrg8qbqV8lz2AesGEEDUZsJzzx5cpXfSWkjO80SjuliFp27Ztu6koMpSOEcUgmzkfFVNosagUKUBo6y5fPtxuNIr3kRs5ynvEOBhQ/4TK+Ci5svWG2gCKl48xoU8nESRKWn8tOjo6VsXj8Q3khg6yqvvRCK4nVxsiF0KCQfUYGmyC3FCJOk2tRmShqRiEiSa01J+TGwoIgxv37dun7XUZWrYOeZ11LBa7CxOwSV9QCGFfQuVfj/lJPxVpjZZCFIPs6jFkVxXz/0pAgBcxBlwAc8KuDp0oz1a1F6KY1tbWZCKROBem3Cs7Gz3mCDKgQxhfXkV4m9R5TFExrYV4J1EuhBaDtcEIoQ1GCE0wQmiCEUITItv7eqJjsiZNMUJoghFCE4wQmmCE0AQjhCYYITTBzCM0wfQITTBCaIIRQhNCHyN6WmKDXYNu4Q7DQeldYH+ZMWctizV2ErKECzHKPO9no8N83UrG8lQciN6FzrbUMF9CrjJC7RG9Lc46x7KT5AYim3R+3LsoIVgsds9kRJA4ljXTcZy1sxclcplkbMJdj2viOKdlW+zvkaeMUIXgXmM3XkdrvMyynQl3HzsebNu+PIMGATNwT/c89ETFhCZEN2MJxwl28/X1+K7fCxwH5tRjW86tWL732lx2KhXVRG53P2OFq5JUENqcYetc1p4/KdEnbeHyNekd/A/+B2X0zWdpNx7vRjhRkzh47rWpIe9B8kroOZVd7MQT/r1e7Vyuq30Xy/gfKCA0IfwWXoTnuVd2DnmPksv6FtpfEk7sfnKVIzzvhfSQeyG5LLPQuch2nJK7naUGcsomt8rSV9tzfkWmT5QiSCzblmcDFsBY0tigPsUoEwIZUByp7JA0/72ANZzOhkFv0v6i/94S38AsK9ITlJWFpnG4J15xLHYm/njhJohRghD1MHrH58gtIczQpOyYNXf5f8gswbGtc3QRQVJNBAxq28lSQmhCxAUbvyd3XdAqt3OX/YPcUHAFOySEi6w6GB4X15GphNCEaN/Jn/c4D3Q6PVrlYkfwH8lQIDze0HPn6mG57mfkcm2eW4mOKB8UWB/h3dK5kz9HnhJCHaw7h/kTQvCajz4bR8TGbtGQHuLP+rHZK3kUWeMI79dyOR07vN9I17Lif/bL6yH4L1KD7u3kKUNJnpxdGN9lOdY8cqtiD+RmtDNWeFbcXxmbeXKL/XdmxQJfASqEN3j0oLt8xQH2NhWxpzFLPn1Rou7TVIQQR9KDeSXZUyQnmAnmvUVmTXgyXvIIsrMZG00Ness5FzUf5DeO4CKfHnQXFYsgWVK23GpYlnUSmcpRIgRmrGkya2LZVsUbqncN52fYLv8JuRXxuPe79HC+4pWp1ZarE6Hf97VRNiVZyc1Mxslbds17LqGyC7srinl9PpOPW9YeJT2iEWZa8QnXwmHme9BxrHeRWxEZVrIt8cPkFpgZj0Vy18pG0U4I1Oicnpb4nuxC55Le+eyDmWTsYVlGn9ZEitGbjG/YnHQ+3rfQuUjuUrEsW4vdKfXQTwjgWNZcy3EeY4nExoavtbatVdx2nhGO85Rj2RXDXC02J1krmUrRUogoyXlOyS2MVGGEKMdmSp4xVI4Rogzh8khuGWGEKGPPLhaJEErOfa12bEJHwjwGUQvTIzTBCKEJ00oIz/PWsxxfncuLlfF8bjE/5p3FXfcK4Ymn6SvTFiVjRHaB3W3FYoGe5DsBj9+bGuI3kleXbNK53bKd75DbMO/sMUJY3yQrMBZ3r5OV0ogIkvQQ/678neD8Ug4ZqTgQwvMCPQg9DJQIkd7JnyWzPlw8NzKQS3QMe4GO7FUjPcwf7xrIOZ4n7qWiuuSE+zUylaPs0q1s0v6CZccqnupYTLXQgI20eltiH0Dv6rAsz3+eKMo42ny3w3mm1umRgdJnwftTgzyyW1MrjYfZU1iHNSvRS24J3PUOdO1wC4+3R83FMsn4y45tnU1FgfG4uDc9nL8Jf64QmrILYvutmF3x8fmeEBs7B/NnkhsJSrOm9D4mT0queNh0dIdbOICDSrs10xI/NhkRJLZj3dCH3/e12NdQEdtVtPxyZot81Wdhq0J5+vroQK5ZCOGSO4YQb41f2dO7IP4aWu664z473LJiwor9sicZ9x/zv4ox1xJir/9ZEW4u17VoiI2SGxnKhbgNkcDz8p3k+pQE8NjYnfOnCv/MQiLvsZJj2kLwB5cpPPW+FpHkzJLyAVR4/CFm2ZeGcSYFd8UxyxYbbNteTUU+Uc0ZJOVJkvIeMQ7yfHk5VQFMwq4O63QWJ2Y1lYtgebxi0hAVkQmBPP/7/sTL5WuoSAlWnt8l19sxxAOd4qOKyIQYR17S5Q7kAp0ccLzI/VMdO/nN5GpF5EJIljE2MrZbwg18BnkjYFC+u2MgZy/dyQaoSDu0EGKc9LB3HyqtZOw4boT3aHqQfxWjcv3ZdYRoJYQEleaPHUy4V3DOt1FxYwgxIjzv23KfVWrQvZJKtSay9O1Epzx9Nfdright5hGGUowQmmCE0AQjhCYYITTBCKEJRghNMPMITTA9QhOMEJpghNAEI4QmGCE0YULWVE6jWVS95dXjRF2f6RGaYITQBNtM4HSAsf8B8SdEgTvDmyUAAAAASUVORK5CYII=;" parent="1" vertex="1">
          <mxGeometry x="260" y="840" width="60" height="85.71" as="geometry" />
        </mxCell>
        <mxCell id="Xi7EQyzXXoAQUirJSp25-9" value="" style="shape=image;verticalLabelPosition=bottom;labelBackgroundColor=default;verticalAlign=top;aspect=fixed;imageAspect=0;image=data:image/png,iVBORw0KGgoAAAANSUhEUgAAAFYAAABTCAYAAAAFm/BEAAAAAXNSR0IArs4c6QAAAARnQU1BAACxjwv8YQUAAAAJcEhZcwAAEnQAABJ0Ad5mH3gAAAYISURBVHhe7ZxNbNxEFMc9tpM2hLBh00IFUtJG4gIXpJ7gAEhwhgtBHIAjJ0CAKG0iQAJEtmkkkCjiwJEigVROnLgg8SFxo4IDnFDSbqUWmu7GUUqbZv2Bn/PGXduz3vHaHo9d/6TVzpt4/fH387yZNxMrNTU1NTW5QfBbCppHlrrd9eUmmhGas0sG0ZUGmgEc09rttlf2oRmheWTxane9dQDN3FHxWwoIUe7GYoCZ+SUHPoNEBYiujdPtsCoAIWQGi0KQRtg7Dr51CL6bs4vPehUeC55YaHADv5m8Z/FeNP19Tswcu8+rEIA0wo5P6M/BN9HJWa/CZWb+gZtYTMz+O8k/cGOgTPe5b0pdgG8RSNQUkLuw4D/6aI4M3JjAfuxbx8gbaYQ12n+fwmIA27JPY5Eby7RfwmIAo/078xh5IFWvQFFeHpuZP7CLhk9nbdk7z8bht//UVf1BrzKEZSnbxoVlzyNZ3t5Zu+o2C1/00MwdyYRli2Ja1ptbF1Y+QTOyDRUeaMydeF3XVH9bSv82IpCquzUIXdM+xuJQWKIWQSk8ltIznVfGdPIZmgFsh3yqEuc1NCPUHhvDIFGBOFGBxvyxJ7EohFIJmwpT2cSSEG4bYbfaq+ewKITbx2MFU0phrZ7zWOfG2GRn25iybOcJrJYK6XoFU3MnHhnX1F/R9HEc+4/u+smH0WTSnFs6QzTlBTR9bMf5eXO99TiaQpBOWKA5u2gQnfgpQtpVmj689K6mKh94lSEs03nRaLe+gnLcAEIUgQPKlGim4rje9p3rbc/E9W/7ARHd6/iaEOV5ant/EEzgoHDyrBPhvSjKoH0kvcikxw0jOj/Qjx+8ZEw0d9a292MxMfYOmS1KVMAXVs5E8+mbozzK8JvNSx9dRLMQ/JOenl18R9PJh2jmgmXa7xntkyMfw436V9yofxDNAJZj7RjrKxNoMhEZQ/q8AR77qIdColnV1FfR5AISzZqufommT2ftnPtofz/yU5CWQe180uaOJ4aENqhOojkMxJCJqfHLjuksdNutb/dq2c7Ew84159B/V1r/QhliCDR317d699/orF6CutDIi33hjbnjb8D31vlTD7HuFtRRUSHR7FVGKE5UQHQM4RrSljHRHEXsZCWzrcBihDIlmqOIjSGJhE2DqfSe2lpb/QHNghAXQ8QJa/aOhnOiRQyhWdeXx2SlsLQhK9Esy1qtPGKIMI8N31HR3R9K3PVlGUNG8tgsEs0yDqGznKyMCLtr2Y9iMQAkmuGuwMe42PpFufz+dWXj82vG+dZPtN6xFC8fGgYSzVjso1prtcKTlZGmABCTaC5mCJ3FDWQRvkZmU+C2edNY9BLN8A0nNEhUQNPJGXrSjqN841W6sEUFzu7udVGCgKjwG/iYtvkXVkeA7g/dji0q7Lu4vMTANpYKohLydJK7DNveyt5HhQsi5xA6ixgSG7yKSjTnOYQWFUMGPKZBkrZLcBJYHErcvvMaQouIIdwCAGkTzSyS3jRehg2h6XHzmqxMJGwe5CYsYwgdJu2x43LMIw0QygDPWq08Y0hlheUjv8nKUgib91otEAo+btTfwKoIEEPodlgVS+FtbFXWaoUpXFhAzBBaLFI0BWKG0GKR4iQoeXZ/RCNV8CrzWq0wXB4rem4qqefK8vj3w3VCcKGsk89CgEH7BvIYQotiqLBFzU2VnaFtbNXeIyAKjuBVsbkpQXC0scXMTQ2jiMUeSeDwWDnnpmR/MQ9nP5bdPyxqbqoML+ZJNUAoanlnGQIqRxu7R5w3iF7eWYb/l0jlsZQsl+bwUIYX82QibCpGeo+A/Is9Chd29PcIyBVQwxTvsRkjy/9LZBK8KDA3ZZjjvynmhjo92TiqqeRH/NNAWF7Fi0wBNQz3DmScmxql38pDFv8vkejOyDY3lZuwHIs9hpGoja3i3BSLtKICI11cWk/Jam4qL4/N4qaP1Cso09xUUS/mEdrGZf34y7zYI5MLLXJuStbFHpl6UFFQcSCgyvJinkoIC6QNZFkFVEplhrSyBdTKeCyl6IBKqZywlDIv9qipqampiUNR/gfNnUm+4GOi/QAAAABJRU5ErkJggg==;fontSize=10;" parent="1" vertex="1">
          <mxGeometry x="895" y="700" width="90" height="80" as="geometry" />
        </mxCell>
        <mxCell id="Xi7EQyzXXoAQUirJSp25-10" value="" style="shape=image;verticalLabelPosition=bottom;labelBackgroundColor=default;verticalAlign=top;aspect=fixed;imageAspect=0;image=data:image/png,iVBORw0KGgoAAAANSUhEUgAAAFYAAABUCAYAAAAYnsD8AAAAAXNSR0IArs4c6QAAAARnQU1BAACxjwv8YQUAAAAJcEhZcwAAEnQAABJ0Ad5mH3gAAAZWSURBVHhe7ZxNbONEFMdnbCdpAqiVoGnTSyu1zbbihNAe4AqskJBAnODEh7QgQMBh9wYXkDjCaQ8gFfEhLsANbiwSFyROe+CwaNOqZZGQmnR3kRDsNk1ie5hnns04cVInGc9MQn5S5Hm249j/eX5+kzcJmTFjxgxCKC6VMt9cXStZhUcZpQ5j7o9HhYNfcNPUIF3YlVb10mFh7w00I8onmxcdy3kfzUR84n/cyO++hGbEcqd6qZHrPabJyBWWVUornYU7h/lrseNWmpt/U9u5G82BMM9z68W9HJoBK+1tdpi7dQ+hN2/jKuORKmyltXVEKS13jjsbNxf2D2AdiBJsHJKwcxaO11ZLTvE312e3bszVFoONY6IiFEkVVhTRJe2HHZL/Cc2RcL3OOcfOXUYzEnsQpoQiC5dScGnnHDaJKKpPvNQe4TL/d2wSUVTmtR/HZn94KCLUfh2tCAhFp4kKWMQ6X2lWO2hGWIwfky2mCmUhUoW9kdv/HpsxTtz2Eyfc+9Dsi0fcN+/k2mfRjFEvHnyHzb5U2vPXYbn458Z6sIIDd1Ha+A5Q23bEOw9CESzLrXuDY6dFaigISYqr4W281Nw6sW1aCFYKhNsHvfc0TAhFIVI9Ng1HxdocNiOGOeFBaA9FAsqErbTOvANL7rHNYIXAUnOzBcvldvW1YEUXS60z72JzILpDkYgUTxFZalXfs6n9NppSYB77q16szaN5KrpCkYh0j7V9+is2peFT38Pm2GQZikSkC3tY3P0Em9KgFn0LmyOjIhSJSO8pIOl2GodhPMqEUAQozQoYYz+ASEkvn7FvcbexMCUUZSIsF+kFbEaAePVC7RE0/x0lwQtpFGpPwT5oRnjE/xmbqTAlFGUSCgAxHDDf/6I+t/tcpb11hRL6IK6OwcfpX/Fx+rM8zn1qETvqmCSxT0NnKArJTFjCiL3S2XahCSeW9mLFfVvEP/tHfvdKsGEI+n0WhKLYXSOw3Nr6xqL0STRjmCUsMqr3jHIxIVyk57lIn6EZ0HO8MAzR+nGwRLrPF0LRUX73ATRTk7mwAE9xjnlSXkRzIPwJ7PEnsIPmyIgCqQ5FgBJhgfJJ9YJj2R+gmQj3jh3uHS+jOR4aQxGgTFiR5ePtVeqwp/nZW4yRy0eF2lXcJB0doQjQIqxqdIQipQMEXRwVayXX9y6i2RcIRTJEBf4XHtuNilA0EcJO4gQP7cJO6wQPvcJO8QQPrQ8vk6qqstHqsaIguquqstHqsSZVVWWj/+GVMDI6dptrFnWqc4JQSUBV9bbjfj3vzjVwVYRObwW0CwskiRsKo6qqKpuhQwHklJVW9fxy+8wrS631+3F1ZqiqqsomJizklNiMATkleAa87rJL1ym1dyxifWjT/NVwPRd6B3ePATklNodCdVVVNv/1vKac0pSqqmwij9WVU5o+wWNUIu8UBVGdU4qfLQM+1H2VD3U/QlMLkcdOU06pW1Qg5kVJnqMip+znsSqrqrLpOYGkiwxPNKuc0oSqajfjflU5VB6bVU7ZKNQ+x2YAVFVhCVVVEC548YwleKHN07svYR8eqmIdkkZUFWllKmFV5JSHuWtRSQRK1XAR/UrVAL/gZ2CfRn7vRVwVVFWx2R/wfAU/AIl5m6mThtOQ9s5R9Vu0mMeakFPCyXoe67kz+gFV1WHCEYgKy1wpt19urz80qqgAvLfc3HgMRAXbseh9wQZOTFhTZuplWVVVlVb29PQ4PZiEjIeb7Kpq0jXKTitTCzvJOWUSSdcZnquMtLInK9A5adgUZKSVPcKqzilNQmZamdwLmmfqZY2KtDJ5gEBJlMKkFRUI94X3mioqoCKtTBYWAYGyzCl1oSKtHCgsoGOm3iTS/VXl0N6lctJwlvQLcbLSSuNv26xmGmb9VaVWYXXPNBQFkv0DEH3Ccm/QURWOkWFaqU1Yk/5KatzPTUKbsOLFmDDTkI+2pP4A5NR0KytMqwrLTiu1eSyQdAuaMtNw3LRSq7BAkrihMFlVhVWgLRSkIauqsAqMFHbSZxoCWnt/WmcaAlo9dlpnGgJahTX1r6RkoP1BMOqopx+mPNyMFXbSq8LaT8LEmYYyMKJ3RYF0/H9LFphxIlNYFTamh4G0gnZjkqeGGDXyAoGmpSps3JB2WqrCRva2yLRUhWfMmDFjhiwI+Qdw4JxFRn8/7gAAAABJRU5ErkJggg==;fontSize=10;" parent="1" vertex="1">
          <mxGeometry x="885" y="550" width="90" height="80" as="geometry" />
        </mxCell>
        <mxCell id="Xi7EQyzXXoAQUirJSp25-11" value="" style="shape=image;verticalLabelPosition=bottom;labelBackgroundColor=default;verticalAlign=top;aspect=fixed;imageAspect=0;image=data:image/png,iVBORw0KGgoAAAANSUhEUgAAAFcAAABTCAYAAADqWZt6AAAAAXNSR0IArs4c6QAAAARnQU1BAACxjwv8YQUAAAAJcEhZcwAAEnQAABJ0Ad5mH3gAAAYxSURBVHhe7ZxdaBxVFMfvndlNs1IbrdXWoia7oQE1X+qbiKigD+qDKCniB4Jv+iIiyTZ5UERIUqNPBSuCL0IRU33WKlhF6pO0TTZVULuJSiUhtR9p0iabnTvOGc6smdmZ2TvpzL3X7fwgzDl3Zndn/nPvmXvnHEJSUlJSUoRBcSuNk4V9//SXx29C18VM54iJZiDdp0d9r2G6Y3ixd27sZnSloOFWGhmqbUfTBY+wABz36/a3tqFbQ9PpDjSlIVXcn/P7noTtVEfxQbvBYrp98GVeYR0qN65fnOkofoEumSkUH4DtqfbBp+wGSUgNCzP54aNEow+BvV418tmMPmvvuAogTNRuDjO/654de9i2JSC15zKTHESTbBTWNE0DTS4M02BousMJMz9CSwpSxbUeOJNoumCULLbQS63ohpI7Z9ygMfolui66/xj/FE0pSJ8tAH4x1pkFhMXfsGOCZhEikT5bCKJ0x9D9sAWRTMPotxsRytijjnjOcSqirLg0mzmGJqG6fhJNG1PTvkHTdZxqSB86M2SghXTuWUM3NujqetfdZyZ+Q1cK0nvuaqGQQzNWzKz+LJrSkC5uuVxeRjNWKqsrH6IpDeni7iWHI81pebl3/sAimtJQ9oHmhTH2CSNswlpgHMIm5ZH+QAOm8yPHNY3cg26N6vLa1v6F91fQrePH217PbduSu4yuCxXmuUqIC3gXAsY6ua/vz9HjYJfyxWcY1Q7rlFJY6mpMf7xnbvQI7Pvl9sHdRkv2DNgOKggLKCPuVL74ra7ptZcsIFCpc/gCJbQNm+owTbLQUx7d5b0xqbg+OCJpV9gOo5UetDrqgL0jBMM0vzZXKi9mtm5ZAF8VYQGlxAVK+aFXqJb5AF1uDKN6rG/uXfs9riooJ65D2AubOpYqt3YvvjePnjIoKy4AebBG6ZrNhAFReTulxU0KENBPoCijpeV8tq3r3NtL6Np4v/d/s4iIC5F5u2uu54rM27nEbeYaAgfrXPZacfwzdGtA3s6a+unoNgQWMzrV60d+lT3npJdcO5u5hsBBZN6uJm6z1xBsxG+E6YTu6vr9wFrQ6HOA/Z3n91+0Ou0T2FTD+9mauIzQN2Cr6/r3J9qLHSCqlsl+bO+Miq4/XbspVP8BNtaXvWb7ChN33u4/cZu8hoCHuPN2rm7sFwIMYs7n6HJHxbx+FZsCgVh0uY0e4hkyMhGVt6u7YD+BHWH89jmEHRMmrIwZyk+FYlsr1S+gGx8Ge7N7bvwd9PgWEUnWEMiYoYjK23GJm1QNgawZiqi8nWtIia4hkFnlyHMDIW9ndb8FatLd1gLjeWwOxBuiXI6oWOQgcrXkRUTezuVMkgH9rs49VXRjo7Jy6ZagVLdfDxI1Q/H+dtx5u7qGqPGOh6gXCTifCTufsGMa/SaQdN6O64HmRUQNQZIzFIe+2f2PoGnn7UqF4ckwYQFKyc6pwvARK3zsxKbAG1knLmPkBJouIBbBl8Bf7+z4S72nx4d6ymMvOG1La1euw0NjIakZihc4d5NVX2U57SxPQhSwQsVjkBCFvB18Hpvr8N3h7fJJ1hCoVOUYFoLq4Mjb+YYFgxlH0bQBYSEWwY9TTf8chIV2eEJbz/SvoL1UGJm/86+Jv+0PREClKkfoCMwwz6IbCBzHkxAN7FXOXUy6hkDGDEUUoRcvqoYg0nDkhOfGJg3XCcQdi7zwfP/VrpZkwH0C8JYpiRoCIK1yTBhv702rHGMkrXJMGEektMoxIdIqRwEkPUMRgbLiApudoahSOaS0uJsFBPQTKMpo4KlibMSmXjmqjEqVQ03Xc1X67yOxiys73snMy3mJPSzIrpQUWcXYiFjFVSXe+fX+JKoYGxGruKpXSorIy20kXnEVr5QUlZdziNTNefALAaIrJVXJy8X+QPMTQHS8UyUvF7u4QYiMd6r89xFh4oqMd6r89xHuocaLKvGOZ/qXdF4udnFFV0oGoUJeLnZxVapD8PZe0Xm52MUFeIZkVDZzcbLzcsIeaF5EVEomXcXYiER6rmp1CLLycomIC8iOd35EClcx5OUSE1fVOoQkK4e8JCYu4IjULHUIUUn8xJupDiEqwnqF6HinAkKHnMh4l5KSkpJyLUHIv69pYL8kzKI0AAAAAElFTkSuQmCC;fontSize=10;" parent="1" vertex="1">
          <mxGeometry x="895" y="840" width="90" height="80" as="geometry" />
        </mxCell>
        <mxCell id="Xi7EQyzXXoAQUirJSp25-12" value="" style="shape=image;verticalLabelPosition=bottom;labelBackgroundColor=default;verticalAlign=top;aspect=fixed;imageAspect=0;image=data:image/png,iVBORw0KGgoAAAANSUhEUgAAAFwAAABXCAYAAACJKCKbAAAAAXNSR0IArs4c6QAAAARnQU1BAACxjwv8YQUAAAAJcEhZcwAAEnQAABJ0Ad5mH3gAAAX1SURBVHhe7ZxLj+NEEMe77cwCO5kNz2Qjlt0DIhPPBcSFh/gCHODMgQ+BhMQBziCBuPAZQOIOEnwCFlbiABLaZFgO7PKYSQbYTSYD7EzsxuUth3jcSdpuux8Z/6RRqu2OHf+7XC73lE0qKioqKqyF4qd1TIbdQb3Zb2EzxeHQu0oJfQGbCXwSfN9o9p/BZorRfveXxsX+E9gsFAc/LcRpopHgcLh9OBnusEViAy5xnoY+o8H2XVyUwHWcS2gWjsWCh+IOuu+iGXFPaLeOzZW41D0H32GMnMNFZDzofohmKVgZUo5uPfU4u3/jV7DrzevRMYz2PN91aW4HircDAwCf9N+TS5uXb/wGdpHY6eEbzrNokdGgczeM5z/JiA2M9jrHcF3AZmIfRWLxRfOeJ5ZF7PFFI+wVidHnAFkBiMD7Gw2732E3LpAVoCkMC/wP0Jzhs+lxJBQ7WZiBxDhs+lLUN2BjXPQ/LPgIrcIRHkUQjjfqkBWIXqh85h83Wrv3YXPGom2vYnLgfUoYfQ2bEfPbmQy9P8JDfASbM5J90mdKnt8iSqa4Z1xWcEpsYDzwvkYzFK73aBAEX2KTMOZfmxdzvq8qhASHrAA+KXXejhaEQFaAZmaODnZm+a9DnTfhM96HLA6lz7NvyQbYoYNccxzn5WhFCKXuc3cGnR/ADge9Bn2jFQoROnWO9rZfYa77GdgQJ8OEIIy5zpPRypz4/vTEdZ3b4XaiGxjq+69utnc/j1YKwgsHRVBmSBHecFkHF5PnIG0UXDiG25oVmEamkTQtK1hrD4+wMCswjWyCc9CaFbDgE7TSMHYAg8378322h71ShOtyZ18iZDp1TDyFZUJUkeFNFGkP1830n8nDaBLmT2/EgoGYy/6gT9Q3YH2wAUbYG2iWhvWCP3jl1u2ATG+CvdX+sTMZeG/Fgi4D+sCdc/1iz8NFZKvZKz1bsj6kxMj+trJDSYz1Hh4jI9h5/0/h+SBZsnn4oPsxoc7r2EwCWUGrx/0/42jP+911aRubCSAraLR7NWxKMx5uHznEPY/Npfi+f9Jo784m0lSQ2St4p66od8l8NyuHQ+8rSuiL2EzCgl691d/BllIyH+ydm5cfqj1Q/wtsyArgQgX2qhgaCzvZ93ph8t4FG7ICFRcqk8jlXeNh52eH1K6AiJAVEErfx1VLYSx4b6vVfycenLK822RyH7AtWYFp5M5SZARTmRWYhrSXmZ4VmEZhp3XerMDWGsG8aI+jcC3ghSed1QBlYsSdpo01gnnROvom1AiqDml6PdyIGkG1Zc9aBZ8vi3BpLQwHcqUXgOvWNuZFFCm9UBnStMdwndUAOgqcjLiC66oG0FHgpN3DIzRVA+gIaWYIzkFVNYDqkGZGSOGEgyJYFVJiVIY0Yz1cKQpDWkJw055y0ElZIS3h8iAc7zQoe14D1qFZKIv2dxqV+0+FlLM0r6GDmeBan3KwsEYwLzOX1/2UA++0BlHRXIrMdwGVISWxoKwdxywTQWc1gErBEzFc57yG1hpBhSEtNQK6n3KQ9TbR/Zym6N+86LvpGx9N8xoxeQUDZKoBVJU9pwXnoGpeIwYOICD+39hcCVQDwHec9uAIF2VGVUhLeZPITvKQ13NV1wjKHv+q4zRecB3k1QBC2qqzTCiknDXKDGmV4Au40NzdBBHDC+BVXJQGQlrYJ0s1WRVSFJMWXONTDmeh7I3rdTwvF/VQ2e/y+q5T2Rs3hut89nF+ejjM6ylsd52mhxeOuOqnHHhlb/E28nJ6O2W9Gi8LS8Uo6oBFMPUlOEWzUpC8oovcBJxGdoBXkcUBymJlHg4/UtW8xll4CU6mEVcxr2Hjq/GyYMSPmIcnVsDYNxdavVn+Pd7vfhHPWML08FZrdzZDCdPDvBlLUwS34tZe9fRwmVjh4UVQefgZpRJcMZXgiqkEV4x5F00LXoIjg3GCAzI3Libf9ABGCr7OL8ExUnBgXV+CY6zggOxNkGliA0ZnKZuPXc99oTP1JThGe3jMOr0ExwrBY1SXvVVUVFRUVFRog5D/AHUKz0cV8SQ/AAAAAElFTkSuQmCC;fontSize=10;" parent="1" vertex="1">
          <mxGeometry x="885" y="400" width="90" height="90" as="geometry" />
        </mxCell>
        <mxCell id="Xi7EQyzXXoAQUirJSp25-13" value="" style="shape=image;verticalLabelPosition=bottom;labelBackgroundColor=default;verticalAlign=top;aspect=fixed;imageAspect=0;image=data:image/png,iVBORw0KGgoAAAANSUhEUgAAAFkAAABICAYAAACdgVmRAAAAAXNSR0IArs4c6QAAAARnQU1BAACxjwv8YQUAAAAJcEhZcwAAEnQAABJ0Ad5mH3gAAAYzSURBVHhe7ZvPbxtFFMdnd53EMYHEVlHVFkpU4iRCFUKCfwBx4dYTPfSMRJUfpKq4IBUCEr2hQklqceCIhAQXxIkLB64IUQ4IxThCVEBR1MhJmshxYs8O+9w3ZtfeH+P9MTsb/JESv7c73t357tv54TdLhgwZMkQMDT+9Wf9lgixdPEDPlcKtX8+M5PV3dWq8ajI2QnTte0aOVh8uXdzEIu7c/m2MrMweoXdiCRS5VKmx+kLZtRzsQ9MXv+977RMiIwGg46c/q8xRbmK9dklUYADKPrFe+xjdR7zGDLRCU9LH9tHsA84Jf/n8yH2DGFc1g0wbOe2coZMrOX2sxvdj8T5KI1oTzcj4i/zhxin4KJ3epB3fYrJSOxjVydfoCpPTyYq9UqWXN9sdA88RGkUDwI7vo1pYr76Q1/W76CZCs9l6sXH9uZ/QFce6OaWC8QBM3uRAAFjqPAZ2GPhx+E2qN+iT5K35bbCjENgeukUFo5Qx3XhH18gHuMkXRknF+veGljP6IiRsm6x0APQQ2CYfjo6eQ7OLZhja7mL5pohAUGZnubzoJvBhiz2N5sA0luZ+RtMBBIDJyA10A4EAYG3abQ7txCEwECzy68/cR9PB1FptAz5BRDex6+SwxLfzsr0crsz+hWYoVA2AXgJF9kI3yBya7iw8v4NWcNmQqBwAdkKLDBQrG7R4p9Z0a7dhW7FSpcVKrYWbpKFCANgJfKQANxHjoMHI+eZi+U90Q+F1bYxQkzCjpWlkDDc5YMQ0LYlNS4AcbnIg0tyIEimSoxJVYD80YuheAgMa0a3BkbvAQP5OLf02+aQTZwDEIrJpsh/q5tHj9a3PjfrWjFFvsUmTsR9x9/8esXbnS2aUtnEabKO+MGPdJC2wvXZrN63e8NL+QvkbdEMT1F9AAOyS41fIg68ahLxnfaE2MZUj31ltyUtYxJU422ThA/VWpnWsze5fm6mRVZYrnqo2rfGpY6xJKW3uLc+Pg1349I8zebPlGG7FVgmFA4AzUEX5BVmzKrqzPJ8LiiIOCFpcq7Y1wxowod/ZERPKBgAy8MFEhfUi7gpwVA0AINQBp9aqy7qhf4KuEJSxL/YWZ6+gmwiqBkCkgw4SLWgmjooBEEvlJz+6O6WPTdwkVLtsXbJh6tq3Gsu9vbt04R4WkY5KASAtwhxIzM2pEACpiAxR5hVBUSPQ79hpkd60OgO5ubiQL3IWkrMxI/2xUiY3J7FfkB7JquTmZK7ZSKVNViY3J6lfSK0XdquMSUl1d7k8j25fGcjN8dQR5ObcUkdCIwvJazZSiWQvZOXmCnntKTS7TUMUgQF+HHRJQTfPo6lWJAOycnNu509q0Y5SkQzIys3J7BeUEzkqork5mWs2TpzIUUmiX3DeKYkDdK82mSMjNyerX3A4cFKviwwSheP3fcc+BXJzonUaFNo0n927Pvc7ui7Nhawfbi5rfbM1yM11BIbc3NpGG45l/5tc2zjEoqSpj5xFs0ucyc8o2AUG/hM0hR9u7JENuTlIfnYEPb3Z6k1+AtamPBe8cXX6H0at6Qvi9QSpQPfC0vzhxn5DwhBW4KDzxtUvOBy3kyY1QO8lldycpH7BUenxz+6dHT8+/hvdLlycoDvvVw4G6CJrfoPOwQkbvb30ni+JNRt9G9wqKe2HGxsyc3O8Pkmt2RASGbAfoE9kn32cQUWWjaiwXvjVT1hklRZVJ0VS/YKwyFHpHaALkdJrvaIaiAaONJHDRDJci9f3ogrhd2xOXP2C+iJvzRjkfc1qih4BM9BBJ0htk9x+uFS+hm5nBgoTpDDXFIb+aXUA0lbVn6ClA/13UpFF1Vl6rTcI18elV6i0FlW73TBZM9A48TwJr2BSA3QRVJiBxoGvAKLCehFHpLhdQxoz0Cj4dnxwISY130RXGBigJ1mJwLRPTEsH4kJYCNGojltcr/NmaQYqPISDi4I/enRQtGpdYVTbZtTcgag1TWOa78fiiRN16cDkreoFNBNHmihhidoveKFkJA8JT+ZFzsJ73co3F1l4rTcI9UW26BVKtdd6g8iEyAAXOs0ZaFgyIzIQdaSRhsBApjo+EEnFGWgQmYpkO4M0F2imRmZF5qj4XveQIUOGDFEVQv4FDBWFIKFjvqMAAAAASUVORK5CYII=;fontSize=10;" parent="1" vertex="1">
          <mxGeometry x="885" y="260" width="100" height="80" as="geometry" />
        </mxCell>
        <mxCell id="Xi7EQyzXXoAQUirJSp25-15" value="" style="group;" parent="1" vertex="1" connectable="0">
          <mxGeometry x="75" y="275.07" width="255" height="299.5" as="geometry" />
        </mxCell>
        <mxCell id="Xi7EQyzXXoAQUirJSp25-64" value="&lt;font style=&quot;font-size: 35px;&quot; face=&quot;Times New Roman&quot;&gt;Known Malware&lt;/font&gt;" style="text;html=1;align=center;verticalAlign=middle;resizable=0;points=[];autosize=1;strokeColor=none;fillColor=none;" parent="Xi7EQyzXXoAQUirJSp25-15" vertex="1">
          <mxGeometry x="-45" y="234.5" width="260" height="60" as="geometry" />
        </mxCell>
        <mxCell id="Xi7EQyzXXoAQUirJSp25-4" value="" style="shape=image;verticalLabelPosition=bottom;labelBackgroundColor=default;verticalAlign=top;aspect=fixed;imageAspect=0;image=data:image/png,iVBORw0KGgoAAAANSUhEUgAAAMoAAADBCAYAAACOoi9rAAAAAXNSR0IArs4c6QAAAARnQU1BAACxjwv8YQUAAAAJcEhZcwAAEnQAABJ0Ad5mH3gAAC7rSURBVHhe7Z1rbBxXlt/vrap+8NlsasgWbQ/J5g5b5NiWZ5FYEyDJIJtgs8AGyGNX+pAEsLGwbO+Y4x1vjDFJOR8yQGyJMxkMdmzZmyjAIIvd5EM02XzKWFggdlYTZL02krEtiS8NH/aMKTYtvsRHs1lVN/cUq5rV1beqb3VXVRfJ+gEN1kut7ur7r3vuPeeegyIiIiIiIiIiIiIiIkIE1v9GcJD+45nRtd/PTei7TBI/nOxPxvEdEYtN+iENoqLVtW8NntJ3I44YkVBc0PnWLFl9YZB5z9JvzRboiYS+64iioGc3Xhz8j/puidQbUxeRnLi+8YfZdf1QREgQ9L8RnLS9fXtQ39Rouzr9FAiIVySAKKJr8G/03RKiKF4jcfmX+m5EiIiEwsvlj9PwJ0biM9o+JX119m4MC/9J33WNWSxtb05/Hf5KGLVoB1zSU8yN6pu2pEhff2Z3aOeh4jAxvzKF3H39kggbIqFw0t4e/4q+WQJj9Gv6Zs1Qc2sX/mJM3tUO1AhG4hV9swIqjgIIomW/eV4UcdnYCRAFsdMQTfdu7qJ+uIzuvdxFKrQOfffEEY1ROOm4OnVWwOJH+q6n0IF+EQsoru8iu3GQE9DIi+pe7ovk3Kx+CJ3eG3xKwFJNPd7n8cmyzwDvT1R5eyk526ofOlFEPQon6yNDH+ubFagEXdc3uTGLwSwSQohrMyi13quZhXEhUTILe4pn7tYqEgCEoW+iTHFYMwuxINVkFh4HIqG4QFbJuL5ZxvrI4AXeXkDBUhaubb86u6UfKmNtJPclfZMbqVmsNAuRULdZ2L07pJmFRKnPLDwORKaXS9qvztyUMP47+q4GbUgLay/msvpu2SDdgNot762NnPkNfZd5TS0mF9Ct5s5Ksj9moaIoRVEUSz2e1SQ7KUQ9ikusIgGwiPv1TQ1rg1cQ2iwTyRtTTD9J6o27z+mbrsgLM7ZmoUyIa7PQLAazSGRVPrGzY5FQPMLoIdp/NH3O2luI9HDp/NvT52jrS2knLIgi+ff6pmsIUphmYT4xdYG3F1Biahau7SnkmGZhPjnr2iw8LpzIbrQeWCaTl9RqfgGZwpmboiCUm4UILSzFJ0tmoXmQbkAIeW8pMVXq8VjXnFSTyyDqUY4RVpEAtHWXmYXWBk/HV5tmkfQUhphmYXdxqCaz8LgQCeUEYPQQncXBc9bego6v2o1jGXoeC5hpFkoI12wWHgcioZwQQAxJJL2v71YA50WH8yedSCghQlHRiTZvwkw0mHdJ+urddzEmf0/frUBVyEvrL+b+SN895M1brWkirWNRFPUjFdQzkAesZpXXnOQBfcO/OES9LsVnHBdDQdRrstB0xxrQp6jK6nJyJvDFUKyZr32Cnn4wMvgn+q4jdjNnkVDCS8O/OPy4dj8ARL1ScXCt85AV5dl800zFYiiIet2L713fwIueLYZKX535AGP8N/VdpCByfuOF3E9gO/3W9IcYCX9DO2FhdXu7FX3na9uwbRXL6vJXYui7WNZ3a8JPociEPJdPTF3Td08coRDKUYx6NTd06AlSV2eeETGuECoLo+cw3kMl5P31kdzfgu166NkbomYhtjULZVV9KZ+crjALu0hXq1Q4Rc1CbGsWnuTeBGjol4eo15bmllXYNn4IiHqtN6DPeC+IeqW//F+Zj3nJYUNXbwhY+C3tICeEoBWMUZeClN2NF4aa9cN1w+pVVCI/fS8xy2UW2vVKJ10oDZ31OupRr4qi7sBftyIBQCTw10uRAASTD/VNDRXvnzdE0lMc+hCEwHohNaOF0LME8XlsMqZvnlgaKhRRiu3pm9qTTPvBPEAScTKzm9ujfytW83nJxotnWlSM/rW+65p6B+8slmJTT+qbGvdid3+SkYefgXuLEWaOnYCH5M4t4/6bxaKq6vv06VXX2Ok40PDu1E4cEPUqYXxe3+UCfmDW+0HUq98Bfam3pndEJHAJUybKyObI0Fv6ri8Y90Eh5AYdO7kzC1WyggXcpShkd7lpytMe76jScKH0FHNjGImX9d0SxlPNTkhmIOp1GU8vQNQrFsSKVXhB2teJH01lkxK6LaLyvF6yLH+2+QfDvfqu73Tv5rYlUayrkQd538JOKG5EFPXqD6eLZ14VkPBv9V1XeH3ftlZyo61dzv6y3aW+/qLYfEdEFpOZKKutmemGJg8MRSOy6zWsP5b5Oi3qtWmqFMAHUa+sgD4Zkefz8an/oO+eSLp3h3Z4x2uqoozca5rx3Czcyn+VtHbfYba3jeXhAjUP+fKiqeqzraenKqbht/JDF/dju9fTae/8ZWZCLRQAxAJRr3YBfXAeol6dAvpOcq9iJrPbS3vo5tvWCAeZqJ/lE9O+moUgFClRyCVTh/6yreXBpxCO1eQvs4oO3p8gebute8aXLDGhF4oXREJpLOuLvWmpqVXzlxkN/EF+qG5/mfFe20vDXyci1vxldr1WvUTRwxG+E4slffGXbeaHNX+ZLCDfs8REQonwHVVAJX8ZmEjw0nfrQkA4ubF8Zo+Ob7jGX/VwYk2vdP/o6NrChHMJh8y3+5uam+9YfwhC1NXV+StRCQcX2ImDIPU67V1c+cvAvGK+HyH3WzOTvvjLjn2PAlGv+mYZgmCfq7ezd7xwauASaW1pmWc9rTAWOuE8vFLZUWau3nTv6MVU6tsnNlevFVWRmVli2rqnLvCOK8SYkoVrH6ycYWaJ8UskQCiEAv4QfZMJRL1Cr2B97ce+aCMKUfTLmDiFhrc9/J2yEg4d/aNPQePHEudUJUXC4jX4N/puCUESr6F0S1TCQae9Z+YK7T1+pu+WeLA8PA9/QQC2gqHtA841pacXYBeTSqcyr9hqJRRCMTsNzUDUKwiCFRoOrOCVraWmKQmu0Q9xker95kGu3kTssIRD/9hdURBrztVrFkvbw2MHJRyE2ko4HFeoiVWZJQaXJw+0Nnjwl9GeotQ+tu4NM/0km/f8zRITGtMryKhXojZXzMIIQv2zMB3ZUW0WRohj7lkY8Fjrm7aAx3ojP7xjDIRLr+UzxyJzozHeWP/iq+eMbQPIElM6vzR4DtlkiaG/n69ZYnztrtyiNXwdaPgQ9SqqiGsxlCEU4z0g6vVecpq5GKojO36Wjj38KeGgKEVsSkN6f+51x3sMjcDObDgKHms3WEXgNX6aX6EazJt7hcze0Du8IgFAID2FoTxsQ9SrnUiA9fnLtrl6FUVxnavXLAazSAhBXE/8wsZA2VgJPNbQqLhFAgjCNXZDFK5J+4lorFQnoZv1khVFWwxFG4n7xVAC1hZD8YSGq4pNCYfFiQvVegED+lmzcG0qe4k5C7M6/7rjLAx4rOGvvJcsjZXAY11rWAdgFgt4rOEvRie3rolXhE4o+aaZFhWpNS+G4h3Yry1evkIHihWzMJ3ZcW0WBgRgJxiVkPfg3MbihDYLw6q7yCO24+CxPimETijAvfj0a9DgZWpC6YeqAlGvvCIxoAPFqrMw1gZPe5HNtfnLpVmYzoFLTNs/3T9WdRbmOHisQ4OqnoxZLxZ5akJB41eU7QEYd+iHS0DUK5yHl5eh4cZUb/sjr5yz+kgkUWw3n6cqqnkWpu20fV0T8Fjrm9yYB7MiPhwrgcda32oouIq/TFGVl+A7WF/bZKWN/v6O/rLW0/6mUnL1BD5usByFXsJjfm0u5cYEUapY4QkNBP7y9DLgsQZnHHisqznjbg2Mjj425xy6M9n37X5ZbL5De9eyHkkh6uoTc/WF7rC+j0L2n05l+LLE2N0P83f0A8c3P+7xUGEQCkAH8DetzjhCyEJb5nCFJ7OBgMfa7IxjXGNtQLd+7RJ57Bfsz/VR33hB5IxKIKry7OPzExWzkp9kRy/KauH6ry/+kY1jcPgDQThMHqgS5Xx7ZlpLHri9MvwhIewEGM3K/VahZ1lLHmj9ni1dd2LY5wQYjqZXFA8VDEF7rG9bQnc+6R99CgTEKxIAC+I1+Df6bgk4HhPsQ3faT0+WZYkBkezmh5+Bxm8nEmBHPLVlCMR8LwhR3vdbJEDVMUoUD9U4jIbhlcf6ph66Q5KHoTu3+sfuYrH20B2zWH6uh+7QVuU4HW1u6Jv5oXcUxJdhE4DvvJUf1vxlKiK7bRl7f5mX2AolioeqD1UlnszCQMOQVGS7zFk7L8a46pq0MEJ3kFj/dPRHAwehO2KCP3RHRfJB8kDkPnkgfUxo/rL27snAUinZCiVM8VB+QRuz4ywMUclLMM6oeD1Yb6N2guMszNrC5dAltG6OxUvT0dATsEynWhCxmPyof3TPOvh3or17hj4gSc3+Mr8H71ZshSKYbqox1tB36wJuamff6J4Ugjl+2piZUcvKvvI0CGJ14TIzahmtvLW1On9Zgmv0I0eCIYfQHTqodj0dbZ4UMJfZVlS+0J3W7snXoMGDCaUfqopK5JGgRQI4/od24oB4KHpjXK1Kg0bFej+Ih6oW6uEn6b6xDwRRKM3CyLJyfuPTiYMSDv2XPhQExBxg3t/ea0XLP9BmYazf6/5cLIbQd7kHmNbxh9eYG9bHfeNjgoQrpqONRs/Ty4iykh1enFi4NXBpi7agCtPZblatGmtLvVlBbLltzeulqMpnqdP+ZomphuMXSsNNFStvqvEk5ellIB4KQj0gHqrWUA+/MX8P+Dyp3vFnJIlvgGm9FwqUcJi/7GqA6atQVPU5qzOOiuUmFUvFdPTjc5dL09FMwVBT9TFTVALrmlpFEnaqfqlOelOtoR5wU6npUbqpLMFAPJQ51IN1TRhEYmB8PkLUG9hldnpVllcESepSCNpdn3/d9QBze3n4XeJQ1wQ81vSJWmEGLi93tSbVL62LDnVNWGaKXa9hbeTm66gVsfnEwkRpZo2eg+noipk2FanPn/3FlWOXcLDq9HCj46GCQiEHUctuRQKASOBvLSIBWkz+EDPgsYaGzhIJkMmsbKV6JiWvbHZDGLceeeWcVUzU1G43jv2/7Cvn6B/2dDTydwFVo6h6g1k9gQEIBOKdYnF2lsZq54Ew9SodfWOvimJtuXrr/R5BeqytIvCa42h+1SUULwiTUAw6spd2RIy4ZuX2FXVkc/GKJwGZ5oYOvQR4rHmdcUavYrwHeKztnHGRUNwTCcWBROblbFNz/HZFHJssf7b66fd8mYUxGjq19W+4d8aRFfqTdsF0q5MzLhKKeyKhhIzNfG5bQFJdHudqY5ZIKO6pOpgPEggB1zdtgRDwTwbGd+DHNr8+Ghg7FhlJjprHugLFm9CdsNHQHgXiocyhHtDg7Z5GQYSAh43N/PCOYC2qYwN4rNszfIvXbmXH30WCw3S0Ql56ghGVcKvrhVbSllrH2H46+jj2JkDVL5XuH39XcLipEA/FDPWgN7Wz1fmmWs0uEAou7Oce/dX3SzU0IAS81uhW648G70+N/+3H5l/3pYaGX/jhsdbuhQVSVJ5+/LMJrgVUrH8PnFihAKxeBeKh1jlvql2vZBYKhICnY2mthoZxsyEEvN7oVuO9IARcSgpaDY3j+mO64Vbf2AdIOgzdIfvK+cf10B0qAkhGyJyOlrf2Wr+mh+5YxfLoL2Ix7CJ0pxZ6irnRpbhzibsU6etPFpruWAsm0QfL6nJypqbFhFxjFFVRy7I4QjyUIRKIhwIhsF4o87IWssIasB/EQx0SphDwk8Bji1fKFlCBSD7Jjj+jN37bBVRSa2LLEIj5gaMS8r7fIgEwsl9MmNkdKkB+t5b95nmrSABREDvhPLy6d3PMxYTde7mLVGgViwm5n6xaw9eBhu91PNRUdvysLPiTvVFRlKI5ujXqUQ4p9QqqegMJ7qajiSyvYIhKIGj3sbnaohLcAo28qO7lvkgelrg7vTf4lIClmsxza+YeeH+iyttLydky85x71svcK3Rmx97hFQkAAkn3vnKQxVGLh6oMGgxbCPiJQQ/dcSsSQBMJJSiRpNYPEgbGhURpMWFP8czdWkUCgDD0TZQp6gkDhcqEga6mh/2Oh1JldvbGs3MTF3h7AQgBh2u1EHAGTzQwpD+MPDY30YLV2hMOBtk7S82iLwkDu3eHNPOcKMTWPHf9Jf2Oh2p0CHj6j2dG134/55x55oeT/ck4viNisdxjr6LVtW8NHtlKXPThskNbBNd0NFHVkcfnvQnd4aVbzZ2VZDEQ89xqktX8NPArHoopAoq1kZuv8zIEvPOtWbL6wiDzvqTfmi3QE1y+HEVBz268OFhhnqbemLqI5MT1jT/McvlyGiHcn2dezoot8dsVS3tl+bPHFv0J3eHFbCqZkQm5LmHsajEhiIH1frIq388nZ8ssj5qFYuB1PJSdUADNpHrklXMowY5GhvMQAh4T7KOVq/UqIJR9XMw9+OajpcFi29Xpp2JYqMkOtooO3l8maHtzZJDLlxM24TaanmJuDCOxYjGh0QPYCcmMElOzy3h6oaeQ28JCZcJAa28CMH+ARuIkFC9wFMrlj9OdqSbNl2M0zvTV2bsYo7rsYOO92t6c/npMOPDl2DV+K2ETbhjIFM7cFAVLwkCEFpbihwkDWYKhJvx75upurGtYIgFCFevVaNrb45WDxTpFAtCntjZYxNh+sMiEChf+xEj8MGUUFW6tIgFAGPqmJlz4y1qiHWasIgFo6y5bTGht8JAw0CySnsIQswftLrJL3EVCMUFvRinzDDQoc6OqBzpITKbfnN2TLGOIaoROuCHH6CE6i4PnrL0FJAw0jmXoeWyTMFBCmLlCMxKKifWRIQdfDnLtyzGbOVhApRkVagJw+XLCJtyjAIghiezHqHBedDhvx8kSCkcIuKzaVOIaGbzAO65QsJSFa9uvzjJ9OWsjOS5fTtiEe5Lh+uGDJAwh4O1XZ25K2OLLUcjC2ou50mCR9XQnRH1vbeTMYVINxjW8YjNof3NmTBIqU0YZ78PTy4BwN76ZXQDhssYjbj9To7GaVV5zJGa9ANbMV5Ah4HaNz9qgzNcpCG1uvDBYsns735hapzZOhR2sKPj5jRe/4iqdT6OFGzYnbCiFAnXQW7ucw5qhDnpRbL5jXS9Bf83V1sy065vU6BBwp6c0NKz2H02fkySBaedq59+m5wn7POD2Cd5o4cL72n3mRvhy/BSKTMhz+URl9a7qQsk3pg66uaFDTwAh4FjgC8Q0eg7jPSAE/Owcf/ZGJ6F4gVdCATRh+ixc+P/D5Mvp2Rt6l5rYtua5rKov5ZOVudC6SFerVDi1jh0SBtr5Uar+YCAUKVHIJVOHYc1QB73WEs9W0cH7EyRvt3XPVNykklgCDgE/SkLxAsfPE0InLMDqVVQiP30vwVfizq5Xqsnh2PA66EcoBPy4ElZfDsGkbDGhivfPGyLpKQ59CEJgvZCa0doaSxCfxybLFhOacRRKo+ugH6UQ8ONKWH05S7GpshWa92J3f5KRh58BMWBkX+LuIblzSxMMxSwWVVXfp43bdgzrKJQw1EF/dP7Ka1qDpyaUfqgqEAIeVpEoKjpS6XzC7MsxN/TM3tA7ooq4xrAAiKWnMHSwmFAhu/eSziXuqjYmO3FAHXTau7gKa4bxCfP96E1qzUxyOeGCCAFPX71LB4vEdrCoKuSl9RdzlZln3rzVmiYSHSyKtoNFN3a4gZ9jFBDuxrcGHauDhdmX072b25ZEsS7z2m5cYqbqBUHXQQ8LrB9/n6CnH4wMcg0W7RpPLQ0iDMINkxPWyunimVcFVNtiQh6RAFwXBVkHPSykr858QHutki9HQeT8xgu5g0pcb01/SO+HZgf/y7/+GP3ZubOwqbG6vd2KvvM1zZdjNIqejQfoT3785yihlJd9VIi6+sQcXy3+RguX99+br/PTCcuie3doR2JkX2GhKsrIvSa+hIEA102y6zVYU736JjxtNtt6Jks3RauDzojYpIOo59tPT4Wy8Iz5R4cGkbo68wwdV5XZwX/5gx+jb7z8e/reIXC9l9kt//4rI3/BI1wrLOEarC5/JYa+i4+kE9aJzG4vfYA337amLJKJ+lk+UVvCwLqEAoBYoA66XYln7fzS4DmnEs9h7VUAo4GoRL0hMJJqgFD+xe/9Dvpl5+Ez4Lduz6JX3/mZvucO6ySE5kvSs1vyCNcOoyEefh/y/vpI7sg6YYOm7uhhEJFXddDDiKKoB/XQGSJpLRS0v//5x/9N+wv8l2v/tWaRAOaIBMhuqW3otfjNjanj6vQ7vCIBoKGnr84ezPIgZdeNSCI8EMpxZ+PFMy0qRkxfzsNrm/rWIQ9vMiPrXeGU3dJJuNXAGGlO2I0XhiInrEsioXCw/s3B1+BpriC1zJejSJK+dWCCwcsLRCwmP+of3auYAqc4CZeHsJs4YSUSigs2XjjTDA1tW1YGwHy529Wpn6nEz+yWdsJ1QibKSFhFchScsFw3zmkwXzeMOujVaFRGcxYfQy1+qdIZZzR685jDDshuObw4saBlt2Q446pFGSR+NJVNSui2iMrDQWRZ/mzzD4aPpRM2aLg+YNB10KsB4Qd2jiLIaE7/P64pWVlRns03zVQMiCGj+V587/oGLg/9t6PR2S2DgjXz1SgnbNBwf0BWrwJ10FMZvrBmu16pVqE0IqO5HXa9BnOqV8fL7JZBweuEteKVL6eRcDfSIOugOwEZzVuaW7T1EUYDh4zm9EeqK6rZeC/IaE67P219BG94g51QABCL19kt0/2jo2sLE85LczPf7m9qbr5jDTylT4DV1Xm+aAAW5oYOPUGQvpxGwtUQDMwNHXoCv+qgO3GqmH0ygZJ/DdtGQzbCputBVkgh3zTVZA6D8EIoXmAVCpTRsEt43tk7XsCc0QB0gP/sBiMaIN07elHdKFzf2GDXujxs6GwnrBOEoBWYpobJEKdp6rCt03c162U2kzbzQ+/wigQAgWzlhzWHF9RBr0UkgCjFSqH/IBAvRAJQcSQzu7k93lihRtP28HcG9U2Njv7Rp0BAvCIBJCxeMxeIMhAk8RpKt/xS360gCF8OVrFtZS1Ypw9ibUlI81aRAFhAnXAeXqk3ZpmVtWCdfuqH8xWVtexwPT2sIvngJiH3N4l+Be0mtXdP1uzwygsztusjIKO5vsmNudcwT8lCRnN9M1Sker95UEwnETtMs9o/dlcUaisIC5jF0qZHA0h6NACLoHw5bW/fLnsYwDp9aPz0H3M/DEQRXTN6QDP0t75G4rLtw8CKa6GEoQ46QQozSV0+MXWB11yCjOZwLWQ01w+VYU37HxYIo9alINS/6rQjexANIMT5al366ssJYc7lmhyOrd2Tr0GDBxNKP1QVqIPuhUiApfjMFUVVKwKqeorD8/AXBGAnGELIe3AO0v7DPm/a/4ZhyW4pxOIl0xN6ApbpVAsQDdDZN7oncaw6NWN1wuqHS4AvB87Da3NkiCusPYzr9D1pEH7UQa+G3djE2sjN12kZzZumSlOwkNGclaxZRuT5fJw/9D/o7JZ24lAU5To1KVytOoVJAdb70UH3/dUGlfHruDp1VsD+VNaiA/2ieQkyVw9HCc+T0yVOg3gQC2Q0t0vWDOcho7lTsma3vQpr5suv7JZpiAYQK6MBrNWXnZAVJbuxOLGQyl5iLs3lKSPoJ6xxBQDr9AWMXD0MQAys94N1+rx5oI+lULzAtVACzm7Z2Td+E4uV0QCr84fRACzBqNT0XDNFA7CuYYnk1sDo6GNzzr6byb5v98ti8x1rMKeblZwGYVunHwnFBrdCAcwNHXoCP7Nb2vUa1kZuvo72Ipu0FymZmp0Dl9bpxZXRAKr6/NpCeTQAfC5W7wZ4uZLz1xcPfTdhWqcfRQ97iLkh3cqOvcMrEgAa4id9B7X4ITWTmxSwZgxhtD/yyjmrmCRRbDefZ4kEEASBWUzntsV380n/6FPwuXlFAmBBvGZ+oBjA8ZhQ7ruxigSgvWhZZS1rg4d1+mUigXX6DFJv3HUVsVwmFPCG6pu2gDc0dXVqB1RqfqXfnI1qbAAhyG4JYojF7cdf1c5buan7bkjy0Hdzq3/sLhZr992YxWJdyVkNo4eAdfrGtoFID5fOvz19jpXMAhBFwnwY2FEmlLB5QxsFZDTXN11zHLNbtjB8N0is33fjtJKzGtDO7JJZANp5h2QWbqkwvcLkDXUC/CH6JhPIaA7jDOtrP/ZFG7Vzy/MGWWCl/XfDcctu2Wzy3UBPwDKdagF8N3YrOcPGoVCOWAVac4VXM5DRHATBSvsPrOCVraWmKQmu0Q/5BphQ0Pjlrb0BKuxK0UB2S3oeXo/PX+HOMRU0Q/OXHdKq+reSM0yUhHIUK9AGndG8Vr62/IP5x+cua6Ipe3mUAtZrVLXS9FRldm3Ls3MTF8wN3wlYyQnXais5GTzRIAcnD6UvGEZvKA9aw9eBhg8ZzXmTNRtCMd4DMppXS9YcFtL94+8KDtEARCUvrTKiAVDXC62drc7RAHbOxqBXcrLMd6/gyblspuzD2X2wRnlDeTEaukLIDRFjd+sjVLKCBdwFGc2Xm6aOVBof6/QvoOwrT69zRgOw/j1gJxS7sYm1kZuvq2clZ5jW6ZddfFQr0AaV0TxspPvGPhDEw2gAWVbOb+jRAOn+Sx8KAjsa4P72XivSowGsYrk/F6OmJzsawE4ogGZSebySE2C1uUas06+4OMxZy53wKqN5I5fZ1oK5oUNPkOodf0aS+BydRs9hvAftkd9fn7d3dDoJxQtYQgnLOv2KD8arQPN1QWctd6LejObQaOxMjyCW2daC0dCpUG9gl6sOVVleESSpSyFod33e2dHZCKEA5rYG7bAR6/Qr/Ch2GP9RkN7QWsjTcQb0EIqyPQDjDv1wCchoDufhZZf2v5HLbGtB0aMB3IoEAJHA32oiaSTmh3Sjci5zCwWA/zRIb2g9LDd9Og+Dc0MUxssp7X/Qy2yhhj/8dQJq+G/kh3cOcg6YXstnSj6H9fmJFkWpPRrArgcNE43OuexKKMedwJfZEsk2ZAhq+IMgFLFl3rogTgOLnSXR3Bu6uL545TVo8GBC6Vegf/5PFlB7W1Hfq2RfUUdCIxLLSk4rjc65XPGPrWaV19T7gf2kIzt+lnbr/viSFKWITV5oaKDQyP2q4Z/IvJy9/8lP53aobIZ/45/qR+nngKW5n9bm6Ax6Jacdqbemd0QkcI1DYZ0+7xJkJyKhWGCNKwCvl9nOvfeng1JTq5bIz2jgUMO/3kR+xntBDX8iYi2Rn1e5CgDWgN6vlZzVCCLnskHFh/NTKG69oUDQK+uCWma7/XnuSTrg0xL5GQ0Zehj4Ww8qIoX27skmarrtGNPXngol4JWcYaHiBoYtazncVLunjV8r64JYZvvgXu4sFiRfzDyFKEURH5p5XgoFMDd0+G38XMkZFpg3kNWrNCprOdxQXNjPPfqr75fseFhZV+uiIavotB9Mr5GoH7LtNYxGbmC+rpZltnY9SKNq+LuhJBZVveF2kRodJ61oi9QI2rUuUoOZwNYu55IeMBNYpBZExSQHUVZbM9O+OHyZs1706VkWlQveUEMk4A0FIbBe6Ps/18wMliA0b6hLwrayzhCGV8tsVUVmRuS2dU9d4O0FoIY/XAs1/PVDZfghEg2/VnJ6OBOoHy1jKz90cW2tz/XiQaZQ1kZyT+qbGhAyAN5QEINdyADQ2dKypQmGYhYLdK+1pPYP48o6EINXy2zbe2au0N6jIpHfg+WDRH4gAFvBQA1/eq4prSfyI5WJ/HjFVgt+ruQsbAyUOXxhJhAaPx1zcTt8qYCvMXtYJFyT9hOuHb6ON9Jo9H5mLXdiKjt+Vhb8ma5VFGrHm6ZrzT+ctbfwGrMJx/4xKxu5+bqw1fC/NXBph7akyic8A1jJabdIbX2xNx3WmUBHh2OjvaEneWWdIQyo4W8VExZxe+n80uA5lkgAu2wqXuPVSs5YLFm5eLBOkQCb+WHtM8kCqnnxYFVVdbw9+6pAUE1RuV74TBpRIzEMPYpX+Gl+eU2YZwKrhrA0ugLt2cXLV1SZVNjxnwyMa3a88aTSDlqBlXX0HIhE2+cQid+wltlGHNB22r6kB8wE6pvcmMVgFgnMBOpb3LhuJEF6Qw3seg1rIzdfV9fKugCX2YapR+nsG1+hZl3ZLBkdD+0RUflna3Pf+6l+iEk6O3pxjeGncsvmUm5MEKUKC8L4Hjz3C2YCYZIDZgK9muRw/Q8agZN5BWLxY2Udy/zyY5ltEEJJ9Y6lMSL/aP3TiT/VD5dI947/bWraVvTYdlg/vwF8X7tzbqED+Jt0bFLh8G3LTJYcvsz7BjOBmcmSw5d1TS0iATz5Yn7DMw6pB5ZQglpm66tQ9Br+qb7RB5Iotlobcq1jMVVVr64tXPmWvos6HnnlcTEufeyVUOzuibWRm6/zeyYwCrO3YW3xSrkviYoEltlC47ITCXCqJbFlNEBzw4Fltqy16LhKIj+o4Q8NxPraJittSpVEfiAS+Asigb/tXx7/TfgL1CoSQBCEEWqmleL3QSTw11jP4xeGMBoxExgJxQFzQ+/Mjr3DuxYdgIaY7j1Iun2wzJYdz9RiMhXMQA1/EETqNDuRXyazspXqmZTgGv1QVSRB+R/wt7P30qJ2oA5ow6yItGCt5/EaEIOkIlszWjsvxrgcvm6IhFKFIJbZqqolkR9RzqcyB4n8oIY//Pisl7p0kMiPJRao4a9vlsCiJHVkx/8KS8iTSRd4GJh7JnPZvONGJJQqK+uCWGbbfnqyzMxrz0z/BGr4gxgIwbZm3o54aguugW2zWKCGP8aoZObB+hd9E4kYH8S3Ue4/iLXpm9wQotrOftFe03Z696jD3W03krCsrOvIXtoROUM1YJnt5qK7fMJGo1eResN9eXKyQn/OLihAyypPzhqTUBUqq/OXpaYvf+eh5ljsV/phWwzRM99LVf/N6sKV7+q7dWHcB79wY64aHAmhAKyZr4atrMu8nG1qjt82FkYZ1LPMFtjM57YFJNUc8gM4NQJWAzf3eB3949dFAf+uvluifKw2Pk8fPGXFfACenpMXX4WizwTqe9x49uX8plEr64JOiLeVH36V/iw1hQw5PylfTJwaaCvoOyXoDdlYnXu9FHbemb30BTXbSp/ZKgCW2AAvhbK9PPwuwQ4WhKq8xJrkWF7uak2qX1oXRXsLopbeBDgyQgHMDR16giBW1kHDsGsEfibE28wP7wisNRcMoIZ/e4ado8wglX3ltoSlr+q7ZSj75Bvrn12+aScCWVb+wcanE//T7jzgpVAAVq8CM4HGJEc17HqlEyEUoCQWj1fW2QGNo7i3n3tgWmEJCfFqzfXFekLLKtreWDhcYWnGqxr+To3cC7wWyua94Q8E4TCVKswEwiQHbMNMoN0kR7Nyv1XoWdYsCKtYYCbQPMnhhqM36xVgjcSgE+KxSPd8Op+ig3N4EppfbkRyFPF7JtAtR04oQdZIDDwhXkQZ5oa+mR96R0H8Dl8QCx3vaQ5fmAlsy9RX98bT7rKnmBtdijsnBkiRvv5koekOHXBZTYnV5eSMq4GvVyvr7Ag6IZ6+6Qud2fH/hTH+hr7rOX59fr9nAnnx9MtBQR/I76vvlpHZHSpQcfANfBXl2XzTTMXTo3svd3Evvnd9Ay+WDXx/nnk5K7bEb1vzemkr6+os/2Zn23udEG/V97JsTydPDTzMvabILX4K3b+ZQH48F0pR3ct9kTxMEXp6b/ApAUs12fRW0cH7E1XeXkrOMge+fhBUQjx901ecPis4H5XVnS+xylGk+sZ/RxKxNpC2I4jv4PVMoBs8+3Kp9d50S3OLlhjAaOA9xTN1JwYw3itTHP66iJCWGMCu1/KLIBLiBUEHFapYh1A7vjz+d8UY/kt9t0SQ3wHwaibQDZ59wVPF7JMJlNRShBoN2aitWA+yQgr5pqkmc4GgoIVi9yS2NhDzdbUkxAsC63cxvkPbQ/8qF08mp7WDFhQF/cX64uv/EMagha/8458JUrxsoZf5Png5Bg0Tns16iVKsFDkKAvFCJAAVRzKzm9vjraIVJEaj8yohXhDQB08pRMVo4PA57UQCiCL6TbhGuT5wZe3Tf/e/9cMaxnvAGBR+85b95nmrSABREDuNdtG9m2Mmp4MxKBWa6+R0QVB6EniBnThkQq5LGLsa+EKvwXo/WZXv55OzPg98y7GKwGusPZPfdGZHFzAW+6j5OIcxHtAPc6HG5TtC8cDDD5/7qI9BefHUj0KQwkwRmk9MXeA1l5SYmoVrewo5ZorQoEVyHFmdn9CCGt2KBDBEQsf+KoxBaxUJYH4QwhgU/mJBsnW+NhJPhbIUn7miqJUpQnuKBylCQQB2gqFPt/fg3DLWU4TS0Zp2wgSv2CKqU08vpqjkJ1RsohfJ6ejYU5uyJgoJtfPVc8+8KJRnzwDoL1IWlm1t8JAYYCkxVZod6ikMVUxRAt3FoSgnloeAWFRF/m19l4vE1J+j5pn//rt2ZrZbwjwGNRNYCItxYzuLg+esNxkSAxjHMvQ8tkkMICEc6MA3CBqdEG9t8Xs/BcHAi6jo/+iHSxAF7UH0MJwHkbCAMai+yY35YWlObwtjUH0zVHhuynj1pLGjEeZXkAnxwkxPMTeGkVjhfDV+E57fHsagYF7DGPQomdeRUDhhzXz5kRAv7GQKZ25azWv6xRaW4ofJ6VhtAMagZvOadU1YRQJEQuEkqIR4Ycfu97X+LubrtDFo01TJnIYxKMu8lhF5Ph/3v0xFLQQ2RjnqBJUQ76hiCOO4jkGPVI9CB43P5RPuEwN4idHoCVFvuM31pcryCuT6OkiIx7d4LGz4+fsCJ2aM0rM39C4dvNoOfGVVfSmfrEwM0EW6WqXCqXX69LEd+IbhJnZkR7fpR6yrkduNS4IuFV4LkVA8hHUzVSI/fS/BlxjA7scIy03s6Bt7VRSFmtZHOA3eIR+A3QpMv0qFuyUSiof07A99gIkpMQDeP38vdlcb+PYUhz7EiL3m+XNptRUJB4kBrD/I57HJGP20ddn0Xpdm9johHggl6FLhbomE4jHmGwpfPiMPPyOqiGvNs3GzjPdQVfX9e8n61jwDsI7absUblGbmrjqrqs+2np4qfRcvEuJBqfB0LK2t5ymlVuofu1tvFWTjvaBUuJQUtPU8bvIGWPFTKGEYg9pR8w3jwbipCiE3aCNyl1pIJStYwF2KQnaXm6Y8GfiCUKREIZdMHa7AhNLMCMdqemJbRadlCEHydlv3jOsn9v995OUn44mEtp6nJBQjNVMdKEQpPDE30fTJwPiOMa6pRyjHfQxqh68frHs3ty2J9Q18vbp5YS7NDDSqVHgtsHqV4zQGZeGrHyXfNNOiotpTC3l548Jcmhk4SqXCCbaUqYAxqC4SGIOCEFgvpB6UqWD9rtoYNMT47nC8F59+DW6MTE0o/VBVVEUZ8frpogqotALzIOeTN4mgBYSTG8tn9qzjk1pQZcJcz3N2buICby8ApcLhWq1UOIMnPMj2shSbKnO+wkQNjEFBDHYTNcBDcueWJhiK+feFMWi9EzV+42lj5CGz25tFqPm2dbmoTNTP8gl/sx/aiQNKM9PexdUKTDCvmO9HyP3WzGTNjfHjvvGbglSZyOLxucNEFsyxC5QKNyWyYF1Tr8llxWj0YRmD+kngQmkkYS3NbMZuAG9t5Obr6ikVXg9hGoP6zYmK9WrvmblCe4+KFZgPlg9WYEIjt23oUJqZngORwK4fInHCEAaUCreKiY5B2o1jUCqc/mHGUgnI20QWYRqD+s2R+aBeYddrWBu5+Tq/SzObsYrAa7w2vwzM6aSqAWPQe03eJacLgih6WMcQRiNKMx8H8nScAT2EomwPwLhDP1wCxqBwHl5HTSRA1KN4TL3m11HtUY47UY8SEcFBJJSTRJVS4RH2RKaXx9RteoWkVHhEOZFQvKTG0sxWWOOURpUKjzjgxN24MJZmttKoUuER9pzIJwyrV2lkaWYW5oYOPUEQpcIj7DmRQglbaWY7SmIJqFR4hD0nctYrbKWZbQmwVHiEMyeyRzEwGr2K1BsCctsYyQq9fV1Qmrm9e9K3xng7O/YqEWpLZBEN3r3jRN/IsJRm5sHvUuERzpz4J04YSjO7wc9S4RH2RF2zTiNLM0eEn0goFhpRmjkiIiIiIiIiIiIiIiIigh+E/j++tdGZgHy+EwAAAABJRU5ErkJggg==;" parent="Xi7EQyzXXoAQUirJSp25-15" vertex="1">
          <mxGeometry y="64.92703703703694" width="170" height="161.5" as="geometry" />
        </mxCell>
        <mxCell id="Xi7EQyzXXoAQUirJSp25-52" value="" style="endArrow=classic;html=1;rounded=0;strokeWidth=3;shape=arrow;fillColor=#1ba1e2;strokeColor=#006EAF;entryX=0;entryY=0.75;entryDx=0;entryDy=0;exitX=0.87;exitY=0.17;exitDx=0;exitDy=0;exitPerimeter=0;dashed=1;" parent="1" target="Xi7EQyzXXoAQUirJSp25-13" edge="1">
          <mxGeometry width="50" height="50" relative="1" as="geometry">
            <mxPoint x="711.5" y="464.65380000000005" as="sourcePoint" />
            <mxPoint x="800" y="600" as="targetPoint" />
          </mxGeometry>
        </mxCell>
        <mxCell id="Xi7EQyzXXoAQUirJSp25-53" value="" style="endArrow=classic;html=1;rounded=0;exitX=0.87;exitY=0.34;exitDx=0;exitDy=0;exitPerimeter=0;strokeWidth=3;shape=arrow;entryX=0;entryY=0.5;entryDx=0;entryDy=0;fillColor=#e3c800;strokeColor=#B09500;dashed=1;" parent="1" edge="1">
          <mxGeometry width="50" height="50" relative="1" as="geometry">
            <mxPoint x="621.5" y="589.3076000000001" as="sourcePoint" />
            <mxPoint x="795" y="495" as="targetPoint" />
          </mxGeometry>
        </mxCell>
        <mxCell id="Xi7EQyzXXoAQUirJSp25-54" value="" style="endArrow=classic;html=1;rounded=0;strokeWidth=3;shape=arrow;fillColor=#60a917;strokeColor=#2D7600;entryX=0;entryY=0.5;entryDx=0;entryDy=0;dashed=1;exitX=0.88;exitY=0.47;exitDx=0;exitDy=0;exitPerimeter=0;" parent="1" target="Xi7EQyzXXoAQUirJSp25-10" edge="1">
          <mxGeometry width="50" height="50" relative="1" as="geometry">
            <mxPoint x="716" y="596.3958" as="sourcePoint" />
            <mxPoint x="1030" y="626" as="targetPoint" />
            <Array as="points">
              <mxPoint x="1100" y="620" />
            </Array>
          </mxGeometry>
        </mxCell>
        <mxCell id="Xi7EQyzXXoAQUirJSp25-55" value="" style="endArrow=classic;html=1;rounded=0;strokeWidth=3;shape=arrow;fillColor=#0050ef;strokeColor=#001DBC;entryX=0;entryY=0.5;entryDx=0;entryDy=0;dashed=1;exitX=0.88;exitY=0.63;exitDx=0;exitDy=0;exitPerimeter=0;" parent="1" target="Xi7EQyzXXoAQUirJSp25-9" edge="1">
          <mxGeometry width="50" height="50" relative="1" as="geometry">
            <mxPoint x="716" y="666.6581999999999" as="sourcePoint" />
            <mxPoint x="1021" y="750" as="targetPoint" />
          </mxGeometry>
        </mxCell>
        <mxCell id="Xi7EQyzXXoAQUirJSp25-56" value="" style="endArrow=classic;html=1;rounded=0;exitX=0.88;exitY=0.78;exitDx=0;exitDy=0;exitPerimeter=0;strokeWidth=3;shape=arrow;entryX=0;entryY=0.5;entryDx=0;entryDy=0;fillColor=#e6d0de;gradientColor=#d5739d;strokeColor=#996185;dashed=1;" parent="1" target="Xi7EQyzXXoAQUirJSp25-11" edge="1">
          <mxGeometry width="50" height="50" relative="1" as="geometry">
            <mxPoint x="716" y="732.5292" as="sourcePoint" />
            <mxPoint x="800" y="600" as="targetPoint" />
          </mxGeometry>
        </mxCell>
        <mxCell id="Xi7EQyzXXoAQUirJSp25-59" value="" style="endArrow=classic;html=1;rounded=0;strokeWidth=3;shape=arrow;entryX=0.11;entryY=0.37;entryDx=0;entryDy=0;entryPerimeter=0;fillColor=#6d8764;strokeColor=#3A5431;dashed=1;" parent="1" source="Xi7EQyzXXoAQUirJSp25-4" edge="1">
          <mxGeometry width="50" height="50" relative="1" as="geometry">
            <mxPoint x="570" y="650" as="sourcePoint" />
            <mxPoint x="369.5" y="552.4818" as="targetPoint" />
          </mxGeometry>
        </mxCell>
        <mxCell id="Xi7EQyzXXoAQUirJSp25-62" value="&lt;font style=&quot;font-size: 35px;&quot; face=&quot;Times New Roman&quot;&gt;Unknown Malware&lt;/font&gt;" style="text;html=1;align=center;verticalAlign=middle;resizable=0;points=[];autosize=1;strokeColor=none;fillColor=none;" parent="1" vertex="1">
          <mxGeometry x="20" y="910" width="290" height="60" as="geometry" />
        </mxCell>
        <mxCell id="Xi7EQyzXXoAQUirJSp25-63" value="&lt;font style=&quot;font-size: 35px;&quot; face=&quot;Times New Roman&quot;&gt;New Class Malware&lt;/font&gt;" style="text;html=1;align=center;verticalAlign=middle;resizable=0;points=[];autosize=1;strokeColor=none;fillColor=none;" parent="1" vertex="1">
          <mxGeometry x="330" y="857.8499999999999" width="310" height="60" as="geometry" />
        </mxCell>
        <mxCell id="Xi7EQyzXXoAQUirJSp25-70" value="&lt;font style=&quot;font-size: 35px;&quot; face=&quot;Times New Roman&quot;&gt;Misclassification&lt;/font&gt;" style="text;html=1;align=center;verticalAlign=middle;resizable=0;points=[];autosize=1;strokeColor=none;fillColor=none;fontSize=10;" parent="1" vertex="1">
          <mxGeometry x="815" y="960" width="260" height="60" as="geometry" />
        </mxCell>
        <mxCell id="Xi7EQyzXXoAQUirJSp25-71" value="" style="shape=image;verticalLabelPosition=bottom;labelBackgroundColor=default;verticalAlign=top;aspect=fixed;imageAspect=0;image=data:image/png,iVBORw0KGgoAAAANSUhEUgAAAGIAAACXCAYAAADu+o6kAAAAAXNSR0IArs4c6QAAAARnQU1BAACxjwv8YQUAAAAJcEhZcwAAEnQAABJ0Ad5mH3gAAA2/SURBVHhe7Z17jFxVHcfPvXdmtqWtUeja0s62lO5jZrdWGqsQ0EAF1AbToDyCoBAVeYhGRaNiqBFrlIiBfyDhIUYBgzY8ohLkZQEjikWp4O7M7ra1dh99pC2l7bbbztxzj99z97fjzOw87mz3nnuWnk8ymd/vzMy9d873nN/5nfu09q1dIVhATlm3ySIzEI0suxIn0vpsejdEjBFCE4wQmjBhjGg0ThqmBtMjNMEIoQlGCE0wQhgMBoPBoDlm8hYR5RNpkzVpghFCE4wQmmCE0AQjhCYYITTBCKEJ5sBQRJh5hKYYITTBCKEJRghNmFaD9dKlS1uampq6hBDNlmU1o2i/53l78NrS39/fO/at6UF5vYcuRFtb28LNmzcPk9swXV1df0Slf4LcukCkTE9PzzJpjpU0Rnt7+1yIupfc0FCaNXV2dt6cSCR+Sm5gZGWk0+nHly1bJhoRQYLvd+J3XiqV2ohXOxUHJhaL3Yl130iuMsLsEXFUSE4a+Xx+VV9f30t+aRUg2h22bX+L3CkH4et5vH0yk8n421QJCLDacZynpY3vN9X67lQTWo9AxV5FpmxlD5BZEYSf0TBFkGD5F+J1jNyKIKzdR6bk8/SuhNCEwJ+6hkwZLloxVryf3BJaW1tX4PMZ5IYOWn1FweX2ocG0kCu3+bNkKiE0IdDFzyPTB2PF78kssGTJkuUzZsx4nVwlYLvuQG/9LbkFUP44mT4Q4sNkKkHZPAJ/bBGZPmiZi2fNmvUGuUpBiLoc63+FXB/0hqVkRoIyIYpZvHjxfLTA/5IbCVj/2ciqCuEzakLLmmTqSWYJnPPDqIRZ5GpNd3e3ssltaD0CFf4mmSVUEgED+0EyQwXrOUpmXaptf1iEpji6/acQd58gtyb40+eiknL4/t+oaMrBvOAjhw8f3jJnzpydVFQT13U/3dvb+yS5oRNq18P8YBiD9AJyqyL3F2Hy9F5pI6NZi8H0h/4HUwAq9D5U6A3SxgD9LHrkx/wPaoDtOYDteTe5Sgh1sB4ZGekisyao+GbMJ5qkjQpYd/To0RnoIf/yP5wkqMxtEGHuuAgAGtQXQZLL5drIVEaoQmzfvv3tQ4cOzUSl/oWKqoJ5xhoy2ZYtW4719PSsyOfzy6moIRDqLoCgp0OEfVQke9pFZNbijd27d8/B+veQrwxlWUG1LKqYSlkKwtvXEd7uIrcuEP12iHgLuQWCrP/gwYMnDwwM7Cc3VCbsBqf3UEFl3onK/Aa5NamVMmI567Gcy8gtgDD0MnpAyUy+mCAiSGRqnc1mZ5MbKkp3g4+DP1jYAVgPDKgXk1mC3C1RSQQJxphz8bsXyS0B2VuQkOQT5fxGiRBIS/2MKAiojCc7OjrmkCtxIMITcrcE+RXB784jMWJjJYwlk8mZWPdT5Aaivb09RaZSVIQmG6GBkx0Y9KKzjhw50oe8v+GYLbMlhKtmJABZKgoMfnsNBvmHyA0N5aEJoWEFmQ2BFv7qZESQoBfsnYwIEqz3Q2QqJXQhENcDhyVNiGR7QxcCsX0mmdMCNJxItteWsar4ReVTBmJ9oH07uoB5yA4ylRJ6j8Afm1ZCgF30rpTQhejr64v0AFCjINvaRKZSQhdiupHL5f5JplKUCIHwdIhM7dm6desgmUpRIgS6e+gTpKkAicURMpWj7CTkoDveikHFvJ3NZt9DbmDS6fRuTMwang9gVr0As2olyUV5vSsbIxCeAu/KRoUczufz50xGBAl+N08ey2gkFcV331IlQiWU9Yh58+bNam5uHiG3KghjD2cymavJPW7QO+5G77iJ3KpgkF7d39//DLnKUSaEpF54ggg/gAi3kVtMIpVKnYcKvRb2Gsx+/cOqEvSe/Zi9y13kj/T09MiTD7yxT/5PZ2fnVfjOI+RWROWpM5XQRghU6BsIDWeQW6Crq2snKnk+uXXBuPImQtOE82whxnqIUfF4hiRqIZTOI9Div0LmBMpFaGtrO0MK14gIEvSa5RBvr7xAhop80NOqHs/Adh0gMzKUCoHKuAeD4oRxAr3hEjJ9UJGbmpqaJj3DhXin4PdDWM4LVORTvp5xRkdHO8iMDKVCSBDH54yMjJxGrg8qbqV8lz2AesGEEDUZsJzzx5cpXfSWkjO80SjuliFp27Ztu6koMpSOEcUgmzkfFVNosagUKUBo6y5fPtxuNIr3kRs5ynvEOBhQ/4TK+Ci5svWG2gCKl48xoU8nESRKWn8tOjo6VsXj8Q3khg6yqvvRCK4nVxsiF0KCQfUYGmyC3FCJOk2tRmShqRiEiSa01J+TGwoIgxv37dun7XUZWrYOeZ11LBa7CxOwSV9QCGFfQuVfj/lJPxVpjZZCFIPs6jFkVxXz/0pAgBcxBlwAc8KuDp0oz1a1F6KY1tbWZCKROBem3Cs7Gz3mCDKgQxhfXkV4m9R5TFExrYV4J1EuhBaDtcEIoQ1GCE0wQmiCEUITItv7eqJjsiZNMUJoghFCE4wQmmCE0AQjhCYYITTBzCM0wfQITTBCaIIRQhNCHyN6WmKDXYNu4Q7DQeldYH+ZMWctizV2ErKECzHKPO9no8N83UrG8lQciN6FzrbUMF9CrjJC7RG9Lc46x7KT5AYim3R+3LsoIVgsds9kRJA4ljXTcZy1sxclcplkbMJdj2viOKdlW+zvkaeMUIXgXmM3XkdrvMyynQl3HzsebNu+PIMGATNwT/c89ETFhCZEN2MJxwl28/X1+K7fCxwH5tRjW86tWL732lx2KhXVRG53P2OFq5JUENqcYetc1p4/KdEnbeHyNekd/A/+B2X0zWdpNx7vRjhRkzh47rWpIe9B8kroOZVd7MQT/r1e7Vyuq30Xy/gfKCA0IfwWXoTnuVd2DnmPksv6FtpfEk7sfnKVIzzvhfSQeyG5LLPQuch2nJK7naUGcsomt8rSV9tzfkWmT5QiSCzblmcDFsBY0tigPsUoEwIZUByp7JA0/72ANZzOhkFv0v6i/94S38AsK9ITlJWFpnG4J15xLHYm/njhJohRghD1MHrH58gtIczQpOyYNXf5f8gswbGtc3QRQVJNBAxq28lSQmhCxAUbvyd3XdAqt3OX/YPcUHAFOySEi6w6GB4X15GphNCEaN/Jn/c4D3Q6PVrlYkfwH8lQIDze0HPn6mG57mfkcm2eW4mOKB8UWB/h3dK5kz9HnhJCHaw7h/kTQvCajz4bR8TGbtGQHuLP+rHZK3kUWeMI79dyOR07vN9I17Lif/bL6yH4L1KD7u3kKUNJnpxdGN9lOdY8cqtiD+RmtDNWeFbcXxmbeXKL/XdmxQJfASqEN3j0oLt8xQH2NhWxpzFLPn1Rou7TVIQQR9KDeSXZUyQnmAnmvUVmTXgyXvIIsrMZG00Ness5FzUf5DeO4CKfHnQXFYsgWVK23GpYlnUSmcpRIgRmrGkya2LZVsUbqncN52fYLv8JuRXxuPe79HC+4pWp1ZarE6Hf97VRNiVZyc1Mxslbds17LqGyC7srinl9PpOPW9YeJT2iEWZa8QnXwmHme9BxrHeRWxEZVrIt8cPkFpgZj0Vy18pG0U4I1Oicnpb4nuxC55Le+eyDmWTsYVlGn9ZEitGbjG/YnHQ+3rfQuUjuUrEsW4vdKfXQTwjgWNZcy3EeY4nExoavtbatVdx2nhGO85Rj2RXDXC02J1krmUrRUogoyXlOyS2MVGGEKMdmSp4xVI4Rogzh8khuGWGEKGPPLhaJEErOfa12bEJHwjwGUQvTIzTBCKEJ00oIz/PWsxxfncuLlfF8bjE/5p3FXfcK4Ymn6SvTFiVjRHaB3W3FYoGe5DsBj9+bGuI3kleXbNK53bKd75DbMO/sMUJY3yQrMBZ3r5OV0ogIkvQQ/678neD8Ug4ZqTgQwvMCPQg9DJQIkd7JnyWzPlw8NzKQS3QMe4GO7FUjPcwf7xrIOZ4n7qWiuuSE+zUylaPs0q1s0v6CZccqnupYTLXQgI20eltiH0Dv6rAsz3+eKMo42ny3w3mm1umRgdJnwftTgzyyW1MrjYfZU1iHNSvRS24J3PUOdO1wC4+3R83FMsn4y45tnU1FgfG4uDc9nL8Jf64QmrILYvutmF3x8fmeEBs7B/NnkhsJSrOm9D4mT0queNh0dIdbOICDSrs10xI/NhkRJLZj3dCH3/e12NdQEdtVtPxyZot81Wdhq0J5+vroQK5ZCOGSO4YQb41f2dO7IP4aWu664z473LJiwor9sicZ9x/zv4ox1xJir/9ZEW4u17VoiI2SGxnKhbgNkcDz8p3k+pQE8NjYnfOnCv/MQiLvsZJj2kLwB5cpPPW+FpHkzJLyAVR4/CFm2ZeGcSYFd8UxyxYbbNteTUU+Uc0ZJOVJkvIeMQ7yfHk5VQFMwq4O63QWJ2Y1lYtgebxi0hAVkQmBPP/7/sTL5WuoSAlWnt8l19sxxAOd4qOKyIQYR17S5Q7kAp0ccLzI/VMdO/nN5GpF5EJIljE2MrZbwg18BnkjYFC+u2MgZy/dyQaoSDu0EGKc9LB3HyqtZOw4boT3aHqQfxWjcv3ZdYRoJYQEleaPHUy4V3DOt1FxYwgxIjzv23KfVWrQvZJKtSay9O1Epzx9Nfdright5hGGUowQmmCE0AQjhCYYITTBCKEJRghNMPMITTA9QhOMEJpghNAEI4QmGCE0YULWVE6jWVS95dXjRF2f6RGaYITQBNtM4HSAsf8B8SdEgTvDmyUAAAAASUVORK5CYII=;fontSize=10;" parent="1" vertex="1">
          <mxGeometry x="935" y="290" width="50" height="70" as="geometry" />
        </mxCell>
        <mxCell id="Xi7EQyzXXoAQUirJSp25-72" value="" style="shape=image;verticalLabelPosition=bottom;labelBackgroundColor=default;verticalAlign=top;aspect=fixed;imageAspect=0;image=data:image/png,iVBORw0KGgoAAAANSUhEUgAAAGIAAACXCAYAAADu+o6kAAAAAXNSR0IArs4c6QAAAARnQU1BAACxjwv8YQUAAAAJcEhZcwAAEnQAABJ0Ad5mH3gAAA2/SURBVHhe7Z17jFxVHcfPvXdmtqWtUeja0s62lO5jZrdWGqsQ0EAF1AbToDyCoBAVeYhGRaNiqBFrlIiBfyDhIUYBgzY8ohLkZQEjikWp4O7M7ra1dh99pC2l7bbbztxzj99z97fjzOw87mz3nnuWnk8ymd/vzMy9d873nN/5nfu09q1dIVhATlm3ySIzEI0suxIn0vpsejdEjBFCE4wQmjBhjGg0ThqmBtMjNMEIoQlGCE0wQhgMBoPBoDlm8hYR5RNpkzVpghFCE4wQmmCE0AQjhCYYITTBCKEJ5sBQRJh5hKYYITTBCKEJRghNmFaD9dKlS1uampq6hBDNlmU1o2i/53l78NrS39/fO/at6UF5vYcuRFtb28LNmzcPk9swXV1df0Slf4LcukCkTE9PzzJpjpU0Rnt7+1yIupfc0FCaNXV2dt6cSCR+Sm5gZGWk0+nHly1bJhoRQYLvd+J3XiqV2ohXOxUHJhaL3Yl130iuMsLsEXFUSE4a+Xx+VV9f30t+aRUg2h22bX+L3CkH4et5vH0yk8n421QJCLDacZynpY3vN9X67lQTWo9AxV5FpmxlD5BZEYSf0TBFkGD5F+J1jNyKIKzdR6bk8/SuhNCEwJ+6hkwZLloxVryf3BJaW1tX4PMZ5IYOWn1FweX2ocG0kCu3+bNkKiE0IdDFzyPTB2PF78kssGTJkuUzZsx4nVwlYLvuQG/9LbkFUP44mT4Q4sNkKkHZPAJ/bBGZPmiZi2fNmvUGuUpBiLoc63+FXB/0hqVkRoIyIYpZvHjxfLTA/5IbCVj/2ciqCuEzakLLmmTqSWYJnPPDqIRZ5GpNd3e3ssltaD0CFf4mmSVUEgED+0EyQwXrOUpmXaptf1iEpji6/acQd58gtyb40+eiknL4/t+oaMrBvOAjhw8f3jJnzpydVFQT13U/3dvb+yS5oRNq18P8YBiD9AJyqyL3F2Hy9F5pI6NZi8H0h/4HUwAq9D5U6A3SxgD9LHrkx/wPaoDtOYDteTe5Sgh1sB4ZGekisyao+GbMJ5qkjQpYd/To0RnoIf/yP5wkqMxtEGHuuAgAGtQXQZLL5drIVEaoQmzfvv3tQ4cOzUSl/oWKqoJ5xhoy2ZYtW4719PSsyOfzy6moIRDqLoCgp0OEfVQke9pFZNbijd27d8/B+veQrwxlWUG1LKqYSlkKwtvXEd7uIrcuEP12iHgLuQWCrP/gwYMnDwwM7Cc3VCbsBqf3UEFl3onK/Aa5NamVMmI567Gcy8gtgDD0MnpAyUy+mCAiSGRqnc1mZ5MbKkp3g4+DP1jYAVgPDKgXk1mC3C1RSQQJxphz8bsXyS0B2VuQkOQT5fxGiRBIS/2MKAiojCc7OjrmkCtxIMITcrcE+RXB784jMWJjJYwlk8mZWPdT5Aaivb09RaZSVIQmG6GBkx0Y9KKzjhw50oe8v+GYLbMlhKtmJABZKgoMfnsNBvmHyA0N5aEJoWEFmQ2BFv7qZESQoBfsnYwIEqz3Q2QqJXQhENcDhyVNiGR7QxcCsX0mmdMCNJxItteWsar4ReVTBmJ9oH07uoB5yA4ylRJ6j8Afm1ZCgF30rpTQhejr64v0AFCjINvaRKZSQhdiupHL5f5JplKUCIHwdIhM7dm6desgmUpRIgS6e+gTpKkAicURMpWj7CTkoDveikHFvJ3NZt9DbmDS6fRuTMwang9gVr0As2olyUV5vSsbIxCeAu/KRoUczufz50xGBAl+N08ey2gkFcV331IlQiWU9Yh58+bNam5uHiG3KghjD2cymavJPW7QO+5G77iJ3KpgkF7d39//DLnKUSaEpF54ggg/gAi3kVtMIpVKnYcKvRb2Gsx+/cOqEvSe/Zi9y13kj/T09MiTD7yxT/5PZ2fnVfjOI+RWROWpM5XQRghU6BsIDWeQW6Crq2snKnk+uXXBuPImQtOE82whxnqIUfF4hiRqIZTOI9Div0LmBMpFaGtrO0MK14gIEvSa5RBvr7xAhop80NOqHs/Adh0gMzKUCoHKuAeD4oRxAr3hEjJ9UJGbmpqaJj3DhXin4PdDWM4LVORTvp5xRkdHO8iMDKVCSBDH54yMjJxGrg8qbqV8lz2AesGEEDUZsJzzx5cpXfSWkjO80SjuliFp27Ztu6koMpSOEcUgmzkfFVNosagUKUBo6y5fPtxuNIr3kRs5ynvEOBhQ/4TK+Ci5svWG2gCKl48xoU8nESRKWn8tOjo6VsXj8Q3khg6yqvvRCK4nVxsiF0KCQfUYGmyC3FCJOk2tRmShqRiEiSa01J+TGwoIgxv37dun7XUZWrYOeZ11LBa7CxOwSV9QCGFfQuVfj/lJPxVpjZZCFIPs6jFkVxXz/0pAgBcxBlwAc8KuDp0oz1a1F6KY1tbWZCKROBem3Cs7Gz3mCDKgQxhfXkV4m9R5TFExrYV4J1EuhBaDtcEIoQ1GCE0wQmiCEUITItv7eqJjsiZNMUJoghFCE4wQmmCE0AQjhCYYITTBzCM0wfQITTBCaIIRQhNCHyN6WmKDXYNu4Q7DQeldYH+ZMWctizV2ErKECzHKPO9no8N83UrG8lQciN6FzrbUMF9CrjJC7RG9Lc46x7KT5AYim3R+3LsoIVgsds9kRJA4ljXTcZy1sxclcplkbMJdj2viOKdlW+zvkaeMUIXgXmM3XkdrvMyynQl3HzsebNu+PIMGATNwT/c89ETFhCZEN2MJxwl28/X1+K7fCxwH5tRjW86tWL732lx2KhXVRG53P2OFq5JUENqcYetc1p4/KdEnbeHyNekd/A/+B2X0zWdpNx7vRjhRkzh47rWpIe9B8kroOZVd7MQT/r1e7Vyuq30Xy/gfKCA0IfwWXoTnuVd2DnmPksv6FtpfEk7sfnKVIzzvhfSQeyG5LLPQuch2nJK7naUGcsomt8rSV9tzfkWmT5QiSCzblmcDFsBY0tigPsUoEwIZUByp7JA0/72ANZzOhkFv0v6i/94S38AsK9ITlJWFpnG4J15xLHYm/njhJohRghD1MHrH58gtIczQpOyYNXf5f8gswbGtc3QRQVJNBAxq28lSQmhCxAUbvyd3XdAqt3OX/YPcUHAFOySEi6w6GB4X15GphNCEaN/Jn/c4D3Q6PVrlYkfwH8lQIDze0HPn6mG57mfkcm2eW4mOKB8UWB/h3dK5kz9HnhJCHaw7h/kTQvCajz4bR8TGbtGQHuLP+rHZK3kUWeMI79dyOR07vN9I17Lif/bL6yH4L1KD7u3kKUNJnpxdGN9lOdY8cqtiD+RmtDNWeFbcXxmbeXKL/XdmxQJfASqEN3j0oLt8xQH2NhWxpzFLPn1Rou7TVIQQR9KDeSXZUyQnmAnmvUVmTXgyXvIIsrMZG00Ness5FzUf5DeO4CKfHnQXFYsgWVK23GpYlnUSmcpRIgRmrGkya2LZVsUbqncN52fYLv8JuRXxuPe79HC+4pWp1ZarE6Hf97VRNiVZyc1Mxslbds17LqGyC7srinl9PpOPW9YeJT2iEWZa8QnXwmHme9BxrHeRWxEZVrIt8cPkFpgZj0Vy18pG0U4I1Oicnpb4nuxC55Le+eyDmWTsYVlGn9ZEitGbjG/YnHQ+3rfQuUjuUrEsW4vdKfXQTwjgWNZcy3EeY4nExoavtbatVdx2nhGO85Rj2RXDXC02J1krmUrRUogoyXlOyS2MVGGEKMdmSp4xVI4Rogzh8khuGWGEKGPPLhaJEErOfa12bEJHwjwGUQvTIzTBCKEJ00oIz/PWsxxfncuLlfF8bjE/5p3FXfcK4Ymn6SvTFiVjRHaB3W3FYoGe5DsBj9+bGuI3kleXbNK53bKd75DbMO/sMUJY3yQrMBZ3r5OV0ogIkvQQ/678neD8Ug4ZqTgQwvMCPQg9DJQIkd7JnyWzPlw8NzKQS3QMe4GO7FUjPcwf7xrIOZ4n7qWiuuSE+zUylaPs0q1s0v6CZccqnupYTLXQgI20eltiH0Dv6rAsz3+eKMo42ny3w3mm1umRgdJnwftTgzyyW1MrjYfZU1iHNSvRS24J3PUOdO1wC4+3R83FMsn4y45tnU1FgfG4uDc9nL8Jf64QmrILYvutmF3x8fmeEBs7B/NnkhsJSrOm9D4mT0queNh0dIdbOICDSrs10xI/NhkRJLZj3dCH3/e12NdQEdtVtPxyZot81Wdhq0J5+vroQK5ZCOGSO4YQb41f2dO7IP4aWu664z473LJiwor9sicZ9x/zv4ox1xJir/9ZEW4u17VoiI2SGxnKhbgNkcDz8p3k+pQE8NjYnfOnCv/MQiLvsZJj2kLwB5cpPPW+FpHkzJLyAVR4/CFm2ZeGcSYFd8UxyxYbbNteTUU+Uc0ZJOVJkvIeMQ7yfHk5VQFMwq4O63QWJ2Y1lYtgebxi0hAVkQmBPP/7/sTL5WuoSAlWnt8l19sxxAOd4qOKyIQYR17S5Q7kAp0ccLzI/VMdO/nN5GpF5EJIljE2MrZbwg18BnkjYFC+u2MgZy/dyQaoSDu0EGKc9LB3HyqtZOw4boT3aHqQfxWjcv3ZdYRoJYQEleaPHUy4V3DOt1FxYwgxIjzv23KfVWrQvZJKtSay9O1Epzx9Nfdright5hGGUowQmmCE0AQjhCYYITTBCKEJRghNMPMITTA9QhOMEJpghNAEI4QmGCE0YULWVE6jWVS95dXjRF2f6RGaYITQBNtM4HSAsf8B8SdEgTvDmyUAAAAASUVORK5CYII=;fontSize=10;" parent="1" vertex="1">
          <mxGeometry x="935" y="430" width="50" height="70" as="geometry" />
        </mxCell>
        <mxCell id="Xi7EQyzXXoAQUirJSp25-73" value="" style="shape=image;verticalLabelPosition=bottom;labelBackgroundColor=default;verticalAlign=top;aspect=fixed;imageAspect=0;image=data:image/png,iVBORw0KGgoAAAANSUhEUgAAAGIAAACXCAYAAADu+o6kAAAAAXNSR0IArs4c6QAAAARnQU1BAACxjwv8YQUAAAAJcEhZcwAAEnQAABJ0Ad5mH3gAAA2/SURBVHhe7Z17jFxVHcfPvXdmtqWtUeja0s62lO5jZrdWGqsQ0EAF1AbToDyCoBAVeYhGRaNiqBFrlIiBfyDhIUYBgzY8ohLkZQEjikWp4O7M7ra1dh99pC2l7bbbztxzj99z97fjzOw87mz3nnuWnk8ymd/vzMy9d873nN/5nfu09q1dIVhATlm3ySIzEI0suxIn0vpsejdEjBFCE4wQmjBhjGg0ThqmBtMjNMEIoQlGCE0wQhgMBoPBoDlm8hYR5RNpkzVpghFCE4wQmmCE0AQjhCYYITTBCKEJ5sBQRJh5hKYYITTBCKEJRghNmFaD9dKlS1uampq6hBDNlmU1o2i/53l78NrS39/fO/at6UF5vYcuRFtb28LNmzcPk9swXV1df0Slf4LcukCkTE9PzzJpjpU0Rnt7+1yIupfc0FCaNXV2dt6cSCR+Sm5gZGWk0+nHly1bJhoRQYLvd+J3XiqV2ohXOxUHJhaL3Yl130iuMsLsEXFUSE4a+Xx+VV9f30t+aRUg2h22bX+L3CkH4et5vH0yk8n421QJCLDacZynpY3vN9X67lQTWo9AxV5FpmxlD5BZEYSf0TBFkGD5F+J1jNyKIKzdR6bk8/SuhNCEwJ+6hkwZLloxVryf3BJaW1tX4PMZ5IYOWn1FweX2ocG0kCu3+bNkKiE0IdDFzyPTB2PF78kssGTJkuUzZsx4nVwlYLvuQG/9LbkFUP44mT4Q4sNkKkHZPAJ/bBGZPmiZi2fNmvUGuUpBiLoc63+FXB/0hqVkRoIyIYpZvHjxfLTA/5IbCVj/2ciqCuEzakLLmmTqSWYJnPPDqIRZ5GpNd3e3ssltaD0CFf4mmSVUEgED+0EyQwXrOUpmXaptf1iEpji6/acQd58gtyb40+eiknL4/t+oaMrBvOAjhw8f3jJnzpydVFQT13U/3dvb+yS5oRNq18P8YBiD9AJyqyL3F2Hy9F5pI6NZi8H0h/4HUwAq9D5U6A3SxgD9LHrkx/wPaoDtOYDteTe5Sgh1sB4ZGekisyao+GbMJ5qkjQpYd/To0RnoIf/yP5wkqMxtEGHuuAgAGtQXQZLL5drIVEaoQmzfvv3tQ4cOzUSl/oWKqoJ5xhoy2ZYtW4719PSsyOfzy6moIRDqLoCgp0OEfVQke9pFZNbijd27d8/B+veQrwxlWUG1LKqYSlkKwtvXEd7uIrcuEP12iHgLuQWCrP/gwYMnDwwM7Cc3VCbsBqf3UEFl3onK/Aa5NamVMmI567Gcy8gtgDD0MnpAyUy+mCAiSGRqnc1mZ5MbKkp3g4+DP1jYAVgPDKgXk1mC3C1RSQQJxphz8bsXyS0B2VuQkOQT5fxGiRBIS/2MKAiojCc7OjrmkCtxIMITcrcE+RXB784jMWJjJYwlk8mZWPdT5Aaivb09RaZSVIQmG6GBkx0Y9KKzjhw50oe8v+GYLbMlhKtmJABZKgoMfnsNBvmHyA0N5aEJoWEFmQ2BFv7qZESQoBfsnYwIEqz3Q2QqJXQhENcDhyVNiGR7QxcCsX0mmdMCNJxItteWsar4ReVTBmJ9oH07uoB5yA4ylRJ6j8Afm1ZCgF30rpTQhejr64v0AFCjINvaRKZSQhdiupHL5f5JplKUCIHwdIhM7dm6desgmUpRIgS6e+gTpKkAicURMpWj7CTkoDveikHFvJ3NZt9DbmDS6fRuTMwang9gVr0As2olyUV5vSsbIxCeAu/KRoUczufz50xGBAl+N08ey2gkFcV331IlQiWU9Yh58+bNam5uHiG3KghjD2cymavJPW7QO+5G77iJ3KpgkF7d39//DLnKUSaEpF54ggg/gAi3kVtMIpVKnYcKvRb2Gsx+/cOqEvSe/Zi9y13kj/T09MiTD7yxT/5PZ2fnVfjOI+RWROWpM5XQRghU6BsIDWeQW6Crq2snKnk+uXXBuPImQtOE82whxnqIUfF4hiRqIZTOI9Div0LmBMpFaGtrO0MK14gIEvSa5RBvr7xAhop80NOqHs/Adh0gMzKUCoHKuAeD4oRxAr3hEjJ9UJGbmpqaJj3DhXin4PdDWM4LVORTvp5xRkdHO8iMDKVCSBDH54yMjJxGrg8qbqV8lz2AesGEEDUZsJzzx5cpXfSWkjO80SjuliFp27Ztu6koMpSOEcUgmzkfFVNosagUKUBo6y5fPtxuNIr3kRs5ynvEOBhQ/4TK+Ci5svWG2gCKl48xoU8nESRKWn8tOjo6VsXj8Q3khg6yqvvRCK4nVxsiF0KCQfUYGmyC3FCJOk2tRmShqRiEiSa01J+TGwoIgxv37dun7XUZWrYOeZ11LBa7CxOwSV9QCGFfQuVfj/lJPxVpjZZCFIPs6jFkVxXz/0pAgBcxBlwAc8KuDp0oz1a1F6KY1tbWZCKROBem3Cs7Gz3mCDKgQxhfXkV4m9R5TFExrYV4J1EuhBaDtcEIoQ1GCE0wQmiCEUITItv7eqJjsiZNMUJoghFCE4wQmmCE0AQjhCYYITTBzCM0wfQITTBCaIIRQhNCHyN6WmKDXYNu4Q7DQeldYH+ZMWctizV2ErKECzHKPO9no8N83UrG8lQciN6FzrbUMF9CrjJC7RG9Lc46x7KT5AYim3R+3LsoIVgsds9kRJA4ljXTcZy1sxclcplkbMJdj2viOKdlW+zvkaeMUIXgXmM3XkdrvMyynQl3HzsebNu+PIMGATNwT/c89ETFhCZEN2MJxwl28/X1+K7fCxwH5tRjW86tWL732lx2KhXVRG53P2OFq5JUENqcYetc1p4/KdEnbeHyNekd/A/+B2X0zWdpNx7vRjhRkzh47rWpIe9B8kroOZVd7MQT/r1e7Vyuq30Xy/gfKCA0IfwWXoTnuVd2DnmPksv6FtpfEk7sfnKVIzzvhfSQeyG5LLPQuch2nJK7naUGcsomt8rSV9tzfkWmT5QiSCzblmcDFsBY0tigPsUoEwIZUByp7JA0/72ANZzOhkFv0v6i/94S38AsK9ITlJWFpnG4J15xLHYm/njhJohRghD1MHrH58gtIczQpOyYNXf5f8gswbGtc3QRQVJNBAxq28lSQmhCxAUbvyd3XdAqt3OX/YPcUHAFOySEi6w6GB4X15GphNCEaN/Jn/c4D3Q6PVrlYkfwH8lQIDze0HPn6mG57mfkcm2eW4mOKB8UWB/h3dK5kz9HnhJCHaw7h/kTQvCajz4bR8TGbtGQHuLP+rHZK3kUWeMI79dyOR07vN9I17Lif/bL6yH4L1KD7u3kKUNJnpxdGN9lOdY8cqtiD+RmtDNWeFbcXxmbeXKL/XdmxQJfASqEN3j0oLt8xQH2NhWxpzFLPn1Rou7TVIQQR9KDeSXZUyQnmAnmvUVmTXgyXvIIsrMZG00Ness5FzUf5DeO4CKfHnQXFYsgWVK23GpYlnUSmcpRIgRmrGkya2LZVsUbqncN52fYLv8JuRXxuPe79HC+4pWp1ZarE6Hf97VRNiVZyc1Mxslbds17LqGyC7srinl9PpOPW9YeJT2iEWZa8QnXwmHme9BxrHeRWxEZVrIt8cPkFpgZj0Vy18pG0U4I1Oicnpb4nuxC55Le+eyDmWTsYVlGn9ZEitGbjG/YnHQ+3rfQuUjuUrEsW4vdKfXQTwjgWNZcy3EeY4nExoavtbatVdx2nhGO85Rj2RXDXC02J1krmUrRUogoyXlOyS2MVGGEKMdmSp4xVI4Rogzh8khuGWGEKGPPLhaJEErOfa12bEJHwjwGUQvTIzTBCKEJ00oIz/PWsxxfncuLlfF8bjE/5p3FXfcK4Ymn6SvTFiVjRHaB3W3FYoGe5DsBj9+bGuI3kleXbNK53bKd75DbMO/sMUJY3yQrMBZ3r5OV0ogIkvQQ/678neD8Ug4ZqTgQwvMCPQg9DJQIkd7JnyWzPlw8NzKQS3QMe4GO7FUjPcwf7xrIOZ4n7qWiuuSE+zUylaPs0q1s0v6CZccqnupYTLXQgI20eltiH0Dv6rAsz3+eKMo42ny3w3mm1umRgdJnwftTgzyyW1MrjYfZU1iHNSvRS24J3PUOdO1wC4+3R83FMsn4y45tnU1FgfG4uDc9nL8Jf64QmrILYvutmF3x8fmeEBs7B/NnkhsJSrOm9D4mT0queNh0dIdbOICDSrs10xI/NhkRJLZj3dCH3/e12NdQEdtVtPxyZot81Wdhq0J5+vroQK5ZCOGSO4YQb41f2dO7IP4aWu664z473LJiwor9sicZ9x/zv4ox1xJir/9ZEW4u17VoiI2SGxnKhbgNkcDz8p3k+pQE8NjYnfOnCv/MQiLvsZJj2kLwB5cpPPW+FpHkzJLyAVR4/CFm2ZeGcSYFd8UxyxYbbNteTUU+Uc0ZJOVJkvIeMQ7yfHk5VQFMwq4O63QWJ2Y1lYtgebxi0hAVkQmBPP/7/sTL5WuoSAlWnt8l19sxxAOd4qOKyIQYR17S5Q7kAp0ccLzI/VMdO/nN5GpF5EJIljE2MrZbwg18BnkjYFC+u2MgZy/dyQaoSDu0EGKc9LB3HyqtZOw4boT3aHqQfxWjcv3ZdYRoJYQEleaPHUy4V3DOt1FxYwgxIjzv23KfVWrQvZJKtSay9O1Epzx9Nfdright5hGGUowQmmCE0AQjhCYYITTBCKEJRghNMPMITTA9QhOMEJpghNAEI4QmGCE0YULWVE6jWVS95dXjRF2f6RGaYITQBNtM4HSAsf8B8SdEgTvDmyUAAAAASUVORK5CYII=;fontSize=10;" parent="1" vertex="1">
          <mxGeometry x="935" y="574.57" width="50" height="70" as="geometry" />
        </mxCell>
        <mxCell id="Xi7EQyzXXoAQUirJSp25-74" value="" style="shape=image;verticalLabelPosition=bottom;labelBackgroundColor=default;verticalAlign=top;aspect=fixed;imageAspect=0;image=data:image/png,iVBORw0KGgoAAAANSUhEUgAAAGIAAACXCAYAAADu+o6kAAAAAXNSR0IArs4c6QAAAARnQU1BAACxjwv8YQUAAAAJcEhZcwAAEnQAABJ0Ad5mH3gAAA2/SURBVHhe7Z17jFxVHcfPvXdmtqWtUeja0s62lO5jZrdWGqsQ0EAF1AbToDyCoBAVeYhGRaNiqBFrlIiBfyDhIUYBgzY8ohLkZQEjikWp4O7M7ra1dh99pC2l7bbbztxzj99z97fjzOw87mz3nnuWnk8ymd/vzMy9d873nN/5nfu09q1dIVhATlm3ySIzEI0suxIn0vpsejdEjBFCE4wQmjBhjGg0ThqmBtMjNMEIoQlGCE0wQhgMBoPBoDlm8hYR5RNpkzVpghFCE4wQmmCE0AQjhCYYITTBCKEJ5sBQRJh5hKYYITTBCKEJRghNmFaD9dKlS1uampq6hBDNlmU1o2i/53l78NrS39/fO/at6UF5vYcuRFtb28LNmzcPk9swXV1df0Slf4LcukCkTE9PzzJpjpU0Rnt7+1yIupfc0FCaNXV2dt6cSCR+Sm5gZGWk0+nHly1bJhoRQYLvd+J3XiqV2ohXOxUHJhaL3Yl130iuMsLsEXFUSE4a+Xx+VV9f30t+aRUg2h22bX+L3CkH4et5vH0yk8n421QJCLDacZynpY3vN9X67lQTWo9AxV5FpmxlD5BZEYSf0TBFkGD5F+J1jNyKIKzdR6bk8/SuhNCEwJ+6hkwZLloxVryf3BJaW1tX4PMZ5IYOWn1FweX2ocG0kCu3+bNkKiE0IdDFzyPTB2PF78kssGTJkuUzZsx4nVwlYLvuQG/9LbkFUP44mT4Q4sNkKkHZPAJ/bBGZPmiZi2fNmvUGuUpBiLoc63+FXB/0hqVkRoIyIYpZvHjxfLTA/5IbCVj/2ciqCuEzakLLmmTqSWYJnPPDqIRZ5GpNd3e3ssltaD0CFf4mmSVUEgED+0EyQwXrOUpmXaptf1iEpji6/acQd58gtyb40+eiknL4/t+oaMrBvOAjhw8f3jJnzpydVFQT13U/3dvb+yS5oRNq18P8YBiD9AJyqyL3F2Hy9F5pI6NZi8H0h/4HUwAq9D5U6A3SxgD9LHrkx/wPaoDtOYDteTe5Sgh1sB4ZGekisyao+GbMJ5qkjQpYd/To0RnoIf/yP5wkqMxtEGHuuAgAGtQXQZLL5drIVEaoQmzfvv3tQ4cOzUSl/oWKqoJ5xhoy2ZYtW4719PSsyOfzy6moIRDqLoCgp0OEfVQke9pFZNbijd27d8/B+veQrwxlWUG1LKqYSlkKwtvXEd7uIrcuEP12iHgLuQWCrP/gwYMnDwwM7Cc3VCbsBqf3UEFl3onK/Aa5NamVMmI567Gcy8gtgDD0MnpAyUy+mCAiSGRqnc1mZ5MbKkp3g4+DP1jYAVgPDKgXk1mC3C1RSQQJxphz8bsXyS0B2VuQkOQT5fxGiRBIS/2MKAiojCc7OjrmkCtxIMITcrcE+RXB784jMWJjJYwlk8mZWPdT5Aaivb09RaZSVIQmG6GBkx0Y9KKzjhw50oe8v+GYLbMlhKtmJABZKgoMfnsNBvmHyA0N5aEJoWEFmQ2BFv7qZESQoBfsnYwIEqz3Q2QqJXQhENcDhyVNiGR7QxcCsX0mmdMCNJxItteWsar4ReVTBmJ9oH07uoB5yA4ylRJ6j8Afm1ZCgF30rpTQhejr64v0AFCjINvaRKZSQhdiupHL5f5JplKUCIHwdIhM7dm6desgmUpRIgS6e+gTpKkAicURMpWj7CTkoDveikHFvJ3NZt9DbmDS6fRuTMwang9gVr0As2olyUV5vSsbIxCeAu/KRoUczufz50xGBAl+N08ey2gkFcV331IlQiWU9Yh58+bNam5uHiG3KghjD2cymavJPW7QO+5G77iJ3KpgkF7d39//DLnKUSaEpF54ggg/gAi3kVtMIpVKnYcKvRb2Gsx+/cOqEvSe/Zi9y13kj/T09MiTD7yxT/5PZ2fnVfjOI+RWROWpM5XQRghU6BsIDWeQW6Crq2snKnk+uXXBuPImQtOE82whxnqIUfF4hiRqIZTOI9Div0LmBMpFaGtrO0MK14gIEvSa5RBvr7xAhop80NOqHs/Adh0gMzKUCoHKuAeD4oRxAr3hEjJ9UJGbmpqaJj3DhXin4PdDWM4LVORTvp5xRkdHO8iMDKVCSBDH54yMjJxGrg8qbqV8lz2AesGEEDUZsJzzx5cpXfSWkjO80SjuliFp27Ztu6koMpSOEcUgmzkfFVNosagUKUBo6y5fPtxuNIr3kRs5ynvEOBhQ/4TK+Ci5svWG2gCKl48xoU8nESRKWn8tOjo6VsXj8Q3khg6yqvvRCK4nVxsiF0KCQfUYGmyC3FCJOk2tRmShqRiEiSa01J+TGwoIgxv37dun7XUZWrYOeZ11LBa7CxOwSV9QCGFfQuVfj/lJPxVpjZZCFIPs6jFkVxXz/0pAgBcxBlwAc8KuDp0oz1a1F6KY1tbWZCKROBem3Cs7Gz3mCDKgQxhfXkV4m9R5TFExrYV4J1EuhBaDtcEIoQ1GCE0wQmiCEUITItv7eqJjsiZNMUJoghFCE4wQmmCE0AQjhCYYITTBzCM0wfQITTBCaIIRQhNCHyN6WmKDXYNu4Q7DQeldYH+ZMWctizV2ErKECzHKPO9no8N83UrG8lQciN6FzrbUMF9CrjJC7RG9Lc46x7KT5AYim3R+3LsoIVgsds9kRJA4ljXTcZy1sxclcplkbMJdj2viOKdlW+zvkaeMUIXgXmM3XkdrvMyynQl3HzsebNu+PIMGATNwT/c89ETFhCZEN2MJxwl28/X1+K7fCxwH5tRjW86tWL732lx2KhXVRG53P2OFq5JUENqcYetc1p4/KdEnbeHyNekd/A/+B2X0zWdpNx7vRjhRkzh47rWpIe9B8kroOZVd7MQT/r1e7Vyuq30Xy/gfKCA0IfwWXoTnuVd2DnmPksv6FtpfEk7sfnKVIzzvhfSQeyG5LLPQuch2nJK7naUGcsomt8rSV9tzfkWmT5QiSCzblmcDFsBY0tigPsUoEwIZUByp7JA0/72ANZzOhkFv0v6i/94S38AsK9ITlJWFpnG4J15xLHYm/njhJohRghD1MHrH58gtIczQpOyYNXf5f8gswbGtc3QRQVJNBAxq28lSQmhCxAUbvyd3XdAqt3OX/YPcUHAFOySEi6w6GB4X15GphNCEaN/Jn/c4D3Q6PVrlYkfwH8lQIDze0HPn6mG57mfkcm2eW4mOKB8UWB/h3dK5kz9HnhJCHaw7h/kTQvCajz4bR8TGbtGQHuLP+rHZK3kUWeMI79dyOR07vN9I17Lif/bL6yH4L1KD7u3kKUNJnpxdGN9lOdY8cqtiD+RmtDNWeFbcXxmbeXKL/XdmxQJfASqEN3j0oLt8xQH2NhWxpzFLPn1Rou7TVIQQR9KDeSXZUyQnmAnmvUVmTXgyXvIIsrMZG00Ness5FzUf5DeO4CKfHnQXFYsgWVK23GpYlnUSmcpRIgRmrGkya2LZVsUbqncN52fYLv8JuRXxuPe79HC+4pWp1ZarE6Hf97VRNiVZyc1Mxslbds17LqGyC7srinl9PpOPW9YeJT2iEWZa8QnXwmHme9BxrHeRWxEZVrIt8cPkFpgZj0Vy18pG0U4I1Oicnpb4nuxC55Le+eyDmWTsYVlGn9ZEitGbjG/YnHQ+3rfQuUjuUrEsW4vdKfXQTwjgWNZcy3EeY4nExoavtbatVdx2nhGO85Rj2RXDXC02J1krmUrRUogoyXlOyS2MVGGEKMdmSp4xVI4Rogzh8khuGWGEKGPPLhaJEErOfa12bEJHwjwGUQvTIzTBCKEJ00oIz/PWsxxfncuLlfF8bjE/5p3FXfcK4Ymn6SvTFiVjRHaB3W3FYoGe5DsBj9+bGuI3kleXbNK53bKd75DbMO/sMUJY3yQrMBZ3r5OV0ogIkvQQ/678neD8Ug4ZqTgQwvMCPQg9DJQIkd7JnyWzPlw8NzKQS3QMe4GO7FUjPcwf7xrIOZ4n7qWiuuSE+zUylaPs0q1s0v6CZccqnupYTLXQgI20eltiH0Dv6rAsz3+eKMo42ny3w3mm1umRgdJnwftTgzyyW1MrjYfZU1iHNSvRS24J3PUOdO1wC4+3R83FMsn4y45tnU1FgfG4uDc9nL8Jf64QmrILYvutmF3x8fmeEBs7B/NnkhsJSrOm9D4mT0queNh0dIdbOICDSrs10xI/NhkRJLZj3dCH3/e12NdQEdtVtPxyZot81Wdhq0J5+vroQK5ZCOGSO4YQb41f2dO7IP4aWu664z473LJiwor9sicZ9x/zv4ox1xJir/9ZEW4u17VoiI2SGxnKhbgNkcDz8p3k+pQE8NjYnfOnCv/MQiLvsZJj2kLwB5cpPPW+FpHkzJLyAVR4/CFm2ZeGcSYFd8UxyxYbbNteTUU+Uc0ZJOVJkvIeMQ7yfHk5VQFMwq4O63QWJ2Y1lYtgebxi0hAVkQmBPP/7/sTL5WuoSAlWnt8l19sxxAOd4qOKyIQYR17S5Q7kAp0ccLzI/VMdO/nN5GpF5EJIljE2MrZbwg18BnkjYFC+u2MgZy/dyQaoSDu0EGKc9LB3HyqtZOw4boT3aHqQfxWjcv3ZdYRoJYQEleaPHUy4V3DOt1FxYwgxIjzv23KfVWrQvZJKtSay9O1Epzx9Nfdright5hGGUowQmmCE0AQjhCYYITTBCKEJRghNMPMITTA9QhOMEJpghNAEI4QmGCE0YULWVE6jWVS95dXjRF2f6RGaYITQBNtM4HSAsf8B8SdEgTvDmyUAAAAASUVORK5CYII=;fontSize=10;" parent="1" vertex="1">
          <mxGeometry x="935" y="880" width="50" height="70" as="geometry" />
        </mxCell>
        <mxCell id="Xi7EQyzXXoAQUirJSp25-75" value="" style="shape=image;verticalLabelPosition=bottom;labelBackgroundColor=default;verticalAlign=top;aspect=fixed;imageAspect=0;image=data:image/png,iVBORw0KGgoAAAANSUhEUgAAAGIAAACXCAYAAADu+o6kAAAAAXNSR0IArs4c6QAAAARnQU1BAACxjwv8YQUAAAAJcEhZcwAAEnQAABJ0Ad5mH3gAAA2/SURBVHhe7Z17jFxVHcfPvXdmtqWtUeja0s62lO5jZrdWGqsQ0EAF1AbToDyCoBAVeYhGRaNiqBFrlIiBfyDhIUYBgzY8ohLkZQEjikWp4O7M7ra1dh99pC2l7bbbztxzj99z97fjzOw87mz3nnuWnk8ymd/vzMy9d873nN/5nfu09q1dIVhATlm3ySIzEI0suxIn0vpsejdEjBFCE4wQmjBhjGg0ThqmBtMjNMEIoQlGCE0wQhgMBoPBoDlm8hYR5RNpkzVpghFCE4wQmmCE0AQjhCYYITTBCKEJ5sBQRJh5hKYYITTBCKEJRghNmFaD9dKlS1uampq6hBDNlmU1o2i/53l78NrS39/fO/at6UF5vYcuRFtb28LNmzcPk9swXV1df0Slf4LcukCkTE9PzzJpjpU0Rnt7+1yIupfc0FCaNXV2dt6cSCR+Sm5gZGWk0+nHly1bJhoRQYLvd+J3XiqV2ohXOxUHJhaL3Yl130iuMsLsEXFUSE4a+Xx+VV9f30t+aRUg2h22bX+L3CkH4et5vH0yk8n421QJCLDacZynpY3vN9X67lQTWo9AxV5FpmxlD5BZEYSf0TBFkGD5F+J1jNyKIKzdR6bk8/SuhNCEwJ+6hkwZLloxVryf3BJaW1tX4PMZ5IYOWn1FweX2ocG0kCu3+bNkKiE0IdDFzyPTB2PF78kssGTJkuUzZsx4nVwlYLvuQG/9LbkFUP44mT4Q4sNkKkHZPAJ/bBGZPmiZi2fNmvUGuUpBiLoc63+FXB/0hqVkRoIyIYpZvHjxfLTA/5IbCVj/2ciqCuEzakLLmmTqSWYJnPPDqIRZ5GpNd3e3ssltaD0CFf4mmSVUEgED+0EyQwXrOUpmXaptf1iEpji6/acQd58gtyb40+eiknL4/t+oaMrBvOAjhw8f3jJnzpydVFQT13U/3dvb+yS5oRNq18P8YBiD9AJyqyL3F2Hy9F5pI6NZi8H0h/4HUwAq9D5U6A3SxgD9LHrkx/wPaoDtOYDteTe5Sgh1sB4ZGekisyao+GbMJ5qkjQpYd/To0RnoIf/yP5wkqMxtEGHuuAgAGtQXQZLL5drIVEaoQmzfvv3tQ4cOzUSl/oWKqoJ5xhoy2ZYtW4719PSsyOfzy6moIRDqLoCgp0OEfVQke9pFZNbijd27d8/B+veQrwxlWUG1LKqYSlkKwtvXEd7uIrcuEP12iHgLuQWCrP/gwYMnDwwM7Cc3VCbsBqf3UEFl3onK/Aa5NamVMmI567Gcy8gtgDD0MnpAyUy+mCAiSGRqnc1mZ5MbKkp3g4+DP1jYAVgPDKgXk1mC3C1RSQQJxphz8bsXyS0B2VuQkOQT5fxGiRBIS/2MKAiojCc7OjrmkCtxIMITcrcE+RXB784jMWJjJYwlk8mZWPdT5Aaivb09RaZSVIQmG6GBkx0Y9KKzjhw50oe8v+GYLbMlhKtmJABZKgoMfnsNBvmHyA0N5aEJoWEFmQ2BFv7qZESQoBfsnYwIEqz3Q2QqJXQhENcDhyVNiGR7QxcCsX0mmdMCNJxItteWsar4ReVTBmJ9oH07uoB5yA4ylRJ6j8Afm1ZCgF30rpTQhejr64v0AFCjINvaRKZSQhdiupHL5f5JplKUCIHwdIhM7dm6desgmUpRIgS6e+gTpKkAicURMpWj7CTkoDveikHFvJ3NZt9DbmDS6fRuTMwang9gVr0As2olyUV5vSsbIxCeAu/KRoUczufz50xGBAl+N08ey2gkFcV331IlQiWU9Yh58+bNam5uHiG3KghjD2cymavJPW7QO+5G77iJ3KpgkF7d39//DLnKUSaEpF54ggg/gAi3kVtMIpVKnYcKvRb2Gsx+/cOqEvSe/Zi9y13kj/T09MiTD7yxT/5PZ2fnVfjOI+RWROWpM5XQRghU6BsIDWeQW6Crq2snKnk+uXXBuPImQtOE82whxnqIUfF4hiRqIZTOI9Div0LmBMpFaGtrO0MK14gIEvSa5RBvr7xAhop80NOqHs/Adh0gMzKUCoHKuAeD4oRxAr3hEjJ9UJGbmpqaJj3DhXin4PdDWM4LVORTvp5xRkdHO8iMDKVCSBDH54yMjJxGrg8qbqV8lz2AesGEEDUZsJzzx5cpXfSWkjO80SjuliFp27Ztu6koMpSOEcUgmzkfFVNosagUKUBo6y5fPtxuNIr3kRs5ynvEOBhQ/4TK+Ci5svWG2gCKl48xoU8nESRKWn8tOjo6VsXj8Q3khg6yqvvRCK4nVxsiF0KCQfUYGmyC3FCJOk2tRmShqRiEiSa01J+TGwoIgxv37dun7XUZWrYOeZ11LBa7CxOwSV9QCGFfQuVfj/lJPxVpjZZCFIPs6jFkVxXz/0pAgBcxBlwAc8KuDp0oz1a1F6KY1tbWZCKROBem3Cs7Gz3mCDKgQxhfXkV4m9R5TFExrYV4J1EuhBaDtcEIoQ1GCE0wQmiCEUITItv7eqJjsiZNMUJoghFCE4wQmmCE0AQjhCYYITTBzCM0wfQITTBCaIIRQhNCHyN6WmKDXYNu4Q7DQeldYH+ZMWctizV2ErKECzHKPO9no8N83UrG8lQciN6FzrbUMF9CrjJC7RG9Lc46x7KT5AYim3R+3LsoIVgsds9kRJA4ljXTcZy1sxclcplkbMJdj2viOKdlW+zvkaeMUIXgXmM3XkdrvMyynQl3HzsebNu+PIMGATNwT/c89ETFhCZEN2MJxwl28/X1+K7fCxwH5tRjW86tWL732lx2KhXVRG53P2OFq5JUENqcYetc1p4/KdEnbeHyNekd/A/+B2X0zWdpNx7vRjhRkzh47rWpIe9B8kroOZVd7MQT/r1e7Vyuq30Xy/gfKCA0IfwWXoTnuVd2DnmPksv6FtpfEk7sfnKVIzzvhfSQeyG5LLPQuch2nJK7naUGcsomt8rSV9tzfkWmT5QiSCzblmcDFsBY0tigPsUoEwIZUByp7JA0/72ANZzOhkFv0v6i/94S38AsK9ITlJWFpnG4J15xLHYm/njhJohRghD1MHrH58gtIczQpOyYNXf5f8gswbGtc3QRQVJNBAxq28lSQmhCxAUbvyd3XdAqt3OX/YPcUHAFOySEi6w6GB4X15GphNCEaN/Jn/c4D3Q6PVrlYkfwH8lQIDze0HPn6mG57mfkcm2eW4mOKB8UWB/h3dK5kz9HnhJCHaw7h/kTQvCajz4bR8TGbtGQHuLP+rHZK3kUWeMI79dyOR07vN9I17Lif/bL6yH4L1KD7u3kKUNJnpxdGN9lOdY8cqtiD+RmtDNWeFbcXxmbeXKL/XdmxQJfASqEN3j0oLt8xQH2NhWxpzFLPn1Rou7TVIQQR9KDeSXZUyQnmAnmvUVmTXgyXvIIsrMZG00Ness5FzUf5DeO4CKfHnQXFYsgWVK23GpYlnUSmcpRIgRmrGkya2LZVsUbqncN52fYLv8JuRXxuPe79HC+4pWp1ZarE6Hf97VRNiVZyc1Mxslbds17LqGyC7srinl9PpOPW9YeJT2iEWZa8QnXwmHme9BxrHeRWxEZVrIt8cPkFpgZj0Vy18pG0U4I1Oicnpb4nuxC55Le+eyDmWTsYVlGn9ZEitGbjG/YnHQ+3rfQuUjuUrEsW4vdKfXQTwjgWNZcy3EeY4nExoavtbatVdx2nhGO85Rj2RXDXC02J1krmUrRUogoyXlOyS2MVGGEKMdmSp4xVI4Rogzh8khuGWGEKGPPLhaJEErOfa12bEJHwjwGUQvTIzTBCKEJ00oIz/PWsxxfncuLlfF8bjE/5p3FXfcK4Ymn6SvTFiVjRHaB3W3FYoGe5DsBj9+bGuI3kleXbNK53bKd75DbMO/sMUJY3yQrMBZ3r5OV0ogIkvQQ/678neD8Ug4ZqTgQwvMCPQg9DJQIkd7JnyWzPlw8NzKQS3QMe4GO7FUjPcwf7xrIOZ4n7qWiuuSE+zUylaPs0q1s0v6CZccqnupYTLXQgI20eltiH0Dv6rAsz3+eKMo42ny3w3mm1umRgdJnwftTgzyyW1MrjYfZU1iHNSvRS24J3PUOdO1wC4+3R83FMsn4y45tnU1FgfG4uDc9nL8Jf64QmrILYvutmF3x8fmeEBs7B/NnkhsJSrOm9D4mT0queNh0dIdbOICDSrs10xI/NhkRJLZj3dCH3/e12NdQEdtVtPxyZot81Wdhq0J5+vroQK5ZCOGSO4YQb41f2dO7IP4aWu664z473LJiwor9sicZ9x/zv4ox1xJir/9ZEW4u17VoiI2SGxnKhbgNkcDz8p3k+pQE8NjYnfOnCv/MQiLvsZJj2kLwB5cpPPW+FpHkzJLyAVR4/CFm2ZeGcSYFd8UxyxYbbNteTUU+Uc0ZJOVJkvIeMQ7yfHk5VQFMwq4O63QWJ2Y1lYtgebxi0hAVkQmBPP/7/sTL5WuoSAlWnt8l19sxxAOd4qOKyIQYR17S5Q7kAp0ccLzI/VMdO/nN5GpF5EJIljE2MrZbwg18BnkjYFC+u2MgZy/dyQaoSDu0EGKc9LB3HyqtZOw4boT3aHqQfxWjcv3ZdYRoJYQEleaPHUy4V3DOt1FxYwgxIjzv23KfVWrQvZJKtSay9O1Epzx9Nfdright5hGGUowQmmCE0AQjhCYYITTBCKEJRghNMPMITTA9QhOMEJpghNAEI4QmGCE0YULWVE6jWVS95dXjRF2f6RGaYITQBNtM4HSAsf8B8SdEgTvDmyUAAAAASUVORK5CYII=;fontSize=10;" parent="1" vertex="1">
          <mxGeometry x="935" y="740" width="50" height="70" as="geometry" />
        </mxCell>
        <mxCell id="I61C3vhwZAGCl9E8paak-9" value="&lt;font size=&quot;1&quot; style=&quot;&quot; face=&quot;Times New Roman&quot;&gt;&lt;b style=&quot;font-size: 40px;&quot;&gt;Malware Classification Model&lt;/b&gt;&lt;/font&gt;" style="text;html=1;align=center;verticalAlign=middle;resizable=0;points=[];autosize=1;strokeColor=none;fillColor=none;" parent="1" vertex="1">
          <mxGeometry x="270" y="780" width="540" height="60" as="geometry" />
        </mxCell>
        <mxCell id="CTRBdmPqS8U7lPE7k4PG-11" value="" style="shape=image;verticalLabelPosition=bottom;labelBackgroundColor=default;verticalAlign=top;aspect=fixed;imageAspect=0;image=data:image/png,iVBORw0KGgoAAAANSUhEUgAAAMgAAADICAYAAACtWK6eAAAAAXNSR0IArs4c6QAADS9JREFUeF7tnUF22zYQhodKr1BVWdU5SeyTpFqmej1D6jP0uV1aOUnUk4RdlXWvUEkNKMpRaEoCQMxghvi1Sd4zAIL/4OPMACBYEX6iCvz9x+Lm1Y5u90Q3FdGPRHRLRDdEVFNFdduZPdV7or8qorraUf3fd1S/ft8c/oafqAKV6NUKuti/vy1u9zO6GQAhXoWKNkd4ZjvaAJx4KX1rAhBfpa6Ue3pY/NTCUNFb2rdeQebnoDl4nY/bGW3gadLKDkBG6OmgIKK3J2HSiNYSVj14GgCTQFIAEiCiWiAu3QNgCbDwy6IAxEO+p4fF45ck2nkL2z/AEmw/AHJGsi7JfjcJMIbvcb2d0T1ylsvMAJCePm0YVdE70UQ7+LmWsEJFm2pL99//0hySffy+UQCAdHL887D4tSJyHsOtSZT3AyiDNi8ekA6MD+URceaOAQo8iFOgzTFe0YdiQqnwJwByFCIq0oNMZlYqfNCH1nDbW+7nq2YdWnEq5YsCpJuZclO2ZeYZsaO2os22omWJM17FAPL0++ITwqlYQtp6buPksrTZrskD0u2e/TxqaKDyswJ7ovsfVs2vpUgyaUC6kOpTKcYUvM9iEvjJAgI4mHEpJC+ZJCCAgxmOr83X2xndTTl5nxwggEMMjuOFJg3JpADptqO7aVz8ZBWYLCSTAQRwyBIxcLVJQjIJQDCVmx2OtgNTnAKeBCBYBNQByBQhMQ8IduPqgePYk2pHd1NZcTcNiLHQym38a19KcmdeuX/duVenw/v5VJRDIbdfzOqescnkI6YBeXpYuC0kWgeR2wH759ijeNy0dcvLYWu+GWimko+YBURpaLWudvSRM7xwwOxmdNudv6UamCmEWiYBURVadSeF5Hpnopvedm9EavSk5kMtk4AoeeFJ1fZvraBYD7XMAaLBe2g2usaXwrYzemN1v5Y5QLLmHoZ2sGo6pUXzA+XaJLkpQLJ6j4o285+bu2uCavq7Jm9i1YuYAiSj91jPV81S0+D37Uv7UNnTY+7Xja16EVOAPD0s9r4DI1U5q4bt33/Gh8tzVyx6ETOAZDKwWc8x9IDIpOFzVyw+bMwAIr5qbjDn8PGaWTd2GtTUBCAZkvN6vmre+Aw4i2XEHzYnIlkLs0wAIv0a7RS2SFwCt3vguNNecqy+mwpbTQAiGTtbjJNjvFjONzAteRETgEjGzfNVY0KTGCj6dXKFWpY8tPrBIJl/lOI9jqBIh67H61rSGYB8faxOOjE/53GybPw0NJulHhCp/MPSUy1FeHVsI1fCbiUPUQ+IVP5RUu4xkIvk+IrvMtc7NCEPGP2ACGwvKdV7ZM5FTEz3qgZEMEE38TQLefKFlhWf0TKShwAQoiKTcw1hloU8pHhASg+vcoZZFtZDVAPijMe9xd3CUyw0XIotLx5mEakPbS0Awnn2FcKrE5oyrImoT9T1A8L48U0LLj7WG8TUk1pzOukbAIkx1GkdRqPBe/SMI76B0cBMlnoP0uUhycMseI+Xj64ce7O0L9CaACS5FzHw5BrreWPrc0+K9PulfZLEBCCJvQhCqwv0SM9kAZDYR1mvXqpNdQitLhtEau/bsRcAJBEgx2a6qUj3SYDg10UBx3VjSE/1Ige5bpPgEl0y+e7LB2n8QKloU23pnvOzBME3obSCMCDqw10zOci58TTwvQxX1HmXmiqqaU8fLWyr1sKLcIgFQLQYHv3wUwCAfKuTeQ/iZ3aU8lVAeJoXK+m+hkE5HQpIAmJhJzU8iI5xqaIXgi+otfdrYVYRgKgYmjo6Ib3VRPsUbwuxDtOgFxoUSL6l5/JNqZ/BAiAaRqWiPiD/eGkMeBBFAzRnV6TzDwsJOjxIzhGp7NrC4RVZyD8AiLJBmqs70t7D7XKw8v0VhFi5RqWi60p7DyvhFTyIokGaqyvwHpeVhwfJNTKVXFd49y5Z8h7wIEoGaa5uiB/SQETaX5Dq2wIeJNfozHxd6VXz9nYNngUAQDIP1ByXzwKHQe+BECvH6Mx8zVxwWMs9jmaCB8k8YCUvLz2de3JvZtY9kINIjkhF1xJ+U/CbO7fqPRBiKRrAXF3pQir3ibXgU2AS9cms9wAgiUaA1mak1zgGdKi3M7p7/b6ptWp0rV/IQa4pZPDvCrzGYVZ3R3fWj1oCIAYBuNTlnLlGr1/qD2TwMT0A8VHJQJlc07eD0hhcEDxnYgBiYPBf62LG6duhrplOyjHNe220Gfu7opDKKWc+KQcgxgA41912m/qeHmnfnk+s4VdXO1paT8oBiIahNLIPgGOkgAHVkYMEiKWhaIYXnK7d9iQ9x/GmAcg18yv6u6qZqoMuk4bD3SAAUQTApa6og2NCU7mXdAcgBgBRF1YVAgc8COAIVsDyztzgm0WIFSOZXB1ts1VT2FsVaj2EWKGKCZZXtAg4+WT8nFkBiOCAD7mUGjgKyjeG7ANAQkatUFkte6tKDKn6JgYgQoPe9zJKpnOLDakAiO9IzVBOxXRu4SEVAMkw8H0vmTvvQEj10lIIsXxHL3O5HMeAPt9SRZtqS/dT24mbwmQAJIWKI9vIGlohpLpoPQAycnCnqJ4rtEJIdd16AOS6RqwlMk3pYpbK06oAxFMojmKZQqvJvRbLYZtjmwCEU90rbYuHVsg3gq0NQIIlS1NBfEEQcEQZDoBEyTa+0tPDYj++Fc8WAIenUFgHiRYqZUXhxHxS51SltINPW/AgPiolLCOcmCMhH2k7ADJSwNDqwon5cr5q1qF9RPmvCgAQwdEgmpgj70hiWQCSREa/Rp4eFp+lPmRj7XPLfgrKlwIgQppLeo/SDlbgNCEA4VT3pG3Jrz3NVw3smsiuEDKRkJeakZy5gvdIa1AAklbPwdYk1z2Qe6Q1KABJq+dga4LJORYFE9sTgCQWtN+cZHhFRFj3SGxPAJJY0H5zguEVvAeDLQEIg6inTUqtnCM55zEkAOHR9blVqV27eH2Wx5AAhEfXtlXB/APhFZMdAQiTsK5ZsfwD+67YrAhA2KSVAwT5B58RAQiftiSVoGNxkM+IAIRPWxJK0JF/MNoQgDCJK5igr+erZsl0G8U3C0CYhoDUWbvIP5gM2DULQJj0lZrBwvoHkwEBCK+wUgk63v3gtSM8CJO+QoAgQWey37FZAMIksMgMFhYImaz3tVkAwiCx1AwWEnQG4/WaBCAMGksBgvc/GIwHQPhFlZrixQwWvy3hQRg0lprixQwWg/HgQfhFBSD8GktdAR6EQWmhM7Awxctgu36TAIRBZJE1EEzxMljuZZMAhEFmEUCIsEmRwXbwIAKiSpyDhTUQAUMSETwIg84Sq+gAhMFwA00CEAadAQiDqJmaBCAMwkuEWFgkZDAcPIiMqBKA4D10GVvCgzDoLDGLhVV0BsPBg8iIKrBQiEVCGVNiFotDZ+7NipjB4rDacJsIsRi05t7ujvyDwWhnmgQgTFqz5SHYYsJkMXgQUWG5wix4D1EzIgfhlDv1tnfkHpzWggeRV5fIHT/6mYhuRl8codVoCWMaQA4So1pAnS5h/zQKEsARoHjaogAkrZ5nW+tykg8RoODDnEI2GroMABEW/9/fFrf7Gb0jotsLsKyJ6M/5qnH/4pdRAQCSUfzjpV0Y5v7/+n1TK+gOunCiAADBcIACFxQAIBgeUACAYAxAgTgF4EHidEOtQhQAIIUYGrcZpwAAidMNtQpRAIAUYmjcZpwCACRON9QqRAEAUoihcZtxCgCQON1QqxAFAIgCQ2OriQIjnOkCABG2Tber9+2FzYo1VVTTnj5uZ7TB/ixhA/UuB0CE9B+x3X29ndE9QBEyFACRFbrb3v4Y8R7INx11r9vuZrQGKLL2gwdh1Dv1O+lU0WZb0RKQMBoNHkRGXLZjf4jq7YzuAImMHeFBGHRO7jle9hGQMNhtqEkAkljoLudwhzRw/5C8cyuML0ylV1ji4znHXuOcrPT267cID5JQY4HQqt9bhFoJ7YcQi1FM7gOrz3UdXoTRqAix0ombwXscOo9D5dIZcaAlhFiJ5BX4aM7ZnuJA60RGBCB8Qkom5wN3gdMXmUwLD5JA2Fz5x0nX1/NVs0xwK2iipwAASTAkBNc+zvUWgCSwI2axmETk+liOd3eRqHtLFVoQHiRUsYHy2T0IAElgxeEmAEgCabMDQoQQK4EdEWIxiZg7ScdiIZNhsVCYTthkn1qL6BIAiRDNswpCLE+hrhXLuVA4XzWw4zUDRf4dwkYK16+WcSarnq+aN4luA81gHYRvDOQIsxBe8dnTtQwPklDfDBsW4T0S2g+zWMxiuuYlvUi1o7vvf2k2ArdV7CXgQRKbPsl30f36hLUPP51GlQIgo+QbrsweamHlnMFqw00CECapO0jc99DbTzwn+wGOZFL6NARAfFSKLJPqVMXnywOOSEvEVwMg8dp51Wxzkj090p5uvSoMF6qrHS2RkI9QMLIqAIkULrRa601e0QfatyGXd9iFdY5QpdOWByBp9fRq7RkWV/oAjPu5f+svn0Vop21xoruXlOyF/gcliq4UyGWa4gAAAABJRU5ErkJggg==;" parent="1" vertex="1">
          <mxGeometry x="985" y="310.75" width="28.5" height="28.5" as="geometry" />
        </mxCell>
        <mxCell id="CTRBdmPqS8U7lPE7k4PG-12" value="" style="shape=image;verticalLabelPosition=bottom;labelBackgroundColor=default;verticalAlign=top;aspect=fixed;imageAspect=0;image=data:image/png,iVBORw0KGgoAAAANSUhEUgAAAMgAAADICAYAAACtWK6eAAAAAXNSR0IArs4c6QAADS9JREFUeF7tnUF22zYQhodKr1BVWdU5SeyTpFqmej1D6jP0uV1aOUnUk4RdlXWvUEkNKMpRaEoCQMxghvi1Sd4zAIL/4OPMACBYEX6iCvz9x+Lm1Y5u90Q3FdGPRHRLRDdEVFNFdduZPdV7or8qorraUf3fd1S/ft8c/oafqAKV6NUKuti/vy1u9zO6GQAhXoWKNkd4ZjvaAJx4KX1rAhBfpa6Ue3pY/NTCUNFb2rdeQebnoDl4nY/bGW3gadLKDkBG6OmgIKK3J2HSiNYSVj14GgCTQFIAEiCiWiAu3QNgCbDwy6IAxEO+p4fF45ck2nkL2z/AEmw/AHJGsi7JfjcJMIbvcb2d0T1ylsvMAJCePm0YVdE70UQ7+LmWsEJFm2pL99//0hySffy+UQCAdHL887D4tSJyHsOtSZT3AyiDNi8ekA6MD+URceaOAQo8iFOgzTFe0YdiQqnwJwByFCIq0oNMZlYqfNCH1nDbW+7nq2YdWnEq5YsCpJuZclO2ZeYZsaO2os22omWJM17FAPL0++ITwqlYQtp6buPksrTZrskD0u2e/TxqaKDyswJ7ovsfVs2vpUgyaUC6kOpTKcYUvM9iEvjJAgI4mHEpJC+ZJCCAgxmOr83X2xndTTl5nxwggEMMjuOFJg3JpADptqO7aVz8ZBWYLCSTAQRwyBIxcLVJQjIJQDCVmx2OtgNTnAKeBCBYBNQByBQhMQ8IduPqgePYk2pHd1NZcTcNiLHQym38a19KcmdeuX/duVenw/v5VJRDIbdfzOqescnkI6YBeXpYuC0kWgeR2wH759ijeNy0dcvLYWu+GWimko+YBURpaLWudvSRM7xwwOxmdNudv6UamCmEWiYBURVadSeF5Hpnopvedm9EavSk5kMtk4AoeeFJ1fZvraBYD7XMAaLBe2g2usaXwrYzemN1v5Y5QLLmHoZ2sGo6pUXzA+XaJLkpQLJ6j4o285+bu2uCavq7Jm9i1YuYAiSj91jPV81S0+D37Uv7UNnTY+7Xja16EVOAPD0s9r4DI1U5q4bt33/Gh8tzVyx6ETOAZDKwWc8x9IDIpOFzVyw+bMwAIr5qbjDn8PGaWTd2GtTUBCAZkvN6vmre+Aw4i2XEHzYnIlkLs0wAIv0a7RS2SFwCt3vguNNecqy+mwpbTQAiGTtbjJNjvFjONzAteRETgEjGzfNVY0KTGCj6dXKFWpY8tPrBIJl/lOI9jqBIh67H61rSGYB8faxOOjE/53GybPw0NJulHhCp/MPSUy1FeHVsI1fCbiUPUQ+IVP5RUu4xkIvk+IrvMtc7NCEPGP2ACGwvKdV7ZM5FTEz3qgZEMEE38TQLefKFlhWf0TKShwAQoiKTcw1hloU8pHhASg+vcoZZFtZDVAPijMe9xd3CUyw0XIotLx5mEakPbS0Awnn2FcKrE5oyrImoT9T1A8L48U0LLj7WG8TUk1pzOukbAIkx1GkdRqPBe/SMI76B0cBMlnoP0uUhycMseI+Xj64ce7O0L9CaACS5FzHw5BrreWPrc0+K9PulfZLEBCCJvQhCqwv0SM9kAZDYR1mvXqpNdQitLhtEau/bsRcAJBEgx2a6qUj3SYDg10UBx3VjSE/1Ige5bpPgEl0y+e7LB2n8QKloU23pnvOzBME3obSCMCDqw10zOci58TTwvQxX1HmXmiqqaU8fLWyr1sKLcIgFQLQYHv3wUwCAfKuTeQ/iZ3aU8lVAeJoXK+m+hkE5HQpIAmJhJzU8iI5xqaIXgi+otfdrYVYRgKgYmjo6Ib3VRPsUbwuxDtOgFxoUSL6l5/JNqZ/BAiAaRqWiPiD/eGkMeBBFAzRnV6TzDwsJOjxIzhGp7NrC4RVZyD8AiLJBmqs70t7D7XKw8v0VhFi5RqWi60p7DyvhFTyIokGaqyvwHpeVhwfJNTKVXFd49y5Z8h7wIEoGaa5uiB/SQETaX5Dq2wIeJNfozHxd6VXz9nYNngUAQDIP1ByXzwKHQe+BECvH6Mx8zVxwWMs9jmaCB8k8YCUvLz2de3JvZtY9kINIjkhF1xJ+U/CbO7fqPRBiKRrAXF3pQir3ibXgU2AS9cms9wAgiUaA1mak1zgGdKi3M7p7/b6ptWp0rV/IQa4pZPDvCrzGYVZ3R3fWj1oCIAYBuNTlnLlGr1/qD2TwMT0A8VHJQJlc07eD0hhcEDxnYgBiYPBf62LG6duhrplOyjHNe220Gfu7opDKKWc+KQcgxgA41912m/qeHmnfnk+s4VdXO1paT8oBiIahNLIPgGOkgAHVkYMEiKWhaIYXnK7d9iQ9x/GmAcg18yv6u6qZqoMuk4bD3SAAUQTApa6og2NCU7mXdAcgBgBRF1YVAgc8COAIVsDyztzgm0WIFSOZXB1ts1VT2FsVaj2EWKGKCZZXtAg4+WT8nFkBiOCAD7mUGjgKyjeG7ANAQkatUFkte6tKDKn6JgYgQoPe9zJKpnOLDakAiO9IzVBOxXRu4SEVAMkw8H0vmTvvQEj10lIIsXxHL3O5HMeAPt9SRZtqS/dT24mbwmQAJIWKI9vIGlohpLpoPQAycnCnqJ4rtEJIdd16AOS6RqwlMk3pYpbK06oAxFMojmKZQqvJvRbLYZtjmwCEU90rbYuHVsg3gq0NQIIlS1NBfEEQcEQZDoBEyTa+0tPDYj++Fc8WAIenUFgHiRYqZUXhxHxS51SltINPW/AgPiolLCOcmCMhH2k7ADJSwNDqwon5cr5q1qF9RPmvCgAQwdEgmpgj70hiWQCSREa/Rp4eFp+lPmRj7XPLfgrKlwIgQppLeo/SDlbgNCEA4VT3pG3Jrz3NVw3smsiuEDKRkJeakZy5gvdIa1AAklbPwdYk1z2Qe6Q1KABJq+dga4LJORYFE9sTgCQWtN+cZHhFRFj3SGxPAJJY0H5zguEVvAeDLQEIg6inTUqtnCM55zEkAOHR9blVqV27eH2Wx5AAhEfXtlXB/APhFZMdAQiTsK5ZsfwD+67YrAhA2KSVAwT5B58RAQiftiSVoGNxkM+IAIRPWxJK0JF/MNoQgDCJK5igr+erZsl0G8U3C0CYhoDUWbvIP5gM2DULQJj0lZrBwvoHkwEBCK+wUgk63v3gtSM8CJO+QoAgQWey37FZAMIksMgMFhYImaz3tVkAwiCx1AwWEnQG4/WaBCAMGksBgvc/GIwHQPhFlZrixQwWvy3hQRg0lprixQwWg/HgQfhFBSD8GktdAR6EQWmhM7Awxctgu36TAIRBZJE1EEzxMljuZZMAhEFmEUCIsEmRwXbwIAKiSpyDhTUQAUMSETwIg84Sq+gAhMFwA00CEAadAQiDqJmaBCAMwkuEWFgkZDAcPIiMqBKA4D10GVvCgzDoLDGLhVV0BsPBg8iIKrBQiEVCGVNiFotDZ+7NipjB4rDacJsIsRi05t7ujvyDwWhnmgQgTFqz5SHYYsJkMXgQUWG5wix4D1EzIgfhlDv1tnfkHpzWggeRV5fIHT/6mYhuRl8codVoCWMaQA4So1pAnS5h/zQKEsARoHjaogAkrZ5nW+tykg8RoODDnEI2GroMABEW/9/fFrf7Gb0jotsLsKyJ6M/5qnH/4pdRAQCSUfzjpV0Y5v7/+n1TK+gOunCiAADBcIACFxQAIBgeUACAYAxAgTgF4EHidEOtQhQAIIUYGrcZpwAAidMNtQpRAIAUYmjcZpwCACRON9QqRAEAUoihcZtxCgCQON1QqxAFAIgCQ2OriQIjnOkCABG2Tber9+2FzYo1VVTTnj5uZ7TB/ixhA/UuB0CE9B+x3X29ndE9QBEyFACRFbrb3v4Y8R7INx11r9vuZrQGKLL2gwdh1Dv1O+lU0WZb0RKQMBoNHkRGXLZjf4jq7YzuAImMHeFBGHRO7jle9hGQMNhtqEkAkljoLudwhzRw/5C8cyuML0ylV1ji4znHXuOcrPT267cID5JQY4HQqt9bhFoJ7YcQi1FM7gOrz3UdXoTRqAix0ombwXscOo9D5dIZcaAlhFiJ5BX4aM7ZnuJA60RGBCB8Qkom5wN3gdMXmUwLD5JA2Fz5x0nX1/NVs0xwK2iipwAASTAkBNc+zvUWgCSwI2axmETk+liOd3eRqHtLFVoQHiRUsYHy2T0IAElgxeEmAEgCabMDQoQQK4EdEWIxiZg7ScdiIZNhsVCYTthkn1qL6BIAiRDNswpCLE+hrhXLuVA4XzWw4zUDRf4dwkYK16+WcSarnq+aN4luA81gHYRvDOQIsxBe8dnTtQwPklDfDBsW4T0S2g+zWMxiuuYlvUi1o7vvf2k2ArdV7CXgQRKbPsl30f36hLUPP51GlQIgo+QbrsweamHlnMFqw00CECapO0jc99DbTzwn+wGOZFL6NARAfFSKLJPqVMXnywOOSEvEVwMg8dp51Wxzkj090p5uvSoMF6qrHS2RkI9QMLIqAIkULrRa601e0QfatyGXd9iFdY5QpdOWByBp9fRq7RkWV/oAjPu5f+svn0Vop21xoruXlOyF/gcliq4UyGWa4gAAAABJRU5ErkJggg==;" parent="1" vertex="1">
          <mxGeometry x="985" y="760.75" width="28.5" height="28.5" as="geometry" />
        </mxCell>
        <mxCell id="CTRBdmPqS8U7lPE7k4PG-13" value="" style="shape=image;verticalLabelPosition=bottom;labelBackgroundColor=default;verticalAlign=top;aspect=fixed;imageAspect=0;image=data:image/png,iVBORw0KGgoAAAANSUhEUgAAAMgAAADICAYAAACtWK6eAAAAAXNSR0IArs4c6QAADS9JREFUeF7tnUF22zYQhodKr1BVWdU5SeyTpFqmej1D6jP0uV1aOUnUk4RdlXWvUEkNKMpRaEoCQMxghvi1Sd4zAIL/4OPMACBYEX6iCvz9x+Lm1Y5u90Q3FdGPRHRLRDdEVFNFdduZPdV7or8qorraUf3fd1S/ft8c/oafqAKV6NUKuti/vy1u9zO6GQAhXoWKNkd4ZjvaAJx4KX1rAhBfpa6Ue3pY/NTCUNFb2rdeQebnoDl4nY/bGW3gadLKDkBG6OmgIKK3J2HSiNYSVj14GgCTQFIAEiCiWiAu3QNgCbDwy6IAxEO+p4fF45ck2nkL2z/AEmw/AHJGsi7JfjcJMIbvcb2d0T1ylsvMAJCePm0YVdE70UQ7+LmWsEJFm2pL99//0hySffy+UQCAdHL887D4tSJyHsOtSZT3AyiDNi8ekA6MD+URceaOAQo8iFOgzTFe0YdiQqnwJwByFCIq0oNMZlYqfNCH1nDbW+7nq2YdWnEq5YsCpJuZclO2ZeYZsaO2os22omWJM17FAPL0++ITwqlYQtp6buPksrTZrskD0u2e/TxqaKDyswJ7ovsfVs2vpUgyaUC6kOpTKcYUvM9iEvjJAgI4mHEpJC+ZJCCAgxmOr83X2xndTTl5nxwggEMMjuOFJg3JpADptqO7aVz8ZBWYLCSTAQRwyBIxcLVJQjIJQDCVmx2OtgNTnAKeBCBYBNQByBQhMQ8IduPqgePYk2pHd1NZcTcNiLHQym38a19KcmdeuX/duVenw/v5VJRDIbdfzOqescnkI6YBeXpYuC0kWgeR2wH759ijeNy0dcvLYWu+GWimko+YBURpaLWudvSRM7xwwOxmdNudv6UamCmEWiYBURVadSeF5Hpnopvedm9EavSk5kMtk4AoeeFJ1fZvraBYD7XMAaLBe2g2usaXwrYzemN1v5Y5QLLmHoZ2sGo6pUXzA+XaJLkpQLJ6j4o285+bu2uCavq7Jm9i1YuYAiSj91jPV81S0+D37Uv7UNnTY+7Xja16EVOAPD0s9r4DI1U5q4bt33/Gh8tzVyx6ETOAZDKwWc8x9IDIpOFzVyw+bMwAIr5qbjDn8PGaWTd2GtTUBCAZkvN6vmre+Aw4i2XEHzYnIlkLs0wAIv0a7RS2SFwCt3vguNNecqy+mwpbTQAiGTtbjJNjvFjONzAteRETgEjGzfNVY0KTGCj6dXKFWpY8tPrBIJl/lOI9jqBIh67H61rSGYB8faxOOjE/53GybPw0NJulHhCp/MPSUy1FeHVsI1fCbiUPUQ+IVP5RUu4xkIvk+IrvMtc7NCEPGP2ACGwvKdV7ZM5FTEz3qgZEMEE38TQLefKFlhWf0TKShwAQoiKTcw1hloU8pHhASg+vcoZZFtZDVAPijMe9xd3CUyw0XIotLx5mEakPbS0Awnn2FcKrE5oyrImoT9T1A8L48U0LLj7WG8TUk1pzOukbAIkx1GkdRqPBe/SMI76B0cBMlnoP0uUhycMseI+Xj64ce7O0L9CaACS5FzHw5BrreWPrc0+K9PulfZLEBCCJvQhCqwv0SM9kAZDYR1mvXqpNdQitLhtEau/bsRcAJBEgx2a6qUj3SYDg10UBx3VjSE/1Ige5bpPgEl0y+e7LB2n8QKloU23pnvOzBME3obSCMCDqw10zOci58TTwvQxX1HmXmiqqaU8fLWyr1sKLcIgFQLQYHv3wUwCAfKuTeQ/iZ3aU8lVAeJoXK+m+hkE5HQpIAmJhJzU8iI5xqaIXgi+otfdrYVYRgKgYmjo6Ib3VRPsUbwuxDtOgFxoUSL6l5/JNqZ/BAiAaRqWiPiD/eGkMeBBFAzRnV6TzDwsJOjxIzhGp7NrC4RVZyD8AiLJBmqs70t7D7XKw8v0VhFi5RqWi60p7DyvhFTyIokGaqyvwHpeVhwfJNTKVXFd49y5Z8h7wIEoGaa5uiB/SQETaX5Dq2wIeJNfozHxd6VXz9nYNngUAQDIP1ByXzwKHQe+BECvH6Mx8zVxwWMs9jmaCB8k8YCUvLz2de3JvZtY9kINIjkhF1xJ+U/CbO7fqPRBiKRrAXF3pQir3ibXgU2AS9cms9wAgiUaA1mak1zgGdKi3M7p7/b6ptWp0rV/IQa4pZPDvCrzGYVZ3R3fWj1oCIAYBuNTlnLlGr1/qD2TwMT0A8VHJQJlc07eD0hhcEDxnYgBiYPBf62LG6duhrplOyjHNe220Gfu7opDKKWc+KQcgxgA41912m/qeHmnfnk+s4VdXO1paT8oBiIahNLIPgGOkgAHVkYMEiKWhaIYXnK7d9iQ9x/GmAcg18yv6u6qZqoMuk4bD3SAAUQTApa6og2NCU7mXdAcgBgBRF1YVAgc8COAIVsDyztzgm0WIFSOZXB1ts1VT2FsVaj2EWKGKCZZXtAg4+WT8nFkBiOCAD7mUGjgKyjeG7ANAQkatUFkte6tKDKn6JgYgQoPe9zJKpnOLDakAiO9IzVBOxXRu4SEVAMkw8H0vmTvvQEj10lIIsXxHL3O5HMeAPt9SRZtqS/dT24mbwmQAJIWKI9vIGlohpLpoPQAycnCnqJ4rtEJIdd16AOS6RqwlMk3pYpbK06oAxFMojmKZQqvJvRbLYZtjmwCEU90rbYuHVsg3gq0NQIIlS1NBfEEQcEQZDoBEyTa+0tPDYj++Fc8WAIenUFgHiRYqZUXhxHxS51SltINPW/AgPiolLCOcmCMhH2k7ADJSwNDqwon5cr5q1qF9RPmvCgAQwdEgmpgj70hiWQCSREa/Rp4eFp+lPmRj7XPLfgrKlwIgQppLeo/SDlbgNCEA4VT3pG3Jrz3NVw3smsiuEDKRkJeakZy5gvdIa1AAklbPwdYk1z2Qe6Q1KABJq+dga4LJORYFE9sTgCQWtN+cZHhFRFj3SGxPAJJY0H5zguEVvAeDLQEIg6inTUqtnCM55zEkAOHR9blVqV27eH2Wx5AAhEfXtlXB/APhFZMdAQiTsK5ZsfwD+67YrAhA2KSVAwT5B58RAQiftiSVoGNxkM+IAIRPWxJK0JF/MNoQgDCJK5igr+erZsl0G8U3C0CYhoDUWbvIP5gM2DULQJj0lZrBwvoHkwEBCK+wUgk63v3gtSM8CJO+QoAgQWey37FZAMIksMgMFhYImaz3tVkAwiCx1AwWEnQG4/WaBCAMGksBgvc/GIwHQPhFlZrixQwWvy3hQRg0lprixQwWg/HgQfhFBSD8GktdAR6EQWmhM7Awxctgu36TAIRBZJE1EEzxMljuZZMAhEFmEUCIsEmRwXbwIAKiSpyDhTUQAUMSETwIg84Sq+gAhMFwA00CEAadAQiDqJmaBCAMwkuEWFgkZDAcPIiMqBKA4D10GVvCgzDoLDGLhVV0BsPBg8iIKrBQiEVCGVNiFotDZ+7NipjB4rDacJsIsRi05t7ujvyDwWhnmgQgTFqz5SHYYsJkMXgQUWG5wix4D1EzIgfhlDv1tnfkHpzWggeRV5fIHT/6mYhuRl8codVoCWMaQA4So1pAnS5h/zQKEsARoHjaogAkrZ5nW+tykg8RoODDnEI2GroMABEW/9/fFrf7Gb0jotsLsKyJ6M/5qnH/4pdRAQCSUfzjpV0Y5v7/+n1TK+gOunCiAADBcIACFxQAIBgeUACAYAxAgTgF4EHidEOtQhQAIIUYGrcZpwAAidMNtQpRAIAUYmjcZpwCACRON9QqRAEAUoihcZtxCgCQON1QqxAFAIgCQ2OriQIjnOkCABG2Tber9+2FzYo1VVTTnj5uZ7TB/ixhA/UuB0CE9B+x3X29ndE9QBEyFACRFbrb3v4Y8R7INx11r9vuZrQGKLL2gwdh1Dv1O+lU0WZb0RKQMBoNHkRGXLZjf4jq7YzuAImMHeFBGHRO7jle9hGQMNhtqEkAkljoLudwhzRw/5C8cyuML0ylV1ji4znHXuOcrPT267cID5JQY4HQqt9bhFoJ7YcQi1FM7gOrz3UdXoTRqAix0ombwXscOo9D5dIZcaAlhFiJ5BX4aM7ZnuJA60RGBCB8Qkom5wN3gdMXmUwLD5JA2Fz5x0nX1/NVs0xwK2iipwAASTAkBNc+zvUWgCSwI2axmETk+liOd3eRqHtLFVoQHiRUsYHy2T0IAElgxeEmAEgCabMDQoQQK4EdEWIxiZg7ScdiIZNhsVCYTthkn1qL6BIAiRDNswpCLE+hrhXLuVA4XzWw4zUDRf4dwkYK16+WcSarnq+aN4luA81gHYRvDOQIsxBe8dnTtQwPklDfDBsW4T0S2g+zWMxiuuYlvUi1o7vvf2k2ArdV7CXgQRKbPsl30f36hLUPP51GlQIgo+QbrsweamHlnMFqw00CECapO0jc99DbTzwn+wGOZFL6NARAfFSKLJPqVMXnywOOSEvEVwMg8dp51Wxzkj090p5uvSoMF6qrHS2RkI9QMLIqAIkULrRa601e0QfatyGXd9iFdY5QpdOWByBp9fRq7RkWV/oAjPu5f+svn0Vop21xoruXlOyF/gcliq4UyGWa4gAAAABJRU5ErkJggg==;" parent="1" vertex="1">
          <mxGeometry x="985" y="595.32" width="28.5" height="28.5" as="geometry" />
        </mxCell>
        <mxCell id="CTRBdmPqS8U7lPE7k4PG-14" value="" style="shape=image;verticalLabelPosition=bottom;labelBackgroundColor=default;verticalAlign=top;aspect=fixed;imageAspect=0;image=data:image/png,iVBORw0KGgoAAAANSUhEUgAAAMgAAADICAYAAACtWK6eAAAAAXNSR0IArs4c6QAADS9JREFUeF7tnUF22zYQhodKr1BVWdU5SeyTpFqmej1D6jP0uV1aOUnUk4RdlXWvUEkNKMpRaEoCQMxghvi1Sd4zAIL/4OPMACBYEX6iCvz9x+Lm1Y5u90Q3FdGPRHRLRDdEVFNFdduZPdV7or8qorraUf3fd1S/ft8c/oafqAKV6NUKuti/vy1u9zO6GQAhXoWKNkd4ZjvaAJx4KX1rAhBfpa6Ue3pY/NTCUNFb2rdeQebnoDl4nY/bGW3gadLKDkBG6OmgIKK3J2HSiNYSVj14GgCTQFIAEiCiWiAu3QNgCbDwy6IAxEO+p4fF45ck2nkL2z/AEmw/AHJGsi7JfjcJMIbvcb2d0T1ylsvMAJCePm0YVdE70UQ7+LmWsEJFm2pL99//0hySffy+UQCAdHL887D4tSJyHsOtSZT3AyiDNi8ekA6MD+URceaOAQo8iFOgzTFe0YdiQqnwJwByFCIq0oNMZlYqfNCH1nDbW+7nq2YdWnEq5YsCpJuZclO2ZeYZsaO2os22omWJM17FAPL0++ITwqlYQtp6buPksrTZrskD0u2e/TxqaKDyswJ7ovsfVs2vpUgyaUC6kOpTKcYUvM9iEvjJAgI4mHEpJC+ZJCCAgxmOr83X2xndTTl5nxwggEMMjuOFJg3JpADptqO7aVz8ZBWYLCSTAQRwyBIxcLVJQjIJQDCVmx2OtgNTnAKeBCBYBNQByBQhMQ8IduPqgePYk2pHd1NZcTcNiLHQym38a19KcmdeuX/duVenw/v5VJRDIbdfzOqescnkI6YBeXpYuC0kWgeR2wH759ijeNy0dcvLYWu+GWimko+YBURpaLWudvSRM7xwwOxmdNudv6UamCmEWiYBURVadSeF5Hpnopvedm9EavSk5kMtk4AoeeFJ1fZvraBYD7XMAaLBe2g2usaXwrYzemN1v5Y5QLLmHoZ2sGo6pUXzA+XaJLkpQLJ6j4o285+bu2uCavq7Jm9i1YuYAiSj91jPV81S0+D37Uv7UNnTY+7Xja16EVOAPD0s9r4DI1U5q4bt33/Gh8tzVyx6ETOAZDKwWc8x9IDIpOFzVyw+bMwAIr5qbjDn8PGaWTd2GtTUBCAZkvN6vmre+Aw4i2XEHzYnIlkLs0wAIv0a7RS2SFwCt3vguNNecqy+mwpbTQAiGTtbjJNjvFjONzAteRETgEjGzfNVY0KTGCj6dXKFWpY8tPrBIJl/lOI9jqBIh67H61rSGYB8faxOOjE/53GybPw0NJulHhCp/MPSUy1FeHVsI1fCbiUPUQ+IVP5RUu4xkIvk+IrvMtc7NCEPGP2ACGwvKdV7ZM5FTEz3qgZEMEE38TQLefKFlhWf0TKShwAQoiKTcw1hloU8pHhASg+vcoZZFtZDVAPijMe9xd3CUyw0XIotLx5mEakPbS0Awnn2FcKrE5oyrImoT9T1A8L48U0LLj7WG8TUk1pzOukbAIkx1GkdRqPBe/SMI76B0cBMlnoP0uUhycMseI+Xj64ce7O0L9CaACS5FzHw5BrreWPrc0+K9PulfZLEBCCJvQhCqwv0SM9kAZDYR1mvXqpNdQitLhtEau/bsRcAJBEgx2a6qUj3SYDg10UBx3VjSE/1Ige5bpPgEl0y+e7LB2n8QKloU23pnvOzBME3obSCMCDqw10zOci58TTwvQxX1HmXmiqqaU8fLWyr1sKLcIgFQLQYHv3wUwCAfKuTeQ/iZ3aU8lVAeJoXK+m+hkE5HQpIAmJhJzU8iI5xqaIXgi+otfdrYVYRgKgYmjo6Ib3VRPsUbwuxDtOgFxoUSL6l5/JNqZ/BAiAaRqWiPiD/eGkMeBBFAzRnV6TzDwsJOjxIzhGp7NrC4RVZyD8AiLJBmqs70t7D7XKw8v0VhFi5RqWi60p7DyvhFTyIokGaqyvwHpeVhwfJNTKVXFd49y5Z8h7wIEoGaa5uiB/SQETaX5Dq2wIeJNfozHxd6VXz9nYNngUAQDIP1ByXzwKHQe+BECvH6Mx8zVxwWMs9jmaCB8k8YCUvLz2de3JvZtY9kINIjkhF1xJ+U/CbO7fqPRBiKRrAXF3pQir3ibXgU2AS9cms9wAgiUaA1mak1zgGdKi3M7p7/b6ptWp0rV/IQa4pZPDvCrzGYVZ3R3fWj1oCIAYBuNTlnLlGr1/qD2TwMT0A8VHJQJlc07eD0hhcEDxnYgBiYPBf62LG6duhrplOyjHNe220Gfu7opDKKWc+KQcgxgA41912m/qeHmnfnk+s4VdXO1paT8oBiIahNLIPgGOkgAHVkYMEiKWhaIYXnK7d9iQ9x/GmAcg18yv6u6qZqoMuk4bD3SAAUQTApa6og2NCU7mXdAcgBgBRF1YVAgc8COAIVsDyztzgm0WIFSOZXB1ts1VT2FsVaj2EWKGKCZZXtAg4+WT8nFkBiOCAD7mUGjgKyjeG7ANAQkatUFkte6tKDKn6JgYgQoPe9zJKpnOLDakAiO9IzVBOxXRu4SEVAMkw8H0vmTvvQEj10lIIsXxHL3O5HMeAPt9SRZtqS/dT24mbwmQAJIWKI9vIGlohpLpoPQAycnCnqJ4rtEJIdd16AOS6RqwlMk3pYpbK06oAxFMojmKZQqvJvRbLYZtjmwCEU90rbYuHVsg3gq0NQIIlS1NBfEEQcEQZDoBEyTa+0tPDYj++Fc8WAIenUFgHiRYqZUXhxHxS51SltINPW/AgPiolLCOcmCMhH2k7ADJSwNDqwon5cr5q1qF9RPmvCgAQwdEgmpgj70hiWQCSREa/Rp4eFp+lPmRj7XPLfgrKlwIgQppLeo/SDlbgNCEA4VT3pG3Jrz3NVw3smsiuEDKRkJeakZy5gvdIa1AAklbPwdYk1z2Qe6Q1KABJq+dga4LJORYFE9sTgCQWtN+cZHhFRFj3SGxPAJJY0H5zguEVvAeDLQEIg6inTUqtnCM55zEkAOHR9blVqV27eH2Wx5AAhEfXtlXB/APhFZMdAQiTsK5ZsfwD+67YrAhA2KSVAwT5B58RAQiftiSVoGNxkM+IAIRPWxJK0JF/MNoQgDCJK5igr+erZsl0G8U3C0CYhoDUWbvIP5gM2DULQJj0lZrBwvoHkwEBCK+wUgk63v3gtSM8CJO+QoAgQWey37FZAMIksMgMFhYImaz3tVkAwiCx1AwWEnQG4/WaBCAMGksBgvc/GIwHQPhFlZrixQwWvy3hQRg0lprixQwWg/HgQfhFBSD8GktdAR6EQWmhM7Awxctgu36TAIRBZJE1EEzxMljuZZMAhEFmEUCIsEmRwXbwIAKiSpyDhTUQAUMSETwIg84Sq+gAhMFwA00CEAadAQiDqJmaBCAMwkuEWFgkZDAcPIiMqBKA4D10GVvCgzDoLDGLhVV0BsPBg8iIKrBQiEVCGVNiFotDZ+7NipjB4rDacJsIsRi05t7ujvyDwWhnmgQgTFqz5SHYYsJkMXgQUWG5wix4D1EzIgfhlDv1tnfkHpzWggeRV5fIHT/6mYhuRl8codVoCWMaQA4So1pAnS5h/zQKEsARoHjaogAkrZ5nW+tykg8RoODDnEI2GroMABEW/9/fFrf7Gb0jotsLsKyJ6M/5qnH/4pdRAQCSUfzjpV0Y5v7/+n1TK+gOunCiAADBcIACFxQAIBgeUACAYAxAgTgF4EHidEOtQhQAIIUYGrcZpwAAidMNtQpRAIAUYmjcZpwCACRON9QqRAEAUoihcZtxCgCQON1QqxAFAIgCQ2OriQIjnOkCABG2Tber9+2FzYo1VVTTnj5uZ7TB/ixhA/UuB0CE9B+x3X29ndE9QBEyFACRFbrb3v4Y8R7INx11r9vuZrQGKLL2gwdh1Dv1O+lU0WZb0RKQMBoNHkRGXLZjf4jq7YzuAImMHeFBGHRO7jle9hGQMNhtqEkAkljoLudwhzRw/5C8cyuML0ylV1ji4znHXuOcrPT267cID5JQY4HQqt9bhFoJ7YcQi1FM7gOrz3UdXoTRqAix0ombwXscOo9D5dIZcaAlhFiJ5BX4aM7ZnuJA60RGBCB8Qkom5wN3gdMXmUwLD5JA2Fz5x0nX1/NVs0xwK2iipwAASTAkBNc+zvUWgCSwI2axmETk+liOd3eRqHtLFVoQHiRUsYHy2T0IAElgxeEmAEgCabMDQoQQK4EdEWIxiZg7ScdiIZNhsVCYTthkn1qL6BIAiRDNswpCLE+hrhXLuVA4XzWw4zUDRf4dwkYK16+WcSarnq+aN4luA81gHYRvDOQIsxBe8dnTtQwPklDfDBsW4T0S2g+zWMxiuuYlvUi1o7vvf2k2ArdV7CXgQRKbPsl30f36hLUPP51GlQIgo+QbrsweamHlnMFqw00CECapO0jc99DbTzwn+wGOZFL6NARAfFSKLJPqVMXnywOOSEvEVwMg8dp51Wxzkj090p5uvSoMF6qrHS2RkI9QMLIqAIkULrRa601e0QfatyGXd9iFdY5QpdOWByBp9fRq7RkWV/oAjPu5f+svn0Vop21xoruXlOyF/gcliq4UyGWa4gAAAABJRU5ErkJggg==;" parent="1" vertex="1">
          <mxGeometry x="985" y="450.75" width="28.5" height="28.5" as="geometry" />
        </mxCell>
        <mxCell id="CTRBdmPqS8U7lPE7k4PG-15" value="" style="shape=image;verticalLabelPosition=bottom;labelBackgroundColor=default;verticalAlign=top;aspect=fixed;imageAspect=0;image=data:image/png,iVBORw0KGgoAAAANSUhEUgAAAMgAAADICAYAAACtWK6eAAAAAXNSR0IArs4c6QAADS9JREFUeF7tnUF22zYQhodKr1BVWdU5SeyTpFqmej1D6jP0uV1aOUnUk4RdlXWvUEkNKMpRaEoCQMxghvi1Sd4zAIL/4OPMACBYEX6iCvz9x+Lm1Y5u90Q3FdGPRHRLRDdEVFNFdduZPdV7or8qorraUf3fd1S/ft8c/oafqAKV6NUKuti/vy1u9zO6GQAhXoWKNkd4ZjvaAJx4KX1rAhBfpa6Ue3pY/NTCUNFb2rdeQebnoDl4nY/bGW3gadLKDkBG6OmgIKK3J2HSiNYSVj14GgCTQFIAEiCiWiAu3QNgCbDwy6IAxEO+p4fF45ck2nkL2z/AEmw/AHJGsi7JfjcJMIbvcb2d0T1ylsvMAJCePm0YVdE70UQ7+LmWsEJFm2pL99//0hySffy+UQCAdHL887D4tSJyHsOtSZT3AyiDNi8ekA6MD+URceaOAQo8iFOgzTFe0YdiQqnwJwByFCIq0oNMZlYqfNCH1nDbW+7nq2YdWnEq5YsCpJuZclO2ZeYZsaO2os22omWJM17FAPL0++ITwqlYQtp6buPksrTZrskD0u2e/TxqaKDyswJ7ovsfVs2vpUgyaUC6kOpTKcYUvM9iEvjJAgI4mHEpJC+ZJCCAgxmOr83X2xndTTl5nxwggEMMjuOFJg3JpADptqO7aVz8ZBWYLCSTAQRwyBIxcLVJQjIJQDCVmx2OtgNTnAKeBCBYBNQByBQhMQ8IduPqgePYk2pHd1NZcTcNiLHQym38a19KcmdeuX/duVenw/v5VJRDIbdfzOqescnkI6YBeXpYuC0kWgeR2wH759ijeNy0dcvLYWu+GWimko+YBURpaLWudvSRM7xwwOxmdNudv6UamCmEWiYBURVadSeF5Hpnopvedm9EavSk5kMtk4AoeeFJ1fZvraBYD7XMAaLBe2g2usaXwrYzemN1v5Y5QLLmHoZ2sGo6pUXzA+XaJLkpQLJ6j4o285+bu2uCavq7Jm9i1YuYAiSj91jPV81S0+D37Uv7UNnTY+7Xja16EVOAPD0s9r4DI1U5q4bt33/Gh8tzVyx6ETOAZDKwWc8x9IDIpOFzVyw+bMwAIr5qbjDn8PGaWTd2GtTUBCAZkvN6vmre+Aw4i2XEHzYnIlkLs0wAIv0a7RS2SFwCt3vguNNecqy+mwpbTQAiGTtbjJNjvFjONzAteRETgEjGzfNVY0KTGCj6dXKFWpY8tPrBIJl/lOI9jqBIh67H61rSGYB8faxOOjE/53GybPw0NJulHhCp/MPSUy1FeHVsI1fCbiUPUQ+IVP5RUu4xkIvk+IrvMtc7NCEPGP2ACGwvKdV7ZM5FTEz3qgZEMEE38TQLefKFlhWf0TKShwAQoiKTcw1hloU8pHhASg+vcoZZFtZDVAPijMe9xd3CUyw0XIotLx5mEakPbS0Awnn2FcKrE5oyrImoT9T1A8L48U0LLj7WG8TUk1pzOukbAIkx1GkdRqPBe/SMI76B0cBMlnoP0uUhycMseI+Xj64ce7O0L9CaACS5FzHw5BrreWPrc0+K9PulfZLEBCCJvQhCqwv0SM9kAZDYR1mvXqpNdQitLhtEau/bsRcAJBEgx2a6qUj3SYDg10UBx3VjSE/1Ige5bpPgEl0y+e7LB2n8QKloU23pnvOzBME3obSCMCDqw10zOci58TTwvQxX1HmXmiqqaU8fLWyr1sKLcIgFQLQYHv3wUwCAfKuTeQ/iZ3aU8lVAeJoXK+m+hkE5HQpIAmJhJzU8iI5xqaIXgi+otfdrYVYRgKgYmjo6Ib3VRPsUbwuxDtOgFxoUSL6l5/JNqZ/BAiAaRqWiPiD/eGkMeBBFAzRnV6TzDwsJOjxIzhGp7NrC4RVZyD8AiLJBmqs70t7D7XKw8v0VhFi5RqWi60p7DyvhFTyIokGaqyvwHpeVhwfJNTKVXFd49y5Z8h7wIEoGaa5uiB/SQETaX5Dq2wIeJNfozHxd6VXz9nYNngUAQDIP1ByXzwKHQe+BECvH6Mx8zVxwWMs9jmaCB8k8YCUvLz2de3JvZtY9kINIjkhF1xJ+U/CbO7fqPRBiKRrAXF3pQir3ibXgU2AS9cms9wAgiUaA1mak1zgGdKi3M7p7/b6ptWp0rV/IQa4pZPDvCrzGYVZ3R3fWj1oCIAYBuNTlnLlGr1/qD2TwMT0A8VHJQJlc07eD0hhcEDxnYgBiYPBf62LG6duhrplOyjHNe220Gfu7opDKKWc+KQcgxgA41912m/qeHmnfnk+s4VdXO1paT8oBiIahNLIPgGOkgAHVkYMEiKWhaIYXnK7d9iQ9x/GmAcg18yv6u6qZqoMuk4bD3SAAUQTApa6og2NCU7mXdAcgBgBRF1YVAgc8COAIVsDyztzgm0WIFSOZXB1ts1VT2FsVaj2EWKGKCZZXtAg4+WT8nFkBiOCAD7mUGjgKyjeG7ANAQkatUFkte6tKDKn6JgYgQoPe9zJKpnOLDakAiO9IzVBOxXRu4SEVAMkw8H0vmTvvQEj10lIIsXxHL3O5HMeAPt9SRZtqS/dT24mbwmQAJIWKI9vIGlohpLpoPQAycnCnqJ4rtEJIdd16AOS6RqwlMk3pYpbK06oAxFMojmKZQqvJvRbLYZtjmwCEU90rbYuHVsg3gq0NQIIlS1NBfEEQcEQZDoBEyTa+0tPDYj++Fc8WAIenUFgHiRYqZUXhxHxS51SltINPW/AgPiolLCOcmCMhH2k7ADJSwNDqwon5cr5q1qF9RPmvCgAQwdEgmpgj70hiWQCSREa/Rp4eFp+lPmRj7XPLfgrKlwIgQppLeo/SDlbgNCEA4VT3pG3Jrz3NVw3smsiuEDKRkJeakZy5gvdIa1AAklbPwdYk1z2Qe6Q1KABJq+dga4LJORYFE9sTgCQWtN+cZHhFRFj3SGxPAJJY0H5zguEVvAeDLQEIg6inTUqtnCM55zEkAOHR9blVqV27eH2Wx5AAhEfXtlXB/APhFZMdAQiTsK5ZsfwD+67YrAhA2KSVAwT5B58RAQiftiSVoGNxkM+IAIRPWxJK0JF/MNoQgDCJK5igr+erZsl0G8U3C0CYhoDUWbvIP5gM2DULQJj0lZrBwvoHkwEBCK+wUgk63v3gtSM8CJO+QoAgQWey37FZAMIksMgMFhYImaz3tVkAwiCx1AwWEnQG4/WaBCAMGksBgvc/GIwHQPhFlZrixQwWvy3hQRg0lprixQwWg/HgQfhFBSD8GktdAR6EQWmhM7Awxctgu36TAIRBZJE1EEzxMljuZZMAhEFmEUCIsEmRwXbwIAKiSpyDhTUQAUMSETwIg84Sq+gAhMFwA00CEAadAQiDqJmaBCAMwkuEWFgkZDAcPIiMqBKA4D10GVvCgzDoLDGLhVV0BsPBg8iIKrBQiEVCGVNiFotDZ+7NipjB4rDacJsIsRi05t7ujvyDwWhnmgQgTFqz5SHYYsJkMXgQUWG5wix4D1EzIgfhlDv1tnfkHpzWggeRV5fIHT/6mYhuRl8codVoCWMaQA4So1pAnS5h/zQKEsARoHjaogAkrZ5nW+tykg8RoODDnEI2GroMABEW/9/fFrf7Gb0jotsLsKyJ6M/5qnH/4pdRAQCSUfzjpV0Y5v7/+n1TK+gOunCiAADBcIACFxQAIBgeUACAYAxAgTgF4EHidEOtQhQAIIUYGrcZpwAAidMNtQpRAIAUYmjcZpwCACRON9QqRAEAUoihcZtxCgCQON1QqxAFAIgCQ2OriQIjnOkCABG2Tber9+2FzYo1VVTTnj5uZ7TB/ixhA/UuB0CE9B+x3X29ndE9QBEyFACRFbrb3v4Y8R7INx11r9vuZrQGKLL2gwdh1Dv1O+lU0WZb0RKQMBoNHkRGXLZjf4jq7YzuAImMHeFBGHRO7jle9hGQMNhtqEkAkljoLudwhzRw/5C8cyuML0ylV1ji4znHXuOcrPT267cID5JQY4HQqt9bhFoJ7YcQi1FM7gOrz3UdXoTRqAix0ombwXscOo9D5dIZcaAlhFiJ5BX4aM7ZnuJA60RGBCB8Qkom5wN3gdMXmUwLD5JA2Fz5x0nX1/NVs0xwK2iipwAASTAkBNc+zvUWgCSwI2axmETk+liOd3eRqHtLFVoQHiRUsYHy2T0IAElgxeEmAEgCabMDQoQQK4EdEWIxiZg7ScdiIZNhsVCYTthkn1qL6BIAiRDNswpCLE+hrhXLuVA4XzWw4zUDRf4dwkYK16+WcSarnq+aN4luA81gHYRvDOQIsxBe8dnTtQwPklDfDBsW4T0S2g+zWMxiuuYlvUi1o7vvf2k2ArdV7CXgQRKbPsl30f36hLUPP51GlQIgo+QbrsweamHlnMFqw00CECapO0jc99DbTzwn+wGOZFL6NARAfFSKLJPqVMXnywOOSEvEVwMg8dp51Wxzkj090p5uvSoMF6qrHS2RkI9QMLIqAIkULrRa601e0QfatyGXd9iFdY5QpdOWByBp9fRq7RkWV/oAjPu5f+svn0Vop21xoruXlOyF/gcliq4UyGWa4gAAAABJRU5ErkJggg==;" parent="1" vertex="1">
          <mxGeometry x="986.5" y="900.75" width="28.5" height="28.5" as="geometry" />
        </mxCell>
        <mxCell id="Xi7EQyzXXoAQUirJSp25-6" value="" style="shape=image;verticalLabelPosition=bottom;labelBackgroundColor=default;verticalAlign=top;aspect=fixed;imageAspect=0;image=data:image/png,iVBORw0KGgoAAAANSUhEUgAAAMcAAAClCAYAAADoOemXAAAAAXNSR0IArs4c6QAAAARnQU1BAACxjwv8YQUAAAAJcEhZcwAAEnQAABJ0Ad5mH3gAACfUSURBVHhe7Z15kBzXfd/7mtlz9gIWg11iCQ6YPQFhocBGUonNinOokrJsRxaVKH/EVqpSZQkkKFoHhWXZChOVCCq2i2WCIK2yEydyKnEUumLF+iMup0IUkaTiwEUC0gK7izWwIO7FAnsfc3W/vF/jvUYfr6/pcxf9qZqdfj1vununf993/37NZWRkZGRkZGRkZGRkRAhP3jNCovvt2crSi4NNJGmg7XevFptqyj2SZFKuK0c2Xxq+SJIGut+ZLS8dH2wmyUBcfOYblfHr32Fe549KE0VB4B2vE5W3jnzi9pvM67z4zER5/PqpUK4zSQTynhESvMDlyeZj3vyoq+edWeQmDKBZEi5A3sLpq0NklwYuyZjG3AiiKFqu86POL3dNPvsqchMGwDe3XIC8l0snLdcpinxo15kkmTgioPv0zCLZVOlpal8im57JicoMiIQkoUZ6SDZDY/LAq4brzO1u832diiDMgEhIkrt44GTo15kUmThCpOPM9E/COy8K3eoOjN7Ag4BrpB54p+cIwof7vvroGDynXafewIMg8oJ6ndo5tjE7os+xMj9c6SzOMKvytXulIi+0ODYTqpXakZ6BWWb7eeX+aLlzz5Sn9nPXmenDAi8yjxMWCpLHl18Y+RFJNsR0aeJwXeAjvU5JQeMjc6cCXWfS7IiaQ+St7eeluf1d6/fHkJswgHxT7gLkLd8vWdvPnPf2s53RLiodBbLpmcXjg8yCK6gwAFujXc35vs5DV19nXud2FwawY5pV6/eGje3nNv/t5zrXMgMiIUlufX7Yd/u5rqAJsqnRjZaWwdi35PpTZJctMi+VIG/Hmdl1sktD4dBrZDMwSt16nahQXQZjr1Rrrtcp1uUS5MX9Fst1ckgJ7TqTZNuLY+PO0KO2rSBq7We9gQeCF9X2s3YOD6y+OPRGHaH/RZIqvCiK8L51YvQOGL6CuD9SP9CBkHIWPlv5Uuk6pCWea1M/0LF8fOhfks3AHP741BtYIMbr5Hn1Oo/e/I07ao2AkOU6cbvuLHw2+vF31OvEDXPLdR669kZo15kk214cisBVyKYqijCEYT6O/hxekHj+p8imRs/p6WWyiZtGg8/jg2u1kow1tfTC8M+QpCFvlAiS9Tpxx1w796Frp56XFd11yvLqoblT2nXq8+5Etr04CnuvMNu2bb2c7/Zz+57LzPaz3Tl8IYqdXW/N/DRswggWPtEudT8GF9cddFSr492ZY5BX/SAZOi8NTKjXCSNYoqC7TlHsoKNaH5VeOYbfkrzOyNkRfQ5Frlvaz6v30DIYO8/L7u3nnFyCvGsLw9b2Mxde+1mQhA+chnbhMwkJf06SiYHy/AdOQ7vwWU6QEr/OqNkR4ujou/IG4hRD+1kUH7Wf23pn7jyqERRr+xmhs/BZS/eM2n7mkWhpP7fvmd4R7ecM/+wIcQA8J1jaz+v3RrU2MTby57EatPYzktFqe3FKaz/r82ZkADtGHEwEvnPz/qDafn7Uwea19jMv8h200718d/AY5FU/yMggMDug25EwRqlY2HXSneg+85fv8zz6WyRpAMmKvFTf3M396ieNNdXbk+3dSFqmw74s7CYGG2WyNPE+LhSY14mbnHLt4ebuT678tuE6J3uPt6NC5zId9mVhNzG43cjE4UIj4gBYHW+vxh3ku35hdby9GneQ724HIv9HiltDlfmWK8wlGHuUUlGqNzsu76hV60cW2tnrnopbI+X5lml13VPaxNF95sp5XLr+BElqxl04fXkoJ+Zm1J0mFjc22rmvH9mAbbNAIhPH/pPnOUnQrpMa94X+rwxJLc3M66yvV9qPzP+Wep16gfwdWeHmr7/BvM620kSxmXdeCi9Xto4s2/iI9OyfKC9+HK+PSOR9DpbfQCfa39VfHUVuwgByeekC5N2tMNY9pdhvYOmFx7Pq1LDB4O2EAfS0ta1TUejFEJUwgEMfv6FdJxUGGLydMACpvWmdikJfU9QFqzl1dn65a9eBV5GbMACxqeUC5C0wfERwHzH2ex3Zj04Bw5ZleQnXHupSDAD2kU3f3MlPqddcLA89FAWxh6Y35kffRzy7/SzLuKVf3tzdXfrY0H6en+9tb1Z2L9NhXxaN1hwUMHYkc9fwGQ6QXZ5AiFvgea43SmHoUY1dQddwH8TfddbrC7wk9YJIwLDxdS8tzr2u3utdpVcucbw0pmZsgIfXHgmvp3TyIc8LPTQdF5HWHLuqJbVUwrWHtu4piDD0gDDgnZ6jTTcsqweMu7NvSjILAygWF9bhMzsBBBUGAMbtVxgACINsxoJaA/gUBgDCgPcO4r+Br1u710GEoQeEAe/0HHERqThEKaetSQJRhCEM83H051AU9BdkU4Ua98r90hD0SVgv5W5RnfgLQwh21OSW3WTTM2WZOxpXrUERthTf1ynXakdBWEIur90HqEHgRZINYz6O/hxxEPmPzxJELccXcjW0RpKegOYT61i0WUUBg4d3auw07YY5fxRiaX17cm+z0HSXJJlUqlvjGy8fDtUX4uDBgz/D8/z/JEkzvzg5OflfybbK5P6v7eWkvPN1KtXxo3O/abhOliAeruUKuwo1X/camk/MY8XcrIr8ZH3VoZM8J54iSRWE+wB3W6alXRvD/U054TbZzUTOKaV5fuZ6X3lonRfMyzvQa3fy1uUdYOC4AX0NtxN8NhPQAv5JeqOsRcIGG/6DS5cuMUv8sbGxHwuCcIgkHcGdhUV8HG2SVM/IyMj89PR0kSRt6d4/cVIQeeO9xj2uxblTUsvA1/tbcznHe12X5dLKx9+53ll6dd28ZB8pymuL1+NdCh+LERTLw+dEwbi8Q1/iF6sj74kc/1mSVME/6tm7TdNaP8JLraHHa43BYjuJ49ChQ/inQn+JDXuQ7OL279/fVSgUfDt7AVtbW09fvXr1JkmCMG5IkjSAaxdPv0nP/olzvGhcCq8v8buemXhPFIz3WsH3ekm3FD4NtQYQy/IRszCAvvKI1kGez08b/AZg3ZNeGPq8XmmtLvtuP9e4ytHtJAwKbjL9FbKp0qgwgJaWlhtkUwWEQTY9YRYG0HPgsd/H8vVTz+NqXbvXuLZY1QtDnzdpYhEHC17gO/uUR+ueoFbQ+w3AuidaUxSrg8cgr/qBD4R9dx6qho64PrLLlmplaxzydu+5+iHZte2AGgS/NZH3QMAxhoeHnwnjWAAubTq7iI8I1Ao8//heS6LYQWuKjn2vHIO86gcpIJZSktUkCgOnZtWTQlgG7IbXZhWrSRQGO7ZZlREduL9xh2waAGNWFOWbJOlKvV7/rp0A8HFWyOYTRSaObQ7uiD+FBWJw9ALGxsY+d/ny5W+BwWPDr5PdTCDP9PT0F/F3fp7s0nMRH6eLbD9RZOKIGZhzgKaQzeszJJsvcMn+RbKpIQjC98kmhw0/x6oV8L68fj/+zg/IpgY+9p+SzScOx3ZcWBHD+yoj7/OmdU/l3/8jrvmffVad89gsb+1e6TYu7+hFve1Sedcy7pzbrntKW58jqTkH2CdJ0h6S1JBl+TNTU1N/TJKW/oleGPgYP4uP8UOSNMASlh3dz0y8L9j4iOD/S5YXN3evmHxEuN7j7T3tzj4iSfQ5HE8Ii+YsSxggYrjPwMg1WRgu/MqnDas8y7/33zyvNvU7x+GFqX3CCY4X/wW+IY+NEKFNRVb+zdgd+SWyxxdgfJjY5xzMRq8HC+Sv49K/NZfLMWfI8We/gltdH+Tz+Smyy4IfcQBB5inSMscBuDarwooYDmKglL/3H8kWx+0ul4bA+FkvTnm07smPEKYHxG/NcRxz3T/+1YXpp/MIXrwgvWUQBsDzrYIknqB5/rz/8ZCjnhv7uJapAeFVkjSQpjkHQBTF/2snDADXZt91EkYj4ALGsMaNGneh/ytDYPysF1f8qnqvkxICC1txRBkxnKu2q297b/8cygv2fgP99Z51VSQYvUAcxcKLv1Z5Or9FUhpg7DNP52WS9ESnlH8A3yNJjU0hv8nz0rdJ0gIpyVM55xAHSzofEWrsIIB8s/293tXWtK6KBKMXSJJisT1xHBHD87/4Eif0PIoq6QZS0AIv8L1utQg15pEbVS0fy8D9wjqefh8QlwH7aVaFgd9mFQWMHXMN16a+1rgp9fqCIEm9SdcitjVHHBHDvQoDAGGQTU9QAw5DGICX42FDSGTOAZ/X16rXuMDXdd2vMAAQBtk0AI+aIJsW4FETsJ7O6bV4c3CcZLcAj5ogmxqOfY4oI4aLf/U/kS1vVFH1qN9OeFjCoLgdL6k5B3zIv082bcGiWsCvX1hbW+teXV3twdf5POwjH9uC8/xbsumbxblTpWrZv4/IVr12lFVrxP2oCVdj6zhz5Zw5MLK+Jug6M/uewHOmFbXKWUNgZEZfBY7Ri/bvzdVaHf0G6qg8fr9pzrN/w/RAroZ7xRJJakAT6NJTuRVR5DvILndkVB25XWtiiUJBSB67WbOcZ3R09CDuBE+SpIa5JjA3hfDncONrj1LsphI21H+NxfENkjRg17Sq1Wp/c2Zm5v+QJBPcp/kE7rQzf2O7Gswvrfu/trdFdPYRkSvV8eXbRh8RPWDYuLe/1L53RnO5Vvc1CF1kqj5qghd7zItOXf9xZidcllcWT4xoJVj3O7MP8IHUkR2IGL5yfFBbPKZGDGcERrZraoUBy5hxSbk+erOmNgm91Ci0PzH1VO4eL/IWXwZzf4OS1JwDrmm+JwjCPyVJFVPe/MGDB/8DbuZ8DhJYaL+DhfYCbEIaMF8T/s0UXBvazj3ECTwGAknS/4NtzagDCAMwHwdX68fa+q+ch22A+UPrsRuhUurKc8svDZ+z+1xtTr07c8wuMHKU4gBYAtAb9OXd3JDQmreOnijVfzByi/vvJOV6HDN2JTgQ9ZyD/tw03+Dg4JGmpqaP1J02VCqVfbOzs6ojEusYaWDt3tBhXpAiHSBCSn1cH1G/4eUjaY4YPlnkIDy+hamnpD8km9zYA+6K2cghrReGPr+eqX3Sn5BNX0Q957CwsPBojJwAhu4mDADnuYWbg+Z+4afIeypI4lETDYsjzUh58Q/IpgFeFP4x2eQmO7gec60A6blebi9JGvLr4QXh02QzVczPz2/Q0t6pBmOBhdtGvwPHwK8/Uz9IEXE/amJHigNbtWU0ggICgJfUlde80fRUWvJ3aR6yK3XAGi6yaQHWcJFNV3Cfgmw9Bjex1HA60HdSd6SIuB81sTPFkSDY4CKfc8DF5C4skFmSVIE1XFDye13cCODjqO8gEvx6ADUG7ntMkTVclkGFNBDnoyZcxYEQf5ZsWoCI4YuV9W7oXBteSqUAYQ5JtieKuOYcsGGHtoYLRHLp0iVt4q2RNVyJEtGjJpgdEzOsjrfX0aYg322U6QHhxxwveS5BG6GREauw5hz0x8f7mnHaMrvbCPj6SvjccyRpO1oFPilYUJ7jYIVJ0OFbO1iddE9Gul0ihlMm+7ifknL5cyQZOrKi/MnBW3XWDLZK1HMOduILA2hiQU0CmMUB/RmvzTZ8nMBxsFikThwANXBq2KwagYU5f1BhePXDcO1QV6oHcJdTKyUpUwNcP8/nHYOPOdUaFFPpruYPa84BC+s2/v/7SVID8mAD/nVswP+K7HIENwG/C0tVGEKE1wpdqpJkHCwzqRQHAAYeVcRw8MNouil/u8RxliYC/jUEP8vNV+rV3bDcnCQNKEr9m2O3lG+RpCN2AvMijmKx2Nbb26sOGYIh+CntcXdtY2pqql33nU/hYxiGVrFAzmGBGDqnuAb6R9ig/wtsYyOsYSO0LG+hUOPEYvp5LCaLe6zeeP1cOwvWsfT7/JBacQBeawwWjuIghmg2vCiGVOEcuF/yMu6XvEl2aWD1/8LoTVnzzDKfH5Wrh0fvc56HS8M0LD1RruGi4Lyx92fciPNRE76HcuOMGB6mMNZvVLUVnepxGcIAeF78AXw+MyD8MqTv3qjm1A8IfoQBbG5uNtS2BuicAwvc7GF2iLFo/iHZtEMTBq5dfpZsMglLGIBeGEGI81ETDakXCDtiuF4IaskeojAapY7Q2qGbtQ56LV6aU3bgZtBHuBl0hCQdwYYPgRoc/VecSvwga7igv0E75HqgpA+jPwPg82v9mUZYvTd6XhAeDxBR44ZHTYhcC3OAqFV+2C70zasDROamWejiCJs0iMGJIMLQg0v2v4ubQ8ylGdiofwn3NZhLX8w4iSMoLIGE2J+5iD93LCTAqamzOMOMegNOTV58N+yQOVTp3DPVTAViJwwgPeKIyQ/DrmR0IixhhEmU4rDD3E8wXwP+PJBPCgUM12y04NSUa2tjjJjBKfzeHm+PmkjN8pGRmzVD254yNZBbO3i71unVQCEfCAP8MMguA76EUav2plEYUWO3uCGM/gyuSV4hm46s3xvWot6szQ9fYgsDaOT2eHO5Tt2NZ5X2egMNyw/j8j7h8wovnpZ4/vEAA0KbCMknR28pp8me1IL7MKtY6L6XawclSH+GYq6B9Ph1aoIw+rgtQFLekFHllzqLV12br/6OGjHghyE15S0+IEhW/vPo7frnSVJFb/zm0h38MFjLzZGi/HD0Vv3nSHJbMzw8/Dewgf5vkmSCDRXWa/3zjY2ND3Bzki8UCn8bv7+LS29fwSrCxkkcUTo1IaTgloNgcWqyI1XimB4QZ+yWm1MBgB8Ga7l501a1r7TAqU0pp879Tmom2fU7gq7hihoncQCsmgKcmjYWOF8rnqHmYR3Lra9BSdeS9R3uhxE2uGawNA3A8HTCgDVc3wcRwWtsbOxdvE+95zjPj1lGimsWbX1XUsTt1GRHqkrROAw76Zoj7Bi9+tqDGnvQNVxR92fcag5g7f7IObPvhr7EX78/8h7WuSHqDf4dzxp8NwLUGkC6ao5tTFIxeqPwG4/LJ8WJOJ2a7Ei0FDWTlB9GGKU5rfXMx6f7G8HuWKz/QV/6N4K5NLc7XlxxsOxGqASu9lzrntlzdp9DzQBOTZKYYwb32LY1R72ufIlsRgL4YZDNSEtzCjXmRvHz/bDXcKW1P6NwuQ/shAHAZ3bC8IvhHwg6bV+t1I70DMwyh+EgFilM25OkLa4GEYIfRhCj9VIzQJ6gwtBjPh6r5qCEuYZLX3tQY48rDpaTAILQcM0RdyxSP8CqWjAKljCA0ZvcHfVzB8MBghqtl++HKQzAz/GwsX8SjFCW5b9HdlmANVyQx21x406Og+UFgyGpao0xFqkdZmPQG3wQPwy+OR/auD5ck+EcCNW5BGP0Rom+9G8EPzUGJVU1B0zbqxuCqD2sJrQLxMKAN+0c7mjraqgfxlS/9GuqsTTohxGmMACz4ca1NixuYQBR+aQ4wSNkG/UGnJpqGxvdYOj61wZaKMBnJFtgtBuWRCxSJ6jxgbFM9eeWeIn3vP7f7IdhJsrSnPW5XhhRxehtBNw/8RVFJMz+jBdYhbPXkj/IdymGzKwDJjFtT7Ez7qDgGxdJxPU0rQ3DhhzZk22pTwqs3sXvZO8joD/j1SfFjbicmuwwZF69O3RSEKVTJKkC1RS4GG4sDPcjJDqOBsG0PYRchGl7a8hF5TVWyEU3ggiEGp1bKRxWaZ6mtWHQT8DE/mTbsKEGTg2bVeiyMOf3KwzAMFoVdyxSL4Ax1G9U/Y106fwwYo24nrK1YbgJlKon2zYCNeq1+yNXvQoDgLzr90fvw3YjwgAsX2JegIJW2vdOaW1+fNIH+KtqVQvT9oW+KS3Eojptzwi52OgFmvHrhxFnaR6mYdthFrEdpvmFWKOI+O3LuLF2f3SO5/hnSNI30YoDE+e0fZjEabBpFUeU6MURtC9DwU02S0RE5Vb/rs18l210eRY1rnK0e8/VD0nSN56Xj8Q5bb9tQXVLHKmkwMYX25NtG4zw3gPfefbZZw3NM9KXsUR4F/bdeagWsIjrI7tsqVa2xiFvEGEAln/aSQBBeBJqjqRj9JrBzZsooyJqUUSC1lJ68dFj2QkyTiwXsOPEEfNKX1cxRhyjV89ohFERcc0ES1VSFxExTDw3q7Yrca70dSKstWF+wAYcWVREXCOBaFIXETFMLDcizlikcRF3aW4+nz5PXDF6AVaJTwkjiogeKOlx8ysVERHDgmmwrKaVV+MO8t2osBMHlOY/oSslnbA7ho04YFhYXU9GzwFrw3hJcI3uzqP6F4ZvKv/+fY6T+p7OPy7BG6hRnMQRNlH0ZZKG+YMnPW0fBXGX5jQvnCfo2rBGhAHEKQ7A3E8wnx9/3lBExOLWUGW+5QpzIniPUipK9WZHd4patX5koZ3tZ1TcGinPt0wz/Yxsf3Rq4NSwvXbUzfnTIAwgidLcLCa/TIot3GttthPRrpNpcYsDN9U+MzU19cckyRKH9ntBXwZXLj8kSQNmkfVXR9Gd/JRhXyfa39VWa/U141+VysMPhLkrJKnCOjbF8eaCgSNOucZzgq+H1eAy1VMs0rhJojS3E8gX2g9w/279GkkZebn1ae6W5Oo0qeI0mXbw4EEFd5xjvQdh9GVY4sDHXcK1h+ZnBPvIpm+oGIrloYeiIPY0JA7Aa43BIkxxhBXSJmhpDvht5kxyXF56Ol8hSZXnO4a4olzlzmyoy9FU1jmB+0KHYTmUZ1gLA0VRHHDTBjbWhqIiwlBuVLrTi2NXtfSTTVyzGh6UGnEQYQDm41S48rGH+bnzsK3H9b+Leto+7Med/bU7nGWNFARB2OCFXx29qbwO6SACabT9T6Frwz7fOayuDXtvFdfyZG3Y57rG3lIzNYjeqNyaVGmOiqj/P/YoQ4eluhipn1FdksfvC1Y/I883en1+bC/O7fiwGpi27xmY8/Vj2jVTwjRg1jlYpbkjsNL3LuerkHBCb7zYGCKbTMM1wx/gWiDsJ9tGVmsAputj1hS1HF/I1ZAvPyOoMVjHarhZFTUsww0iDArreGbRUJKIuO5WsocFGJpJiOpvECSKCBbHGhZHbBER+6pDJ3lONPgZIRnJd1umpV0bw/1NOcFxLkrOKaV5fuZ6X3lonRfM7hTotTt5tjtFambIqQGHIQzAz/HGbil/iDvbqg+I9rpZa4vyUQTYwGJbGBh2FBF8zlgjIt7NX3lDVox+RjyZcH7YNnMHSn6ZQxY/I3zOs/AZCAPSVmFArWHvZ8T8UeMkLDF4wa7mSIq4FgZSgtZWehHaHSuqiIis5hBS0Mrd5mltxLFYHn0gCo+C74GfEa5ZNL+ivvLIMs/wM7JrUgHJ1xwQ0oYBGLKM/0GS9AYEQbARAARBIJupAQvhi2RTAxv598kmNz09nWMZC96X1+9nCAOO/adkUyPMKCL4+IlHRARj71MGfxq2QTxUGACuWTqooIrVwWMsYbhhq5o4YdUe+IeKJAhCWIQxtIxrhnlcMVh8F6KaTKNgow0lioj+uui5ooqIyKo5wsCp5rD9IG5YAtAbdFwhbeIcWv5c59i3yS4LUUymmaFRREjSAD6/axSRYrHY1tvbq/ZJ4FxmETuBj7+Bj9+u+86n8DGY1wI8seJIU0gbenzzsb3UXnbYHQsmAqPETRxh4UcULLxcZxLiMPQ5ut+etR33b/vdq8Wed2aR06v1rZlxkt1C9zuztuP4Ul5kllB6Q4cgCGYDhfRcL7eXJA359fCC8Gmy2RBBhAEE/X7aSSIiYhwYxMELnCWQNPfmR11g+E01xTWQdLMkXIC8hdNXLUUilqd9eJ0UPu6MHi+s44Z9vDRx7dq1+1D64/7JBbLLFejLwHdw38OTvwjObxseFOY8NjY2u6EW0L9quQcF+Ixk841ltKr79IwWpxboaWr3HesoJyozIBKShBqJadhpJyrBUfAN9zXDm3Zwxz20CO9m7jZNa09t0gMigMnAlW6jAx6wwC+sw2eQh+wyYLefoomj48y0GuQZN020QNJ6Aw8CrpHU1ZT0HKkmxqHluCfT4gJ3tP8HCID1cuvkO4F49BdkU4Ua9+5yaQj6JKwXpxTViT83IbDQvtB1ZvqwwEe7wEtB8vjyCyOWyZ+kHndmB6vGwEYZydCyXWc2qsm07Y5q8Bhq7DTthjm/F7EYMrBqikWlo9AjrPqq/hePD/LMY+H9ZNNA2kLaACwB6AUW1tDy2NjY9yJYGKjgZoutP39Y4OsKNbKhV8DAEYeu8Rzvy88IKWiBF/her7WIIVPH21dOSgJvWuAly0snRqSW01P9LaLkvMCLl0orXypd7zgzuy7xnGEdi8Kh15aPD9muY3EtjWMMaRP30LLeuKkw4nq8mB3Y8COL0k6BSVBzZEOveK0xWHgVh6FDvvri0Bt1hEwLvB7FmN86MXoHSn4FcYwFXspZ+AyEAWmzMAAnYTiRREibuIeWgywM/MToSGVqIKctpf/m5i3cTM1tXO4XA/mGwMw/FsgsSarEEdnQK2vSClO4TlRR9ahXYQCWjMxOuCyvLJ4Y0RZ4db8z+wB/US0NZKypleOD2rqVntPTy5woWtax2DWp9JiNTW/wcYa0MR8jClhi1pf+jaA6TjHw6gSmh16LvhYKen2sYwWt5XrR/r25Wqujn1EdlcfvN/nzMwIsF2Y3QqXUleeWXxo+Z/c5GH/HuzPHJCQw4+V6FAfcwMRD2iQljgMHDuxpbW2dJ0lfvLk2xw0g5yhD5nPS/9NNqNiAm3E6EmesMJqAUWG5MDvjD4oXcQD6G5ZUSJukxEHxszCwoNS537cJ1MBCf16v4oiSNIvDMgmYNPRGwY3zIwxA4vlCUGGoJBwtHSbToIn06xtavAQLL27eVZtRfoQB0N/HrQDAHenYnLHSiuWik645KG43z4lAwsCkYWg5yP/vF7vfC9dgsTpjpY3U1RwUuGFBHncWhEN3OcOIHRMYWsbnMr8Qqj5Fctjiac4lBU5gWAixOmOlDYs4EOIdFngp8mJlvRtqAcNLqRRgPoRkC41DHKfeVHgpSv2f4D6FMfoHBEFQ6i/RPGFGB7ED1eQz6rkiHlpOw3PNcdMqsijtWDCvkM3UwvyBWU0rr82iIN+Ng/CcmWCC2lrxwtByG5L/jA6RmptHfoeWWc0rvTCidAJz6pTjsjByZ6ykYV5c95kr53FbUwskTY27cPryUE7MMQNJL25stHNfP6IGkjYLJFXiIEZiNgzXNj58Ct9Q8Ibg/u/A87mGb9T4IEPLSTuBRT1itS3FAVADp4bttaNuzp8mYQAscbgKgyLjbKL3fyfo0HLSzzWPQxzgYLf04iCzbwkOdm5+ROW6cmTzpWHmgllwsFs6Pugt6DADx5sFBo67a9d4kfO3wAtxCzzP9aZNGIC5hPUsjID4FQYQx7UlLQ6wMYudgIOdTz+imiwMr5141rBEgHlsHziOVsGB/QoDAGGQzVSTZmGkAdwhj8UZS+9g1/n27KVGHezIpkoYDnauQ7k1ucX3Aq+yzB1NY62hEmSI1K+UQhpaToqonbFYDnaiwDXsU65v+ofhYOf5xrW+Pbm3WWhyXOBVqW6Nb7x82PcCr7hh1Rj4pvpyZoKhZUZ8Xfij3pkwRJEGJzC7plUYzlhJOth5YduWakFhCUBvKHHFyXIiDTP1UTtj6Ut7ShwOdl54IsWRpjhZbrjWYjE4gemNmwojLGesJB3s3Ejt8pEoSXucLC/E6QQWdpR28q6SRgc7SuAfbjviWhqHQBhGSTFfr/7YaXmuuRdMzTENVnMoLgc7J57ImmMbog11Qo0B7+AEpho8QxgAz4s/gM9nBoRfhvTdG1XDWi2/wgBijWyIjb3rrRk1gjqIhwoDwNVKBxUUONixhBEGgZQVFnE/Z3q71RwAvWY4blJOYBQ/zli4820bpZ3CrDlCYEfUHLiJaQlDCs+ZhggTbsIAcnnpAuTdrZQsSy1EkbeKLmFnpkagBg0GnpgTGAGcsaCJhPvNoUc2TBOhlm6NAoYNAxRxPWc6jXGyvBKk1gu7NguLtNYcif9YST1n2tXIYoyT5ZcgT8K9+Mw3KuPXv8Nswv6oNFEUBN6xpkblrSOfuP0mswl78ZmJ8vj1U74X+mXNKhtEKafdZDDmoMIAzMfRn8ONJOJk+SWIExirCftR55e7Jp99FbkJA+CbWy5A3sulk96asB5Ik4OdnsRusB6WIOJ4zrS59tAbfJxDpHEChs0hbunQtde1Jqy6r0EOXX1d/c0uHjj5UOSFHpr2C6v28FryB/muE6nokCNOniCbGlJZWQajrtQUV59seM405IXnTJNdOtBrZINFKoZI4+LDfV99tAiP57SFfkGEoQeEAe/aOXyCkDGCOjVucLAD42e9uN+4oE78hSEEFpEctBGK5eFzoiAYIl3oS/xideQ9keM/S5Iq+Ac9q39ug59ag0JLfqg1kh4ijZrp0sThusBHutBPUtD4yNyphhb6qQaPocZO026Y84clltTcTJZhR/2caYq5adQIaRcGhVlTrOYKXEfNVxMWmk+sYzXarKKAgafFwS7VM+RRP2eaEtSwt4swAKWOLE1YVKgug1FXqjXXJqxYl0uqMA68am3CIsWpCesNGV1v1MEu7OZVam4qq+YIAy81ByXIEOl24kf7J84JkjFYm77Enzww8R62NkMTllPQ2UNzp7QmbBS1BqVw+taunLjl63cFB7vNE4MfkmQoZGurdKQxTlYUmIUBYGPXnql36Nqp52XlcVR2WZZXTcKwPH8vTNZO7HsItUBZqfSRXbaAgx3kDVsYQFZzPIEw+x0YvoqeO3jz1Dm7z6Fm+Kj0yrGcIDEj6YdVc6SFrObI0EB5/gM7YQDwmZ0wdiKpEQcMy5JNC1E9Zzojw4nUiCOJ50xnZDiRKuPpq42c59HjMKTUuOE503mhmRmG9I602M4J82oYUnO/JUpxpDlSnxtOTacgZH2OCLmbexxjiBo2GLydMID+es86FYVeDFHXGrzAWRbwqZH63plFbsIAmiXhAuQtnL5qWcCHL7yhBXyeUeybsLh9K9cebHSDoetf3OpyATd9n6gmbCqVDsYex3Omg/BoJldZWjoxrC3go8sXGoFOYEGkPghIFvaElhlW7eG15A/y3e1Eav+hIEO7UYsDouhJvKj6oFAjDiIMwHycOpKPrb4wYvBBCZPJ/SfPc5KgNWGpcV/o/8qQ1MKuqevrlfYj87+lNmHNAsnEESMFpX9Xod7pa5INnjP9oOlq6JNBZtIeqc8r1MCpYXvti5jz70RhAKn/p6J8znQQWDVFWiL1+UE1cAVd4wSfTdh6fYGXpN6dKgwg9ZOAC/zH96CZ5PSKWxhAXbEu4OtGS8tg1Fty3d0HhZdKkBci9ZFdGhCpj2xGjmrcPoUBgDDI5o4lmyFvkDRH6vOLsKX4jqQv12pHd3KtAezofy5qmJ3wFETqa5TJ/V/by0l550j6SnX86Nxvxl5TJ0EmjgDYjVApdeW55ZeGz9l9rjan3p05JiGBuU4pKXFkGMluQgDsjD8omTjSQdbnyMiwIRNHRoYNmTgyMmzIxBGAtEbqywiHrOMXkCCz20G+mxE92Y0ISPeZK+d5/rEPCjVuiNSXE3PMBXyLGxvt3NePqAv4zALJxJEeshsRAtTAqWF7HeI158+EkS6ymxESYOBpidSXEQ5ZhzwkwLgbjdRHNjNSRiaOEKnJLb4X8EGkvqzWSCfZTYmA1rcn9zYLTc4L+Kpb4xsvH34iFvBlZGRkZGRkZGRkZGRkmOG4/w9N56RSlDS+wQAAAABJRU5ErkJggg==;" parent="1" vertex="1">
          <mxGeometry x="70" y="741.5" width="180" height="153" as="geometry" />
        </mxCell>
        <mxCell id="Xi7EQyzXXoAQUirJSp25-60" value="" style="endArrow=classic;html=1;rounded=0;entryX=0.11;entryY=0.65;entryDx=0;entryDy=0;entryPerimeter=0;strokeWidth=3;shape=arrow;fillColor=#6d8764;strokeColor=#3A5431;" parent="1" source="Xi7EQyzXXoAQUirJSp25-6" edge="1">
          <mxGeometry width="50" height="50" relative="1" as="geometry">
            <mxPoint x="220" y="709.9999999999999" as="sourcePoint" />
            <mxPoint x="369.5" y="675.441" as="targetPoint" />
            <Array as="points">
              <mxPoint x="242.5" y="742.15" />
            </Array>
          </mxGeometry>
        </mxCell>
        <mxCell id="DE_W1pxfewOecbfFY2GO-1" value="" style="shape=image;verticalLabelPosition=bottom;labelBackgroundColor=default;verticalAlign=top;aspect=fixed;imageAspect=0;image=data:image/svg+xml,PHN2ZyB4bWxucz0iaHR0cDovL3d3dy53My5vcmcvMjAwMC9zdmciIHN0eWxlPSJjdXJzb3I6IG1vdmU7IiBoZWlnaHQ9Ijc4MSIgd2lkdGg9IjE3MDciIHZpZXdCb3g9IjAgMCAxNzA3IDc4MSI+PGcgdHJhbnNmb3JtPSJ0cmFuc2xhdGUoLTg2LjQ1Nzk1NzQ1NDg1NiwtNjIuMjg4Mzc0NDAxMjY4OTI1KSBzY2FsZSgxLjEwMTQ0MjMxNDY1MzMzNjMpIj48cGF0aCBzdHlsZT0ic3Ryb2tlLXdpZHRoOiAwLjU2OyBzdHJva2Utb3BhY2l0eTogMTsgc3Ryb2tlOiByZ2IoNDMsIDM5LCAzOSk7IGZpbGw6IG5vbmU7IG9wYWNpdHk6IDE7IiBkPSJNNjA5LDI0OS41QzY2My41LDI0OS41IDY2My41LDI0OS41IDcxOCwyNDkuNSIgbWFya2VyLWVuZD0iIiBjbGFzcz0ibGluayIvPjxwYXRoIHN0eWxlPSJzdHJva2Utd2lkdGg6IDAuNTY7IHN0cm9rZS1vcGFjaXR5OiAxOyBzdHJva2U6IHJnYig0MywgMzksIDM5KTsgZmlsbDogbm9uZTsgb3BhY2l0eTogMTsiIGQ9Ik02MDksMjQ5LjVDNjYzLjUsMjQ5LjUgNjYzLjUsMjg5LjUgNzE4LDI4OS41IiBtYXJrZXItZW5kPSIiIGNsYXNzPSJsaW5rIi8+PHBhdGggc3R5bGU9InN0cm9rZS13aWR0aDogMC41Njsgc3Ryb2tlLW9wYWNpdHk6IDE7IHN0cm9rZTogcmdiKDQzLCAzOSwgMzkpOyBmaWxsOiBub25lOyBvcGFjaXR5OiAxOyIgZD0iTTYwOSwyNDkuNUM2NjMuNSwyNDkuNSA2NjMuNSwzMjkuNSA3MTgsMzI5LjUiIG1hcmtlci1lbmQ9IiIgY2xhc3M9ImxpbmsiLz48cGF0aCBzdHlsZT0ic3Ryb2tlLXdpZHRoOiAwLjU2OyBzdHJva2Utb3BhY2l0eTogMTsgc3Ryb2tlOiByZ2IoNDMsIDM5LCAzOSk7IGZpbGw6IG5vbmU7IG9wYWNpdHk6IDE7IiBkPSJNNjA5LDI0OS41QzY2My41LDI0OS41IDY2My41LDM2OS41IDcxOCwzNjkuNSIgbWFya2VyLWVuZD0iIiBjbGFzcz0ibGluayIvPjxwYXRoIHN0eWxlPSJzdHJva2Utd2lkdGg6IDAuNTY7IHN0cm9rZS1vcGFjaXR5OiAxOyBzdHJva2U6IHJnYig0MywgMzksIDM5KTsgZmlsbDogbm9uZTsgb3BhY2l0eTogMTsiIGQ9Ik02MDksMjQ5LjVDNjYzLjUsMjQ5LjUgNjYzLjUsNDA5LjUgNzE4LDQwOS41IiBtYXJrZXItZW5kPSIiIGNsYXNzPSJsaW5rIi8+PHBhdGggc3R5bGU9InN0cm9rZS13aWR0aDogMC41Njsgc3Ryb2tlLW9wYWNpdHk6IDE7IHN0cm9rZTogcmdiKDQzLCAzOSwgMzkpOyBmaWxsOiBub25lOyBvcGFjaXR5OiAxOyIgZD0iTTYwOSwyODkuNUM2NjMuNSwyODkuNSA2NjMuNSwyNDkuNSA3MTgsMjQ5LjUiIG1hcmtlci1lbmQ9IiIgY2xhc3M9ImxpbmsiLz48cGF0aCBzdHlsZT0ic3Ryb2tlLXdpZHRoOiAwLjU2OyBzdHJva2Utb3BhY2l0eTogMTsgc3Ryb2tlOiByZ2IoNDMsIDM5LCAzOSk7IGZpbGw6IG5vbmU7IG9wYWNpdHk6IDE7IiBkPSJNNjA5LDI4OS41QzY2My41LDI4OS41IDY2My41LDI4OS41IDcxOCwyODkuNSIgbWFya2VyLWVuZD0iIiBjbGFzcz0ibGluayIvPjxwYXRoIHN0eWxlPSJzdHJva2Utd2lkdGg6IDAuNTY7IHN0cm9rZS1vcGFjaXR5OiAxOyBzdHJva2U6IHJnYig0MywgMzksIDM5KTsgZmlsbDogbm9uZTsgb3BhY2l0eTogMTsiIGQ9Ik02MDksMjg5LjVDNjYzLjUsMjg5LjUgNjYzLjUsMzI5LjUgNzE4LDMyOS41IiBtYXJrZXItZW5kPSIiIGNsYXNzPSJsaW5rIi8+PHBhdGggc3R5bGU9InN0cm9rZS13aWR0aDogMC41Njsgc3Ryb2tlLW9wYWNpdHk6IDE7IHN0cm9rZTogcmdiKDQzLCAzOSwgMzkpOyBmaWxsOiBub25lOyBvcGFjaXR5OiAxOyIgZD0iTTYwOSwyODkuNUM2NjMuNSwyODkuNSA2NjMuNSwzNjkuNSA3MTgsMzY5LjUiIG1hcmtlci1lbmQ9IiIgY2xhc3M9ImxpbmsiLz48cGF0aCBzdHlsZT0ic3Ryb2tlLXdpZHRoOiAwLjU2OyBzdHJva2Utb3BhY2l0eTogMTsgc3Ryb2tlOiByZ2IoNDMsIDM5LCAzOSk7IGZpbGw6IG5vbmU7IG9wYWNpdHk6IDE7IiBkPSJNNjA5LDI4OS41QzY2My41LDI4OS41IDY2My41LDQwOS41IDcxOCw0MDkuNSIgbWFya2VyLWVuZD0iIiBjbGFzcz0ibGluayIvPjxwYXRoIHN0eWxlPSJzdHJva2Utd2lkdGg6IDAuNTY7IHN0cm9rZS1vcGFjaXR5OiAxOyBzdHJva2U6IHJnYig0MywgMzksIDM5KTsgZmlsbDogbm9uZTsgb3BhY2l0eTogMTsiIGQ9Ik02MDksMzI5LjVDNjYzLjUsMzI5LjUgNjYzLjUsMjQ5LjUgNzE4LDI0OS41IiBtYXJrZXItZW5kPSIiIGNsYXNzPSJsaW5rIi8+PHBhdGggc3R5bGU9InN0cm9rZS13aWR0aDogMC41Njsgc3Ryb2tlLW9wYWNpdHk6IDE7IHN0cm9rZTogcmdiKDQzLCAzOSwgMzkpOyBmaWxsOiBub25lOyBvcGFjaXR5OiAxOyIgZD0iTTYwOSwzMjkuNUM2NjMuNSwzMjkuNSA2NjMuNSwyODkuNSA3MTgsMjg5LjUiIG1hcmtlci1lbmQ9IiIgY2xhc3M9ImxpbmsiLz48cGF0aCBzdHlsZT0ic3Ryb2tlLXdpZHRoOiAwLjU2OyBzdHJva2Utb3BhY2l0eTogMTsgc3Ryb2tlOiByZ2IoNDMsIDM5LCAzOSk7IGZpbGw6IG5vbmU7IG9wYWNpdHk6IDE7IiBkPSJNNjA5LDMyOS41QzY2My41LDMyOS41IDY2My41LDMyOS41IDcxOCwzMjkuNSIgbWFya2VyLWVuZD0iIiBjbGFzcz0ibGluayIvPjxwYXRoIHN0eWxlPSJzdHJva2Utd2lkdGg6IDAuNTY7IHN0cm9rZS1vcGFjaXR5OiAxOyBzdHJva2U6IHJnYig0MywgMzksIDM5KTsgZmlsbDogbm9uZTsgb3BhY2l0eTogMTsiIGQ9Ik02MDksMzI5LjVDNjYzLjUsMzI5LjUgNjYzLjUsMzY5LjUgNzE4LDM2OS41IiBtYXJrZXItZW5kPSIiIGNsYXNzPSJsaW5rIi8+PHBhdGggc3R5bGU9InN0cm9rZS13aWR0aDogMC41Njsgc3Ryb2tlLW9wYWNpdHk6IDE7IHN0cm9rZTogcmdiKDQzLCAzOSwgMzkpOyBmaWxsOiBub25lOyBvcGFjaXR5OiAxOyIgZD0iTTYwOSwzMjkuNUM2NjMuNSwzMjkuNSA2NjMuNSw0MDkuNSA3MTgsNDA5LjUiIG1hcmtlci1lbmQ9IiIgY2xhc3M9ImxpbmsiLz48cGF0aCBzdHlsZT0ic3Ryb2tlLXdpZHRoOiAwLjU2OyBzdHJva2Utb3BhY2l0eTogMTsgc3Ryb2tlOiByZ2IoNDMsIDM5LCAzOSk7IGZpbGw6IG5vbmU7IG9wYWNpdHk6IDE7IiBkPSJNNjA5LDM2OS41QzY2My41LDM2OS41IDY2My41LDI0OS41IDcxOCwyNDkuNSIgbWFya2VyLWVuZD0iIiBjbGFzcz0ibGluayIvPjxwYXRoIHN0eWxlPSJzdHJva2Utd2lkdGg6IDAuNTY7IHN0cm9rZS1vcGFjaXR5OiAxOyBzdHJva2U6IHJnYig0MywgMzksIDM5KTsgZmlsbDogbm9uZTsgb3BhY2l0eTogMTsiIGQ9Ik02MDksMzY5LjVDNjYzLjUsMzY5LjUgNjYzLjUsMjg5LjUgNzE4LDI4OS41IiBtYXJrZXItZW5kPSIiIGNsYXNzPSJsaW5rIi8+PHBhdGggc3R5bGU9InN0cm9rZS13aWR0aDogMC41Njsgc3Ryb2tlLW9wYWNpdHk6IDE7IHN0cm9rZTogcmdiKDQzLCAzOSwgMzkpOyBmaWxsOiBub25lOyBvcGFjaXR5OiAxOyIgZD0iTTYwOSwzNjkuNUM2NjMuNSwzNjkuNSA2NjMuNSwzMjkuNSA3MTgsMzI5LjUiIG1hcmtlci1lbmQ9IiIgY2xhc3M9ImxpbmsiLz48cGF0aCBzdHlsZT0ic3Ryb2tlLXdpZHRoOiAwLjU2OyBzdHJva2Utb3BhY2l0eTogMTsgc3Ryb2tlOiByZ2IoNDMsIDM5LCAzOSk7IGZpbGw6IG5vbmU7IG9wYWNpdHk6IDE7IiBkPSJNNjA5LDM2OS41QzY2My41LDM2OS41IDY2My41LDM2OS41IDcxOCwzNjkuNSIgbWFya2VyLWVuZD0iIiBjbGFzcz0ibGluayIvPjxwYXRoIHN0eWxlPSJzdHJva2Utd2lkdGg6IDAuNTY7IHN0cm9rZS1vcGFjaXR5OiAxOyBzdHJva2U6IHJnYig0MywgMzksIDM5KTsgZmlsbDogbm9uZTsgb3BhY2l0eTogMTsiIGQ9Ik02MDksMzY5LjVDNjYzLjUsMzY5LjUgNjYzLjUsNDA5LjUgNzE4LDQwOS41IiBtYXJrZXItZW5kPSIiIGNsYXNzPSJsaW5rIi8+PHBhdGggc3R5bGU9InN0cm9rZS13aWR0aDogMC41Njsgc3Ryb2tlLW9wYWNpdHk6IDE7IHN0cm9rZTogcmdiKDQzLCAzOSwgMzkpOyBmaWxsOiBub25lOyBvcGFjaXR5OiAxOyIgZD0iTTcxOCwyMDkuNUM3NzIuNSwyMDkuNSA3NzIuNSwyMjkuNSA4MjcsMjI5LjUiIG1hcmtlci1lbmQ9IiIgY2xhc3M9ImxpbmsiLz48cGF0aCBzdHlsZT0ic3Ryb2tlLXdpZHRoOiAwLjU2OyBzdHJva2Utb3BhY2l0eTogMTsgc3Ryb2tlOiByZ2IoNDMsIDM5LCAzOSk7IGZpbGw6IG5vbmU7IG9wYWNpdHk6IDE7IiBkPSJNNzE4LDIwOS41Qzc3Mi41LDIwOS41IDc3Mi41LDI2OS41IDgyNywyNjkuNSIgbWFya2VyLWVuZD0iIiBjbGFzcz0ibGluayIvPjxwYXRoIHN0eWxlPSJzdHJva2Utd2lkdGg6IDAuNTY7IHN0cm9rZS1vcGFjaXR5OiAxOyBzdHJva2U6IHJnYig0MywgMzksIDM5KTsgZmlsbDogbm9uZTsgb3BhY2l0eTogMTsiIGQ9Ik03MTgsMjA5LjVDNzcyLjUsMjA5LjUgNzcyLjUsMzA5LjUgODI3LDMwOS41IiBtYXJrZXItZW5kPSIiIGNsYXNzPSJsaW5rIi8+PHBhdGggc3R5bGU9InN0cm9rZS13aWR0aDogMC41Njsgc3Ryb2tlLW9wYWNpdHk6IDE7IHN0cm9rZTogcmdiKDQzLCAzOSwgMzkpOyBmaWxsOiBub25lOyBvcGFjaXR5OiAxOyIgZD0iTTcxOCwyMDkuNUM3NzIuNSwyMDkuNSA3NzIuNSwzNDkuNSA4MjcsMzQ5LjUiIG1hcmtlci1lbmQ9IiIgY2xhc3M9ImxpbmsiLz48cGF0aCBzdHlsZT0ic3Ryb2tlLXdpZHRoOiAwLjU2OyBzdHJva2Utb3BhY2l0eTogMTsgc3Ryb2tlOiByZ2IoNDMsIDM5LCAzOSk7IGZpbGw6IG5vbmU7IG9wYWNpdHk6IDE7IiBkPSJNNzE4LDIwOS41Qzc3Mi41LDIwOS41IDc3Mi41LDM4OS41IDgyNywzODkuNSIgbWFya2VyLWVuZD0iIiBjbGFzcz0ibGluayIvPjxwYXRoIHN0eWxlPSJzdHJva2Utd2lkdGg6IDAuNTY7IHN0cm9rZS1vcGFjaXR5OiAxOyBzdHJva2U6IHJnYig0MywgMzksIDM5KTsgZmlsbDogbm9uZTsgb3BhY2l0eTogMTsiIGQ9Ik03MTgsMjQ5LjVDNzcyLjUsMjQ5LjUgNzcyLjUsMjI5LjUgODI3LDIyOS41IiBtYXJrZXItZW5kPSIiIGNsYXNzPSJsaW5rIi8+PHBhdGggc3R5bGU9InN0cm9rZS13aWR0aDogMC41Njsgc3Ryb2tlLW9wYWNpdHk6IDE7IHN0cm9rZTogcmdiKDQzLCAzOSwgMzkpOyBmaWxsOiBub25lOyBvcGFjaXR5OiAxOyIgZD0iTTcxOCwyNDkuNUM3NzIuNSwyNDkuNSA3NzIuNSwyNjkuNSA4MjcsMjY5LjUiIG1hcmtlci1lbmQ9IiIgY2xhc3M9ImxpbmsiLz48cGF0aCBzdHlsZT0ic3Ryb2tlLXdpZHRoOiAwLjU2OyBzdHJva2Utb3BhY2l0eTogMTsgc3Ryb2tlOiByZ2IoNDMsIDM5LCAzOSk7IGZpbGw6IG5vbmU7IG9wYWNpdHk6IDE7IiBkPSJNNzE4LDI0OS41Qzc3Mi41LDI0OS41IDc3Mi41LDMwOS41IDgyNywzMDkuNSIgbWFya2VyLWVuZD0iIiBjbGFzcz0ibGluayIvPjxwYXRoIHN0eWxlPSJzdHJva2Utd2lkdGg6IDAuNTY7IHN0cm9rZS1vcGFjaXR5OiAxOyBzdHJva2U6IHJnYig0MywgMzksIDM5KTsgZmlsbDogbm9uZTsgb3BhY2l0eTogMTsiIGQ9Ik03MTgsMjQ5LjVDNzcyLjUsMjQ5LjUgNzcyLjUsMzQ5LjUgODI3LDM0OS41IiBtYXJrZXItZW5kPSIiIGNsYXNzPSJsaW5rIi8+PHBhdGggc3R5bGU9InN0cm9rZS13aWR0aDogMC41Njsgc3Ryb2tlLW9wYWNpdHk6IDE7IHN0cm9rZTogcmdiKDQzLCAzOSwgMzkpOyBmaWxsOiBub25lOyBvcGFjaXR5OiAxOyIgZD0iTTcxOCwyNDkuNUM3NzIuNSwyNDkuNSA3NzIuNSwzODkuNSA4MjcsMzg5LjUiIG1hcmtlci1lbmQ9IiIgY2xhc3M9ImxpbmsiLz48cGF0aCBzdHlsZT0ic3Ryb2tlLXdpZHRoOiAwLjU2OyBzdHJva2Utb3BhY2l0eTogMTsgc3Ryb2tlOiByZ2IoNDMsIDM5LCAzOSk7IGZpbGw6IG5vbmU7IG9wYWNpdHk6IDE7IiBkPSJNNzE4LDI4OS41Qzc3Mi41LDI4OS41IDc3Mi41LDIyOS41IDgyNywyMjkuNSIgbWFya2VyLWVuZD0iIiBjbGFzcz0ibGluayIvPjxwYXRoIHN0eWxlPSJzdHJva2Utd2lkdGg6IDAuNTY7IHN0cm9rZS1vcGFjaXR5OiAxOyBzdHJva2U6IHJnYig0MywgMzksIDM5KTsgZmlsbDogbm9uZTsgb3BhY2l0eTogMTsiIGQ9Ik03MTgsMjg5LjVDNzcyLjUsMjg5LjUgNzcyLjUsMjY5LjUgODI3LDI2OS41IiBtYXJrZXItZW5kPSIiIGNsYXNzPSJsaW5rIi8+PHBhdGggc3R5bGU9InN0cm9rZS13aWR0aDogMC41Njsgc3Ryb2tlLW9wYWNpdHk6IDE7IHN0cm9rZTogcmdiKDQzLCAzOSwgMzkpOyBmaWxsOiBub25lOyBvcGFjaXR5OiAxOyIgZD0iTTcxOCwyODkuNUM3NzIuNSwyODkuNSA3NzIuNSwzMDkuNSA4MjcsMzA5LjUiIG1hcmtlci1lbmQ9IiIgY2xhc3M9ImxpbmsiLz48cGF0aCBzdHlsZT0ic3Ryb2tlLXdpZHRoOiAwLjU2OyBzdHJva2Utb3BhY2l0eTogMTsgc3Ryb2tlOiByZ2IoNDMsIDM5LCAzOSk7IGZpbGw6IG5vbmU7IG9wYWNpdHk6IDE7IiBkPSJNNzE4LDI4OS41Qzc3Mi41LDI4OS41IDc3Mi41LDM0OS41IDgyNywzNDkuNSIgbWFya2VyLWVuZD0iIiBjbGFzcz0ibGluayIvPjxwYXRoIHN0eWxlPSJzdHJva2Utd2lkdGg6IDAuNTY7IHN0cm9rZS1vcGFjaXR5OiAxOyBzdHJva2U6IHJnYig0MywgMzksIDM5KTsgZmlsbDogbm9uZTsgb3BhY2l0eTogMTsiIGQ9Ik03MTgsMjg5LjVDNzcyLjUsMjg5LjUgNzcyLjUsMzg5LjUgODI3LDM4OS41IiBtYXJrZXItZW5kPSIiIGNsYXNzPSJsaW5rIi8+PHBhdGggc3R5bGU9InN0cm9rZS13aWR0aDogMC41Njsgc3Ryb2tlLW9wYWNpdHk6IDE7IHN0cm9rZTogcmdiKDQzLCAzOSwgMzkpOyBmaWxsOiBub25lOyBvcGFjaXR5OiAxOyIgZD0iTTcxOCwzMjkuNUM3NzIuNSwzMjkuNSA3NzIuNSwyMjkuNSA4MjcsMjI5LjUiIG1hcmtlci1lbmQ9IiIgY2xhc3M9ImxpbmsiLz48cGF0aCBzdHlsZT0ic3Ryb2tlLXdpZHRoOiAwLjU2OyBzdHJva2Utb3BhY2l0eTogMTsgc3Ryb2tlOiByZ2IoNDMsIDM5LCAzOSk7IGZpbGw6IG5vbmU7IG9wYWNpdHk6IDE7IiBkPSJNNzE4LDMyOS41Qzc3Mi41LDMyOS41IDc3Mi41LDI2OS41IDgyNywyNjkuNSIgbWFya2VyLWVuZD0iIiBjbGFzcz0ibGluayIvPjxwYXRoIHN0eWxlPSJzdHJva2Utd2lkdGg6IDAuNTY7IHN0cm9rZS1vcGFjaXR5OiAxOyBzdHJva2U6IHJnYig0MywgMzksIDM5KTsgZmlsbDogbm9uZTsgb3BhY2l0eTogMTsiIGQ9Ik03MTgsMzI5LjVDNzcyLjUsMzI5LjUgNzcyLjUsMzA5LjUgODI3LDMwOS41IiBtYXJrZXItZW5kPSIiIGNsYXNzPSJsaW5rIi8+PHBhdGggc3R5bGU9InN0cm9rZS13aWR0aDogMC41Njsgc3Ryb2tlLW9wYWNpdHk6IDE7IHN0cm9rZTogcmdiKDQzLCAzOSwgMzkpOyBmaWxsOiBub25lOyBvcGFjaXR5OiAxOyIgZD0iTTcxOCwzMjkuNUM3NzIuNSwzMjkuNSA3NzIuNSwzNDkuNSA4MjcsMzQ5LjUiIG1hcmtlci1lbmQ9IiIgY2xhc3M9ImxpbmsiLz48cGF0aCBzdHlsZT0ic3Ryb2tlLXdpZHRoOiAwLjU2OyBzdHJva2Utb3BhY2l0eTogMTsgc3Ryb2tlOiByZ2IoNDMsIDM5LCAzOSk7IGZpbGw6IG5vbmU7IG9wYWNpdHk6IDE7IiBkPSJNNzE4LDMyOS41Qzc3Mi41LDMyOS41IDc3Mi41LDM4OS41IDgyNywzODkuNSIgbWFya2VyLWVuZD0iIiBjbGFzcz0ibGluayIvPjxwYXRoIHN0eWxlPSJzdHJva2Utd2lkdGg6IDAuNTY7IHN0cm9rZS1vcGFjaXR5OiAxOyBzdHJva2U6IHJnYig0MywgMzksIDM5KTsgZmlsbDogbm9uZTsgb3BhY2l0eTogMTsiIGQ9Ik03MTgsMzY5LjVDNzcyLjUsMzY5LjUgNzcyLjUsMjI5LjUgODI3LDIyOS41IiBtYXJrZXItZW5kPSIiIGNsYXNzPSJsaW5rIi8+PHBhdGggc3R5bGU9InN0cm9rZS13aWR0aDogMC41Njsgc3Ryb2tlLW9wYWNpdHk6IDE7IHN0cm9rZTogcmdiKDQzLCAzOSwgMzkpOyBmaWxsOiBub25lOyBvcGFjaXR5OiAxOyIgZD0iTTcxOCwzNjkuNUM3NzIuNSwzNjkuNSA3NzIuNSwyNjkuNSA4MjcsMjY5LjUiIG1hcmtlci1lbmQ9IiIgY2xhc3M9ImxpbmsiLz48cGF0aCBzdHlsZT0ic3Ryb2tlLXdpZHRoOiAwLjU2OyBzdHJva2Utb3BhY2l0eTogMTsgc3Ryb2tlOiByZ2IoNDMsIDM5LCAzOSk7IGZpbGw6IG5vbmU7IG9wYWNpdHk6IDE7IiBkPSJNNzE4LDM2OS41Qzc3Mi41LDM2OS41IDc3Mi41LDMwOS41IDgyNywzMDkuNSIgbWFya2VyLWVuZD0iIiBjbGFzcz0ibGluayIvPjxwYXRoIHN0eWxlPSJzdHJva2Utd2lkdGg6IDAuNTY7IHN0cm9rZS1vcGFjaXR5OiAxOyBzdHJva2U6IHJnYig0MywgMzksIDM5KTsgZmlsbDogbm9uZTsgb3BhY2l0eTogMTsiIGQ9Ik03MTgsMzY5LjVDNzcyLjUsMzY5LjUgNzcyLjUsMzQ5LjUgODI3LDM0OS41IiBtYXJrZXItZW5kPSIiIGNsYXNzPSJsaW5rIi8+PHBhdGggc3R5bGU9InN0cm9rZS13aWR0aDogMC41Njsgc3Ryb2tlLW9wYWNpdHk6IDE7IHN0cm9rZTogcmdiKDQzLCAzOSwgMzkpOyBmaWxsOiBub25lOyBvcGFjaXR5OiAxOyIgZD0iTTcxOCwzNjkuNUM3NzIuNSwzNjkuNSA3NzIuNSwzODkuNSA4MjcsMzg5LjUiIG1hcmtlci1lbmQ9IiIgY2xhc3M9ImxpbmsiLz48cGF0aCBzdHlsZT0ic3Ryb2tlLXdpZHRoOiAwLjU2OyBzdHJva2Utb3BhY2l0eTogMTsgc3Ryb2tlOiByZ2IoNDMsIDM5LCAzOSk7IGZpbGw6IG5vbmU7IG9wYWNpdHk6IDE7IiBkPSJNNzE4LDQwOS41Qzc3Mi41LDQwOS41IDc3Mi41LDIyOS41IDgyNywyMjkuNSIgbWFya2VyLWVuZD0iIiBjbGFzcz0ibGluayIvPjxwYXRoIHN0eWxlPSJzdHJva2Utd2lkdGg6IDAuNTY7IHN0cm9rZS1vcGFjaXR5OiAxOyBzdHJva2U6IHJnYig0MywgMzksIDM5KTsgZmlsbDogbm9uZTsgb3BhY2l0eTogMTsiIGQ9Ik03MTgsNDA5LjVDNzcyLjUsNDA5LjUgNzcyLjUsMjY5LjUgODI3LDI2OS41IiBtYXJrZXItZW5kPSIiIGNsYXNzPSJsaW5rIi8+PHBhdGggc3R5bGU9InN0cm9rZS13aWR0aDogMC41Njsgc3Ryb2tlLW9wYWNpdHk6IDE7IHN0cm9rZTogcmdiKDQzLCAzOSwgMzkpOyBmaWxsOiBub25lOyBvcGFjaXR5OiAxOyIgZD0iTTcxOCw0MDkuNUM3NzIuNSw0MDkuNSA3NzIuNSwzMDkuNSA4MjcsMzA5LjUiIG1hcmtlci1lbmQ9IiIgY2xhc3M9ImxpbmsiLz48cGF0aCBzdHlsZT0ic3Ryb2tlLXdpZHRoOiAwLjU2OyBzdHJva2Utb3BhY2l0eTogMTsgc3Ryb2tlOiByZ2IoNDMsIDM5LCAzOSk7IGZpbGw6IG5vbmU7IG9wYWNpdHk6IDE7IiBkPSJNNzE4LDQwOS41Qzc3Mi41LDQwOS41IDc3Mi41LDM0OS41IDgyNywzNDkuNSIgbWFya2VyLWVuZD0iIiBjbGFzcz0ibGluayIvPjxwYXRoIHN0eWxlPSJzdHJva2Utd2lkdGg6IDAuNTY7IHN0cm9rZS1vcGFjaXR5OiAxOyBzdHJva2U6IHJnYig0MywgMzksIDM5KTsgZmlsbDogbm9uZTsgb3BhY2l0eTogMTsiIGQ9Ik03MTgsNDA5LjVDNzcyLjUsNDA5LjUgNzcyLjUsMzg5LjUgODI3LDM4OS41IiBtYXJrZXItZW5kPSIiIGNsYXNzPSJsaW5rIi8+PHBhdGggc3R5bGU9InN0cm9rZS13aWR0aDogMC41Njsgc3Ryb2tlLW9wYWNpdHk6IDE7IHN0cm9rZTogcmdiKDQzLCAzOSwgMzkpOyBmaWxsOiBub25lOyBvcGFjaXR5OiAxOyIgZD0iTTYwOSwyNDkuNUM2NjMuNSwyNDkuNSA2NjMuNSwyMDkuNSA3MTgsMjA5LjUiIG1hcmtlci1lbmQ9IiIgY2xhc3M9ImxpbmsiLz48cGF0aCBzdHlsZT0ic3Ryb2tlLXdpZHRoOiAwLjU2OyBzdHJva2Utb3BhY2l0eTogMTsgc3Ryb2tlOiByZ2IoNDMsIDM5LCAzOSk7IGZpbGw6IG5vbmU7IG9wYWNpdHk6IDE7IiBkPSJNNjA5LDI4OS41QzY2My41LDI4OS41IDY2My41LDIwOS41IDcxOCwyMDkuNSIgbWFya2VyLWVuZD0iIiBjbGFzcz0ibGluayIvPjxwYXRoIHN0eWxlPSJzdHJva2Utd2lkdGg6IDAuNTY7IHN0cm9rZS1vcGFjaXR5OiAxOyBzdHJva2U6IHJnYig0MywgMzksIDM5KTsgZmlsbDogbm9uZTsgb3BhY2l0eTogMTsiIGQ9Ik02MDksMzI5LjVDNjYzLjUsMzI5LjUgNjYzLjUsMjA5LjUgNzE4LDIwOS41IiBtYXJrZXItZW5kPSIiIGNsYXNzPSJsaW5rIi8+PHBhdGggc3R5bGU9InN0cm9rZS13aWR0aDogMC41Njsgc3Ryb2tlLW9wYWNpdHk6IDE7IHN0cm9rZTogcmdiKDQzLCAzOSwgMzkpOyBmaWxsOiBub25lOyBvcGFjaXR5OiAxOyIgZD0iTTYwOSwzNjkuNUM2NjMuNSwzNjkuNSA2NjMuNSwyMDkuNSA3MTgsMjA5LjUiIG1hcmtlci1lbmQ9IiIgY2xhc3M9ImxpbmsiLz48Y2lyY2xlIHN0eWxlPSJmaWxsOiByZ2IoMTk2LCAxMzUsIDEzNSk7IHN0cm9rZTogcmdiKDUxLCA1MSwgNTEpOyBvcGFjaXR5OiAxOyIgY3k9IjI0OS41IiBjeD0iNjA5IiBpZD0iMF8wIiBjbGFzcz0ibm9kZSIgcj0iMTAiLz48Y2lyY2xlIHN0eWxlPSJmaWxsOiByZ2IoMTk2LCAxMzUsIDEzNSk7IHN0cm9rZTogcmdiKDUxLCA1MSwgNTEpOyBvcGFjaXR5OiAxOyIgY3k9IjI4OS41IiBjeD0iNjA5IiBpZD0iMF8xIiBjbGFzcz0ibm9kZSIgcj0iMTAiLz48Y2lyY2xlIHN0eWxlPSJmaWxsOiByZ2IoMTk2LCAxMzUsIDEzNSk7IHN0cm9rZTogcmdiKDUxLCA1MSwgNTEpOyBvcGFjaXR5OiAxOyIgY3k9IjMyOS41IiBjeD0iNjA5IiBpZD0iMF8yIiBjbGFzcz0ibm9kZSIgcj0iMTAiLz48Y2lyY2xlIHN0eWxlPSJmaWxsOiByZ2IoMTk2LCAxMzUsIDEzNSk7IHN0cm9rZTogcmdiKDUxLCA1MSwgNTEpOyBvcGFjaXR5OiAxOyIgY3k9IjM2OS41IiBjeD0iNjA5IiBpZD0iMF8zIiBjbGFzcz0ibm9kZSIgcj0iMTAiLz48Y2lyY2xlIHN0eWxlPSJmaWxsOiByZ2IoMTk2LCAxMzUsIDEzNSk7IHN0cm9rZTogcmdiKDUxLCA1MSwgNTEpOyBvcGFjaXR5OiAxOyIgY3k9IjIwOS41IiBjeD0iNzE4IiBpZD0iMV8wIiBjbGFzcz0ibm9kZSIgcj0iMTAiLz48Y2lyY2xlIHN0eWxlPSJmaWxsOiByZ2IoMTk2LCAxMzUsIDEzNSk7IHN0cm9rZTogcmdiKDUxLCA1MSwgNTEpOyBvcGFjaXR5OiAxOyIgY3k9IjI0OS41IiBjeD0iNzE4IiBpZD0iMV8xIiBjbGFzcz0ibm9kZSIgcj0iMTAiLz48Y2lyY2xlIHN0eWxlPSJmaWxsOiByZ2IoMTk2LCAxMzUsIDEzNSk7IHN0cm9rZTogcmdiKDUxLCA1MSwgNTEpOyBvcGFjaXR5OiAxOyIgY3k9IjI4OS41IiBjeD0iNzE4IiBpZD0iMV8yIiBjbGFzcz0ibm9kZSIgcj0iMTAiLz48Y2lyY2xlIHN0eWxlPSJmaWxsOiByZ2IoMTk2LCAxMzUsIDEzNSk7IHN0cm9rZTogcmdiKDUxLCA1MSwgNTEpOyBvcGFjaXR5OiAxOyIgY3k9IjMyOS41IiBjeD0iNzE4IiBpZD0iMV8zIiBjbGFzcz0ibm9kZSIgcj0iMTAiLz48Y2lyY2xlIHN0eWxlPSJmaWxsOiByZ2IoMTk2LCAxMzUsIDEzNSk7IHN0cm9rZTogcmdiKDUxLCA1MSwgNTEpOyBvcGFjaXR5OiAxOyIgY3k9IjM2OS41IiBjeD0iNzE4IiBpZD0iMV80IiBjbGFzcz0ibm9kZSIgcj0iMTAiLz48Y2lyY2xlIHN0eWxlPSJmaWxsOiByZ2IoMTk2LCAxMzUsIDEzNSk7IHN0cm9rZTogcmdiKDUxLCA1MSwgNTEpOyBvcGFjaXR5OiAxOyIgY3k9IjQwOS41IiBjeD0iNzE4IiBpZD0iMV81IiBjbGFzcz0ibm9kZSIgcj0iMTAiLz48Y2lyY2xlIHN0eWxlPSJmaWxsOiByZ2IoMTk2LCAxMzUsIDEzNSk7IHN0cm9rZTogcmdiKDUxLCA1MSwgNTEpOyBvcGFjaXR5OiAxOyIgY3k9IjIyOS41IiBjeD0iODI3IiBpZD0iMl8wIiBjbGFzcz0ibm9kZSIgcj0iMTAiLz48Y2lyY2xlIHN0eWxlPSJmaWxsOiByZ2IoMTk2LCAxMzUsIDEzNSk7IHN0cm9rZTogcmdiKDUxLCA1MSwgNTEpOyBvcGFjaXR5OiAxOyIgY3k9IjI2OS41IiBjeD0iODI3IiBpZD0iMl8xIiBjbGFzcz0ibm9kZSIgcj0iMTAiLz48Y2lyY2xlIHN0eWxlPSJmaWxsOiByZ2IoMTk2LCAxMzUsIDEzNSk7IHN0cm9rZTogcmdiKDUxLCA1MSwgNTEpOyBvcGFjaXR5OiAxOyIgY3k9IjMwOS41IiBjeD0iODI3IiBpZD0iMl8yIiBjbGFzcz0ibm9kZSIgcj0iMTAiLz48Y2lyY2xlIHN0eWxlPSJmaWxsOiByZ2IoMTk2LCAxMzUsIDEzNSk7IHN0cm9rZTogcmdiKDUxLCA1MSwgNTEpOyBvcGFjaXR5OiAxOyIgY3k9IjM0OS41IiBjeD0iODI3IiBpZD0iMl8zIiBjbGFzcz0ibm9kZSIgcj0iMTAiLz48Y2lyY2xlIHN0eWxlPSJmaWxsOiByZ2IoMTk2LCAxMzUsIDEzNSk7IHN0cm9rZTogcmdiKDUxLCA1MSwgNTEpOyBvcGFjaXR5OiAxOyIgY3k9IjM4OS41IiBjeD0iODI3IiBpZD0iMl80IiBjbGFzcz0ibm9kZSIgcj0iMTAiLz48dGV4dCBzdHlsZT0iZm9udC1zaXplOiAxMnB4OyIgeT0iNDQ5LjUiIHg9IjU3NCIgZHk9Ii4zNWVtIiBjbGFzcz0idGV4dCIvPjx0ZXh0IHN0eWxlPSJmb250LXNpemU6IDEycHg7IiB5PSI0NDkuNSIgeD0iNjgzIiBkeT0iLjM1ZW0iIGNsYXNzPSJ0ZXh0Ii8+PHRleHQgc3R5bGU9ImZvbnQtc2l6ZTogMTJweDsiIHk9IjQ0OS41IiB4PSI3OTIiIGR5PSIuMzVlbSIgY2xhc3M9InRleHQiLz48L2c+PGRlZnM+PG1hcmtlciByZWZYPSI0MCIgb3JpZW50PSJhdXRvIiBtYXJrZXJIZWlnaHQ9IjciIG1hcmtlcldpZHRoPSI3IiB2aWV3Qm94PSIwIC01IDEwIDEwIiBpZD0iYXJyb3ciPjxwYXRoIHN0eWxlPSJzdHJva2U6IHJnYig4MCwgODAsIDgwKTsgZmlsbDogbm9uZTsiIGQ9Ik0wLC01TDEwLDBMMCw1Ii8+PC9tYXJrZXI+PC9kZWZzPjwvc3ZnPg==;" vertex="1" parent="1">
          <mxGeometry x="-40" y="390" width="1377.05" height="630" as="geometry" />
        </mxCell>
      </root>
    </mxGraphModel>
  </diagram>
</mxfile>
